{"glyphs":{"0":{"ha":914,"x_min":58,"x_max":856,"o":"m 457 -11 q 276 -1 349 -11 q 160 36 204 8 q 94 118 117 64 q 65 260 72 172 q 58 478 58 347 q 65 696 58 608 q 94 838 72 783 q 160 919 117 892 q 276 957 204 947 q 457 967 349 967 q 638 957 565 967 q 753 919 710 947 q 819 838 797 892 q 849 696 842 783 q 856 478 856 608 q 849 260 856 347 q 819 118 842 172 q 753 36 797 64 q 638 -1 710 8 q 457 -11 565 -11 m 457 221 q 492 224 479 221 q 513 239 506 226 q 524 278 521 251 q 528 354 528 306 q 529 478 529 403 q 528 601 529 553 q 524 677 528 650 q 513 717 521 704 q 492 732 506 729 q 457 735 479 735 q 422 732 435 735 q 401 717 408 729 q 390 677 393 704 q 385 601 386 650 q 385 478 385 553 q 385 354 385 403 q 390 278 386 306 q 401 239 393 251 q 422 224 408 226 q 457 221 435 221 z "},"1":{"ha":564,"x_min":7,"x_max":494,"o":"m 169 0 l 169 653 l 7 589 l 7 825 l 272 956 l 494 956 l 494 0 l 169 0 z "},"2":{"ha":853,"x_min":60,"x_max":790,"o":"m 60 0 l 60 144 q 63 280 60 222 q 78 381 65 338 q 122 454 92 424 q 204 507 151 485 l 399 585 q 444 607 431 597 q 462 631 458 617 q 465 675 465 646 q 456 715 465 703 q 424 731 447 728 q 358 735 401 735 q 285 732 329 735 q 188 725 240 729 q 79 714 135 721 l 79 933 q 189 951 128 943 q 314 963 250 958 q 433 967 378 967 q 570 957 506 967 q 684 919 635 947 q 762 837 733 892 q 790 690 790 782 q 771 541 790 599 q 718 451 751 483 q 643 403 685 419 l 425 319 q 393 306 406 313 q 375 289 381 299 q 369 263 369 279 l 369 236 l 790 236 l 790 0 l 60 0 z "},"3":{"ha":849,"x_min":63,"x_max":789,"o":"m 386 -11 q 280 -7 338 -11 q 165 5 222 -3 q 63 21 108 13 l 63 238 q 168 229 114 233 q 271 223 222 225 q 354 221 319 221 q 425 224 401 221 q 456 242 449 228 q 464 290 464 257 q 457 344 464 328 q 431 365 450 361 q 376 369 413 369 l 228 369 l 228 596 l 376 596 q 432 601 415 596 q 453 621 449 606 q 457 667 457 636 q 451 714 457 700 q 419 731 444 728 q 340 735 394 735 q 251 732 300 735 q 153 726 201 729 q 68 717 106 722 l 68 935 q 169 951 113 944 q 283 963 225 958 q 388 967 340 967 q 577 951 501 967 q 698 903 653 935 q 763 824 743 871 q 782 715 782 776 q 741 560 782 611 q 615 490 700 510 l 615 485 q 711 447 672 471 q 769 378 750 424 q 789 256 789 333 q 772 144 789 193 q 710 60 754 94 q 588 7 667 25 q 386 -11 510 -11 z "},"4":{"ha":911,"x_min":38,"x_max":881,"o":"m 463 0 l 463 174 l 38 174 l 38 381 l 322 956 l 668 956 l 367 406 l 478 406 l 576 578 l 779 578 l 779 406 l 881 406 l 881 174 l 779 174 l 779 0 l 463 0 z "},"5":{"ha":874,"x_min":86,"x_max":814,"o":"m 410 -11 q 307 -7 364 -11 q 193 3 250 -3 q 86 19 136 10 l 86 236 q 183 228 131 232 q 283 223 235 225 q 368 221 332 221 q 432 223 408 221 q 468 233 456 225 q 485 258 481 240 q 489 306 489 275 q 485 351 489 333 q 469 376 481 368 q 433 388 457 385 q 371 390 410 390 q 282 388 331 390 q 185 383 233 386 q 97 376 138 381 l 97 956 l 743 956 l 743 719 l 371 719 l 371 608 q 419 613 394 611 q 472 616 444 615 q 528 617 500 617 q 668 597 613 617 q 756 538 724 576 q 801 446 788 500 q 814 322 814 392 q 797 175 814 238 q 735 71 779 113 q 613 9 692 29 q 410 -11 533 -11 z "},"6":{"ha":924,"x_min":58,"x_max":869,"o":"m 479 -11 q 301 1 375 -11 q 176 47 226 13 q 94 151 126 82 q 75 224 83 178 q 63 333 67 269 q 58 479 58 397 q 62 599 58 544 q 74 700 65 654 q 96 781 82 746 q 171 890 122 849 q 298 949 219 931 q 489 967 376 967 q 583 963 529 967 q 696 951 636 958 q 811 935 756 944 l 811 718 q 702 727 754 724 q 610 733 650 731 q 546 735 569 735 q 458 728 492 735 q 408 703 425 722 q 385 648 392 685 q 379 551 379 611 l 388 551 q 415 576 396 561 q 471 604 433 592 q 568 617 508 617 q 694 605 639 617 q 789 563 750 593 q 849 475 828 532 q 869 328 869 418 q 853 176 869 240 q 793 71 836 113 q 674 9 750 29 q 479 -11 599 -11 m 468 215 q 517 218 497 215 q 547 229 536 221 q 561 255 557 238 q 565 301 565 272 q 561 349 565 331 q 547 376 557 367 q 517 388 536 385 q 468 390 497 390 q 420 386 438 390 q 394 372 403 382 q 384 346 386 361 q 382 307 382 331 q 387 253 382 272 q 401 226 392 235 q 428 217 411 218 q 468 215 444 215 z "},"7":{"ha":803,"x_min":40,"x_max":765,"o":"m 107 0 l 431 719 l 40 719 l 40 956 l 765 956 l 765 740 l 460 0 l 107 0 z "},"8":{"ha":942,"x_min":56,"x_max":886,"o":"m 471 -11 q 263 7 344 -11 q 137 60 182 25 q 74 144 92 94 q 56 256 56 193 q 76 378 56 333 q 135 448 96 424 q 229 485 174 472 l 229 490 q 105 560 146 510 q 64 715 64 611 q 84 824 64 776 q 151 903 104 871 q 276 951 197 935 q 471 967 354 967 q 666 951 588 967 q 791 903 744 935 q 858 824 838 871 q 878 715 878 776 q 836 560 878 611 q 713 490 794 510 l 713 485 q 808 448 769 472 q 866 378 846 424 q 886 256 886 333 q 868 144 886 193 q 805 60 850 94 q 678 7 760 25 q 471 -11 597 -11 m 471 208 q 531 214 511 208 q 558 238 551 219 q 565 296 565 257 q 562 346 565 328 q 548 372 558 364 q 519 383 538 381 q 471 386 500 386 q 423 383 442 386 q 394 372 404 381 q 381 346 385 364 q 376 296 376 328 q 383 238 376 257 q 411 214 390 219 q 471 208 432 208 m 471 578 q 529 583 511 578 q 552 606 547 588 q 557 661 557 624 q 552 718 557 700 q 529 741 547 736 q 471 746 511 746 q 414 741 432 746 q 390 718 396 736 q 385 661 385 700 q 390 606 385 624 q 413 583 394 588 q 471 578 432 578 z "},"9":{"ha":924,"x_min":54,"x_max":865,"o":"m 435 -11 q 337 -7 393 -11 q 222 5 281 -3 q 113 21 164 13 l 113 238 q 222 229 171 233 q 315 223 274 225 q 378 221 356 221 q 465 227 432 221 q 515 252 499 233 q 538 308 532 271 q 544 404 544 344 l 536 404 q 510 379 529 394 q 453 351 490 364 q 356 339 417 339 q 229 351 285 339 q 135 393 174 363 q 75 481 96 424 q 54 628 54 538 q 71 779 54 715 q 131 885 88 843 q 250 947 174 926 q 444 967 326 967 q 641 953 563 967 q 767 900 719 939 q 835 785 814 861 q 859 650 853 725 q 865 476 865 575 q 860 338 865 400 q 844 227 856 275 q 814 144 833 179 q 733 53 783 88 q 610 4 683 19 q 435 -11 538 -11 m 456 565 q 503 569 486 565 q 529 584 521 574 q 540 610 538 594 q 542 649 542 626 q 537 702 542 683 q 522 729 532 721 q 496 739 513 738 q 456 740 479 740 q 407 738 426 740 q 377 726 388 735 q 363 701 367 718 q 358 654 358 683 q 363 607 358 625 q 377 580 367 589 q 407 568 388 571 q 456 565 426 565 z "},"A":{"ha":968,"x_min":-7,"x_max":975,"o":"m -7 0 l 258 956 l 710 956 l 975 0 l 653 0 l 618 143 l 342 143 l 308 0 l -7 0 m 394 365 l 564 365 l 485 694 l 472 694 l 394 365 z "},"Á":{"ha":968,"x_min":-7,"x_max":975,"o":"m -7 0 l 258 956 l 710 956 l 975 0 l 653 0 l 618 143 l 342 143 l 308 0 l -7 0 m 394 365 l 564 365 l 485 694 l 472 694 l 394 365 m 338 1032 l 338 1039 l 457 1238 l 732 1238 l 732 1231 l 543 1032 l 338 1032 z "},"Ă":{"ha":968,"x_min":-7,"x_max":975,"o":"m -7 0 l 258 956 l 710 956 l 975 0 l 653 0 l 618 143 l 342 143 l 308 0 l -7 0 m 394 365 l 564 365 l 485 694 l 472 694 l 394 365 m 483 1026 q 368 1042 413 1026 q 300 1085 324 1057 q 268 1153 276 1114 q 260 1238 260 1192 l 414 1238 q 417 1204 414 1219 q 434 1180 419 1189 q 483 1171 449 1171 q 534 1180 519 1171 q 551 1204 549 1189 q 554 1238 554 1219 l 708 1238 q 699 1153 708 1192 q 667 1085 690 1114 q 599 1042 643 1057 q 483 1026 554 1026 z "},"Ắ":{"ha":968,"x_min":-7,"x_max":975,"o":"m -7 0 l 258 956 l 710 956 l 975 0 l 653 0 l 618 143 l 342 143 l 308 0 l -7 0 m 394 365 l 564 365 l 485 694 l 472 694 l 394 365 m 483 1026 q 368 1042 413 1026 q 300 1085 324 1057 q 268 1153 276 1114 q 260 1238 260 1192 l 414 1238 q 417 1204 414 1219 q 434 1180 419 1189 q 483 1171 449 1171 q 534 1180 519 1171 q 551 1204 549 1189 q 554 1238 554 1219 l 708 1238 q 699 1153 708 1192 q 667 1085 690 1114 q 599 1042 643 1057 q 483 1026 554 1026 m 338 1275 l 338 1282 l 457 1481 l 732 1481 l 732 1474 l 543 1275 l 338 1275 z "},"Ặ":{"ha":968,"x_min":-7,"x_max":975,"o":"m -7 0 l 258 956 l 710 956 l 975 0 l 653 0 l 618 143 l 342 143 l 308 0 l -7 0 m 394 365 l 564 365 l 485 694 l 472 694 l 394 365 m 371 -324 l 371 -118 l 599 -118 l 599 -324 l 371 -324 m 483 1026 q 368 1042 413 1026 q 300 1085 324 1057 q 268 1153 276 1114 q 260 1238 260 1192 l 414 1238 q 417 1204 414 1219 q 434 1180 419 1189 q 483 1171 449 1171 q 534 1180 519 1171 q 551 1204 549 1189 q 554 1238 554 1219 l 708 1238 q 699 1153 708 1192 q 667 1085 690 1114 q 599 1042 643 1057 q 483 1026 554 1026 z "},"Ằ":{"ha":968,"x_min":-7,"x_max":975,"o":"m -7 0 l 258 956 l 710 956 l 975 0 l 653 0 l 618 143 l 342 143 l 308 0 l -7 0 m 394 365 l 564 365 l 485 694 l 472 694 l 394 365 m 483 1026 q 368 1042 413 1026 q 300 1085 324 1057 q 268 1153 276 1114 q 260 1238 260 1192 l 414 1238 q 417 1204 414 1219 q 434 1180 419 1189 q 483 1171 449 1171 q 534 1180 519 1171 q 551 1204 549 1189 q 554 1238 554 1219 l 708 1238 q 699 1153 708 1192 q 667 1085 690 1114 q 599 1042 643 1057 q 483 1026 554 1026 m 397 1275 l 208 1474 l 208 1481 l 483 1481 l 603 1282 l 603 1275 l 397 1275 z "},"Ẳ":{"ha":968,"x_min":-7,"x_max":975,"o":"m -7 0 l 258 956 l 710 956 l 975 0 l 653 0 l 618 143 l 342 143 l 308 0 l -7 0 m 394 365 l 564 365 l 485 694 l 472 694 l 394 365 m 483 1026 q 368 1042 413 1026 q 300 1085 324 1057 q 268 1153 276 1114 q 260 1238 260 1192 l 414 1238 q 417 1204 414 1219 q 434 1180 419 1189 q 483 1171 449 1171 q 534 1180 519 1171 q 551 1204 549 1189 q 554 1238 554 1219 l 708 1238 q 699 1153 708 1192 q 667 1085 690 1114 q 599 1042 643 1057 q 483 1026 554 1026 m 385 1269 l 385 1272 q 390 1324 385 1304 q 411 1356 396 1344 q 456 1375 426 1368 l 476 1381 q 501 1388 493 1385 q 511 1398 508 1392 q 514 1414 514 1404 q 510 1438 514 1431 q 490 1447 506 1444 q 440 1449 474 1449 q 394 1447 422 1449 q 339 1444 367 1446 q 294 1440 311 1443 l 294 1567 q 386 1578 332 1574 q 486 1583 440 1583 q 590 1576 543 1583 q 667 1538 638 1569 q 696 1432 696 1506 q 688 1372 696 1394 q 656 1335 679 1349 q 588 1308 632 1321 l 574 1304 q 549 1295 558 1300 q 538 1284 540 1290 q 535 1269 535 1278 l 385 1269 z "},"Ẵ":{"ha":968,"x_min":-7,"x_max":975,"o":"m -7 0 l 258 956 l 710 956 l 975 0 l 653 0 l 618 143 l 342 143 l 308 0 l -7 0 m 394 365 l 564 365 l 485 694 l 472 694 l 394 365 m 483 1026 q 368 1042 413 1026 q 300 1085 324 1057 q 268 1153 276 1114 q 260 1238 260 1192 l 414 1238 q 417 1204 414 1219 q 434 1180 419 1189 q 483 1171 449 1171 q 534 1180 519 1171 q 551 1204 549 1189 q 554 1238 554 1219 l 708 1238 q 699 1153 708 1192 q 667 1085 690 1114 q 599 1042 643 1057 q 483 1026 554 1026 m 200 1260 q 206 1376 200 1328 q 242 1451 213 1425 q 344 1478 272 1478 q 429 1470 386 1478 q 507 1456 472 1463 q 560 1446 536 1450 q 599 1442 583 1442 q 626 1453 622 1442 q 629 1494 629 1465 l 768 1494 q 762 1378 768 1428 q 726 1303 756 1329 q 624 1276 696 1276 q 540 1285 582 1276 q 461 1299 497 1293 q 408 1308 432 1304 q 369 1313 385 1313 q 343 1300 347 1313 q 339 1260 339 1288 l 200 1260 z "},"Ǎ":{"ha":968,"x_min":-7,"x_max":975,"o":"m -7 0 l 258 956 l 710 956 l 975 0 l 653 0 l 618 143 l 342 143 l 308 0 l -7 0 m 394 365 l 564 365 l 485 694 l 472 694 l 394 365 m 353 1032 l 229 1226 l 229 1238 l 415 1238 l 488 1138 l 554 1238 l 740 1238 l 740 1226 l 615 1032 l 353 1032 z "},"Â":{"ha":968,"x_min":-7,"x_max":975,"o":"m -7 0 l 258 956 l 710 956 l 975 0 l 653 0 l 618 143 l 342 143 l 308 0 l -7 0 m 394 365 l 564 365 l 485 694 l 472 694 l 394 365 m 229 1032 l 229 1043 l 353 1238 l 615 1238 l 740 1043 l 740 1032 l 554 1032 l 483 1132 l 415 1032 l 229 1032 z "},"Ấ":{"ha":968,"x_min":-7,"x_max":975,"o":"m -7 0 l 258 956 l 710 956 l 975 0 l 653 0 l 618 143 l 342 143 l 308 0 l -7 0 m 394 365 l 564 365 l 485 694 l 472 694 l 394 365 m 229 1032 l 229 1043 l 353 1238 l 615 1238 l 740 1043 l 740 1032 l 554 1032 l 483 1132 l 415 1032 l 229 1032 m 338 1279 l 338 1286 l 457 1485 l 732 1485 l 732 1478 l 543 1279 l 338 1279 z "},"Ậ":{"ha":968,"x_min":-7,"x_max":975,"o":"m -7 0 l 258 956 l 710 956 l 975 0 l 653 0 l 618 143 l 342 143 l 308 0 l -7 0 m 394 365 l 564 365 l 485 694 l 472 694 l 394 365 m 371 -324 l 371 -118 l 599 -118 l 599 -324 l 371 -324 m 229 1032 l 229 1043 l 353 1238 l 615 1238 l 740 1043 l 740 1032 l 554 1032 l 483 1132 l 415 1032 l 229 1032 z "},"Ầ":{"ha":968,"x_min":-7,"x_max":975,"o":"m -7 0 l 258 956 l 710 956 l 975 0 l 653 0 l 618 143 l 342 143 l 308 0 l -7 0 m 394 365 l 564 365 l 485 694 l 472 694 l 394 365 m 229 1032 l 229 1043 l 353 1238 l 615 1238 l 740 1043 l 740 1032 l 554 1032 l 483 1132 l 415 1032 l 229 1032 m 375 1279 l 186 1478 l 186 1485 l 461 1485 l 581 1286 l 581 1279 l 375 1279 z "},"Ẩ":{"ha":968,"x_min":-7,"x_max":975,"o":"m -7 0 l 258 956 l 710 956 l 975 0 l 653 0 l 618 143 l 342 143 l 308 0 l -7 0 m 394 365 l 564 365 l 485 694 l 472 694 l 394 365 m 229 1032 l 229 1043 l 353 1239 l 615 1239 l 740 1043 l 740 1032 l 554 1032 l 483 1133 l 415 1032 l 229 1032 m 385 1275 l 385 1278 q 390 1330 385 1310 q 411 1362 396 1350 q 456 1381 426 1374 l 476 1386 q 501 1394 493 1390 q 511 1403 508 1397 q 514 1419 514 1410 q 510 1443 514 1436 q 490 1452 506 1450 q 440 1454 474 1454 q 394 1453 422 1454 q 339 1450 367 1451 q 294 1446 311 1449 l 294 1572 q 386 1584 332 1579 q 486 1589 440 1589 q 590 1582 543 1589 q 667 1543 638 1575 q 696 1438 696 1511 q 688 1377 696 1400 q 656 1340 679 1354 q 588 1314 632 1326 l 574 1310 q 549 1301 558 1306 q 538 1290 540 1296 q 535 1275 535 1283 l 385 1275 z "},"Ẫ":{"ha":968,"x_min":-7,"x_max":975,"o":"m -7 0 l 258 956 l 710 956 l 975 0 l 653 0 l 618 143 l 342 143 l 308 0 l -7 0 m 394 365 l 564 365 l 485 694 l 472 694 l 394 365 m 229 1032 l 229 1043 l 353 1238 l 615 1238 l 740 1043 l 740 1032 l 554 1032 l 483 1132 l 415 1032 l 229 1032 m 200 1264 q 206 1381 200 1332 q 242 1456 213 1429 q 344 1482 272 1482 q 429 1474 386 1482 q 507 1460 472 1467 q 560 1450 536 1454 q 599 1446 583 1446 q 626 1458 622 1446 q 629 1499 629 1469 l 768 1499 q 762 1383 768 1432 q 726 1307 756 1333 q 624 1281 696 1281 q 540 1289 582 1281 q 461 1303 497 1297 q 408 1313 432 1308 q 369 1317 385 1317 q 343 1304 347 1317 q 339 1264 339 1292 l 200 1264 z "},"Ȁ":{"ha":968,"x_min":-7,"x_max":975,"o":"m -7 0 l 258 956 l 710 956 l 975 0 l 653 0 l 618 143 l 342 143 l 308 0 l -7 0 m 394 365 l 564 365 l 485 694 l 472 694 l 394 365 m 714 1032 l 549 1032 l 399 1200 l 399 1206 l 621 1206 l 714 1038 l 714 1032 m 451 1032 l 283 1032 l 135 1200 l 135 1206 l 356 1206 l 451 1038 l 451 1032 z "},"Ä":{"ha":968,"x_min":-7,"x_max":975,"o":"m -7 0 l 258 956 l 710 956 l 975 0 l 653 0 l 618 143 l 342 143 l 308 0 l -7 0 m 394 365 l 564 365 l 485 694 l 472 694 l 394 365 m 214 1047 l 214 1219 l 443 1219 l 443 1047 l 214 1047 m 525 1047 l 525 1219 l 754 1219 l 754 1047 l 525 1047 z "},"Ạ":{"ha":968,"x_min":-7,"x_max":975,"o":"m -7 0 l 258 956 l 710 956 l 975 0 l 653 0 l 618 143 l 342 143 l 308 0 l -7 0 m 394 365 l 564 365 l 485 694 l 472 694 l 394 365 m 371 -324 l 371 -118 l 599 -118 l 599 -324 l 371 -324 z "},"À":{"ha":968,"x_min":-7,"x_max":975,"o":"m -7 0 l 258 956 l 710 956 l 975 0 l 653 0 l 618 143 l 342 143 l 308 0 l -7 0 m 394 365 l 564 365 l 485 694 l 472 694 l 394 365 m 375 1032 l 186 1231 l 186 1238 l 461 1238 l 581 1039 l 581 1032 l 375 1032 z "},"Ả":{"ha":968,"x_min":-7,"x_max":975,"o":"m -7 0 l 258 956 l 710 956 l 975 0 l 653 0 l 618 143 l 342 143 l 308 0 l -7 0 m 394 365 l 564 365 l 485 694 l 472 694 l 394 365 m 385 1026 l 385 1029 q 390 1081 385 1061 q 411 1113 396 1101 q 456 1132 426 1125 l 476 1138 q 501 1145 493 1142 q 511 1155 508 1149 q 514 1171 514 1161 q 510 1194 514 1188 q 490 1203 506 1201 q 440 1206 474 1206 q 394 1204 422 1206 q 339 1201 367 1203 q 294 1197 311 1200 l 294 1324 q 386 1335 332 1331 q 486 1340 440 1340 q 590 1333 543 1340 q 667 1294 638 1326 q 696 1189 696 1263 q 688 1128 696 1151 q 656 1092 679 1106 q 588 1065 632 1078 l 574 1061 q 549 1052 558 1057 q 538 1041 540 1047 q 535 1026 535 1035 l 385 1026 z "},"Ȃ":{"ha":968,"x_min":-7,"x_max":975,"o":"m -7 0 l 258 956 l 710 956 l 975 0 l 653 0 l 618 143 l 342 143 l 308 0 l -7 0 m 394 365 l 564 365 l 485 694 l 472 694 l 394 365 m 485 1243 q 600 1228 556 1243 q 668 1184 644 1213 q 700 1117 692 1156 q 708 1032 708 1078 l 554 1032 q 551 1065 554 1050 q 534 1090 549 1081 q 485 1099 519 1099 q 435 1090 450 1099 q 417 1065 419 1081 q 414 1032 414 1050 l 260 1032 q 269 1117 260 1078 q 301 1184 278 1156 q 369 1228 325 1213 q 485 1243 414 1243 z "},"Ā":{"ha":968,"x_min":-7,"x_max":975,"o":"m -7 0 l 258 956 l 710 956 l 975 0 l 653 0 l 618 143 l 342 143 l 308 0 l -7 0 m 394 365 l 564 365 l 485 694 l 472 694 l 394 365 m 236 1047 l 236 1203 l 733 1203 l 733 1047 l 236 1047 z "},"Ą":{"ha":968,"x_min":-7,"x_max":976,"o":"m -7 0 l 258 956 l 710 956 l 975 0 l 653 0 l 618 143 l 342 143 l 308 0 l -7 0 m 394 365 l 564 365 l 485 694 l 472 694 l 394 365 m 856 -278 q 733 -260 778 -278 q 672 -215 689 -243 q 654 -154 654 -186 q 683 -67 654 -111 q 758 14 713 -24 l 975 0 q 937 -25 957 -8 q 902 -60 917 -42 q 888 -97 888 -79 q 900 -130 888 -117 q 953 -143 913 -143 q 961 -143 956 -143 q 976 -142 967 -143 l 976 -272 q 918 -276 953 -274 q 856 -278 883 -278 z "},"Å":{"ha":949,"x_min":-7,"x_max":975,"o":"m -7 0 l 258 956 l 710 956 l 975 0 l 653 0 l 618 143 l 342 143 l 308 0 l -7 0 m 394 365 l 564 365 l 485 694 l 472 694 l 394 365 m 533 864 q 418 872 461 864 q 353 901 375 881 q 325 953 332 921 q 318 1033 318 986 q 325 1115 318 1082 q 353 1168 332 1149 q 418 1197 375 1188 q 533 1206 461 1206 q 649 1197 606 1206 q 714 1168 692 1188 q 743 1115 736 1149 q 750 1033 750 1082 q 743 953 750 986 q 714 901 736 921 q 649 872 692 881 q 533 864 606 864 m 533 971 q 584 976 569 971 q 601 994 599 981 q 604 1033 604 1008 q 601 1074 604 1060 q 584 1093 599 1088 q 533 1099 569 1099 q 484 1093 499 1099 q 467 1074 469 1088 q 464 1033 464 1060 q 467 994 464 1008 q 484 976 469 981 q 533 971 499 971 z "},"Ǻ":{"ha":949,"x_min":-7,"x_max":975,"o":"m -7 0 l 258 956 l 710 956 l 975 0 l 653 0 l 618 143 l 342 143 l 308 0 l -7 0 m 394 365 l 564 365 l 485 694 l 472 694 l 394 365 m 533 861 q 418 869 461 861 q 353 898 375 878 q 325 951 332 918 q 318 1031 318 983 q 325 1113 318 1079 q 353 1165 332 1146 q 418 1194 375 1185 q 533 1203 461 1203 q 649 1194 606 1203 q 714 1165 692 1185 q 743 1113 736 1146 q 750 1031 750 1079 q 743 951 750 983 q 714 898 736 918 q 649 869 692 878 q 533 861 606 861 m 533 968 q 584 973 569 968 q 601 992 599 978 q 604 1031 604 1006 q 601 1071 604 1057 q 584 1090 599 1085 q 533 1096 569 1096 q 484 1090 499 1096 q 467 1071 469 1085 q 464 1031 464 1057 q 467 992 464 1006 q 484 973 469 978 q 533 968 499 968 m 426 1200 l 426 1207 l 546 1406 l 821 1406 l 821 1399 l 632 1200 l 426 1200 z "},"Ã":{"ha":968,"x_min":-7,"x_max":975,"o":"m -7 0 l 258 956 l 710 956 l 975 0 l 653 0 l 618 143 l 342 143 l 308 0 l -7 0 m 394 365 l 564 365 l 485 694 l 472 694 l 394 365 m 200 1017 q 206 1133 200 1085 q 242 1208 213 1182 q 344 1235 272 1235 q 429 1227 386 1235 q 507 1213 472 1219 q 560 1203 536 1207 q 599 1199 583 1199 q 626 1210 622 1199 q 629 1251 629 1222 l 768 1251 q 762 1135 768 1185 q 726 1060 756 1086 q 624 1033 696 1033 q 540 1042 582 1033 q 461 1056 497 1050 q 408 1065 432 1061 q 369 1069 385 1069 q 343 1057 347 1069 q 339 1017 339 1044 l 200 1017 z "},"Æ":{"ha":1361,"x_min":-35,"x_max":1294,"o":"m -35 0 l 394 956 l 1294 956 l 1294 724 l 846 724 l 858 596 l 1229 596 l 1229 369 l 883 369 l 897 232 l 1294 232 l 1294 0 l 632 0 l 618 147 l 336 147 l 281 0 l -35 0 m 421 369 l 599 369 l 568 724 l 556 724 l 421 369 z "},"Ǽ":{"ha":1361,"x_min":-35,"x_max":1294,"o":"m -35 0 l 394 956 l 1294 956 l 1294 724 l 846 724 l 858 596 l 1229 596 l 1229 369 l 883 369 l 897 232 l 1294 232 l 1294 0 l 632 0 l 618 147 l 336 147 l 281 0 l -35 0 m 421 369 l 599 369 l 568 724 l 556 724 l 421 369 m 533 1032 l 533 1039 l 653 1238 l 928 1238 l 928 1231 l 739 1032 l 533 1032 z "},"B":{"ha":917,"x_min":71,"x_max":865,"o":"m 71 0 l 71 956 l 582 956 q 733 931 669 956 q 829 853 796 906 q 863 715 863 800 q 844 601 863 646 q 787 530 825 556 q 692 490 749 504 l 692 485 q 785 449 746 472 q 844 381 824 426 q 865 256 865 336 q 849 144 865 192 q 797 64 832 96 q 708 16 763 32 q 579 0 654 0 l 71 0 m 390 224 l 457 224 q 513 228 494 224 q 535 251 531 233 q 540 304 540 268 q 535 359 540 342 q 513 382 531 376 q 457 388 494 388 l 390 388 l 390 224 m 390 578 l 457 578 q 513 583 494 578 q 535 604 531 588 q 540 654 540 621 q 535 706 540 690 q 513 727 531 722 q 457 732 494 732 l 390 732 l 390 578 z "},"C":{"ha":788,"x_min":58,"x_max":739,"o":"m 475 -11 q 289 4 364 -11 q 167 53 214 19 q 98 144 121 88 q 67 283 75 200 q 58 478 58 365 q 67 673 58 590 q 98 812 75 756 q 167 902 121 868 q 289 951 214 936 q 475 967 364 967 q 567 963 519 967 q 658 954 614 960 q 733 940 701 949 l 733 724 q 642 731 678 728 q 586 734 607 733 q 551 735 565 735 q 470 731 501 735 q 421 712 439 726 q 395 669 403 697 q 386 595 388 642 q 385 478 385 549 q 386 360 385 407 q 395 285 388 314 q 421 243 403 257 q 470 225 439 229 q 551 221 501 221 q 646 224 593 221 q 739 232 699 226 l 739 11 q 663 0 708 6 q 569 -8 618 -6 q 475 -11 521 -11 z "},"Ć":{"ha":788,"x_min":58,"x_max":739,"o":"m 475 -11 q 289 4 364 -11 q 167 53 214 19 q 98 144 121 88 q 67 283 75 200 q 58 478 58 365 q 67 673 58 590 q 98 812 75 756 q 167 902 121 868 q 289 951 214 936 q 475 967 364 967 q 567 963 519 967 q 658 954 614 960 q 733 940 701 949 l 733 724 q 642 731 678 728 q 586 734 607 733 q 551 735 565 735 q 470 731 501 735 q 421 712 439 726 q 395 669 403 697 q 386 595 388 642 q 385 478 385 549 q 386 360 385 407 q 395 285 388 314 q 421 243 403 257 q 470 225 439 229 q 551 221 501 221 q 646 224 593 221 q 739 232 699 226 l 739 11 q 663 0 708 6 q 569 -8 618 -6 q 475 -11 521 -11 m 300 1032 l 300 1039 l 419 1238 l 694 1238 l 694 1231 l 506 1032 l 300 1032 z "},"Č":{"ha":788,"x_min":58,"x_max":739,"o":"m 475 -11 q 289 4 364 -11 q 167 53 214 19 q 98 144 121 88 q 67 283 75 200 q 58 478 58 365 q 67 673 58 590 q 98 812 75 756 q 167 902 121 868 q 289 951 214 936 q 475 967 364 967 q 567 963 519 967 q 658 954 614 960 q 733 940 701 949 l 733 724 q 642 731 678 728 q 586 734 607 733 q 551 735 565 735 q 470 731 501 735 q 421 712 439 726 q 395 669 403 697 q 386 595 388 642 q 385 478 385 549 q 386 360 385 407 q 395 285 388 314 q 421 243 403 257 q 470 225 439 229 q 551 221 501 221 q 646 224 593 221 q 739 232 699 226 l 739 11 q 663 0 708 6 q 569 -8 618 -6 q 475 -11 521 -11 m 315 1032 l 192 1226 l 192 1238 l 378 1238 l 450 1138 l 517 1238 l 703 1238 l 703 1226 l 578 1032 l 315 1032 z "},"Ç":{"ha":788,"x_min":58,"x_max":739,"o":"m 475 -11 q 289 4 364 -11 q 167 53 214 19 q 98 144 121 88 q 67 283 75 200 q 58 478 58 365 q 67 673 58 590 q 98 812 75 756 q 167 902 121 868 q 289 951 214 936 q 475 967 364 967 q 567 963 519 967 q 658 954 614 960 q 733 940 701 949 l 733 724 q 642 731 678 728 q 586 734 607 733 q 551 735 565 735 q 470 731 501 735 q 421 712 439 726 q 395 669 403 697 q 386 595 388 642 q 385 478 385 549 q 386 360 385 407 q 395 285 388 314 q 421 243 403 257 q 470 225 439 229 q 551 221 501 221 q 646 224 593 221 q 739 232 699 226 l 739 11 q 663 0 708 6 q 569 -8 618 -6 q 475 -11 521 -11 m 244 -264 l 244 -257 l 365 25 l 551 25 l 551 18 l 504 -264 l 244 -264 z "},"Ĉ":{"ha":788,"x_min":58,"x_max":739,"o":"m 475 -11 q 289 4 364 -11 q 167 53 214 19 q 98 144 121 88 q 67 283 75 200 q 58 478 58 365 q 67 673 58 590 q 98 812 75 756 q 167 902 121 868 q 289 951 214 936 q 475 967 364 967 q 567 963 519 967 q 658 954 614 960 q 733 940 701 949 l 733 724 q 642 731 678 728 q 586 734 607 733 q 551 735 565 735 q 470 731 501 735 q 421 712 439 726 q 395 669 403 697 q 386 595 388 642 q 385 478 385 549 q 386 360 385 407 q 395 285 388 314 q 421 243 403 257 q 470 225 439 229 q 551 221 501 221 q 646 224 593 221 q 739 232 699 226 l 739 11 q 663 0 708 6 q 569 -8 618 -6 q 475 -11 521 -11 m 192 1032 l 192 1043 l 315 1238 l 578 1238 l 703 1043 l 703 1032 l 517 1032 l 446 1132 l 378 1032 l 192 1032 z "},"Ċ":{"ha":788,"x_min":58,"x_max":739,"o":"m 475 -11 q 289 4 364 -11 q 167 53 214 19 q 98 144 121 88 q 67 283 75 200 q 58 478 58 365 q 67 673 58 590 q 98 812 75 756 q 167 902 121 868 q 289 951 214 936 q 475 967 364 967 q 567 963 519 967 q 658 954 614 960 q 733 940 701 949 l 733 724 q 642 731 678 728 q 586 734 607 733 q 551 735 565 735 q 470 731 501 735 q 421 712 439 726 q 395 669 403 697 q 386 595 388 642 q 385 478 385 549 q 386 360 385 407 q 395 285 388 314 q 421 243 403 257 q 470 225 439 229 q 551 221 501 221 q 646 224 593 221 q 739 232 699 226 l 739 11 q 663 0 708 6 q 569 -8 618 -6 q 475 -11 521 -11 m 332 1047 l 332 1219 l 561 1219 l 561 1047 l 332 1047 z "},"D":{"ha":931,"x_min":71,"x_max":872,"o":"m 71 0 l 71 956 l 425 956 q 642 942 558 956 q 774 896 726 928 q 842 809 821 864 q 867 673 863 754 q 872 478 872 592 q 867 283 872 364 q 842 147 863 201 q 774 60 821 92 q 642 14 726 28 q 425 0 558 0 l 71 0 m 396 232 l 429 232 q 486 235 464 232 q 521 251 508 239 q 538 289 533 263 q 544 360 543 315 q 546 476 546 406 q 544 594 546 549 q 538 667 543 640 q 521 706 533 693 q 486 721 508 718 q 429 724 464 724 l 396 724 l 396 232 z "},"Ǳ":{"ha":1792,"x_min":71,"x_max":1739,"o":"m 71 0 l 71 956 l 425 956 q 642 942 558 956 q 774 896 726 928 q 842 809 821 864 q 867 673 863 754 q 872 478 872 592 q 867 283 872 364 q 842 147 863 201 q 774 60 821 92 q 642 14 726 28 q 425 0 558 0 l 71 0 m 396 232 l 429 232 q 486 235 464 232 q 521 251 508 239 q 538 289 533 263 q 544 360 543 315 q 546 476 546 406 q 544 594 546 549 q 538 667 543 640 q 521 706 533 693 q 486 721 508 718 q 429 724 464 724 l 396 724 l 396 232 m 983 0 l 983 224 l 1344 724 l 999 724 l 999 956 l 1739 956 l 1739 739 l 1372 232 l 1738 232 l 1738 0 l 983 0 z "},"Ǆ":{"ha":1792,"x_min":71,"x_max":1739,"o":"m 71 0 l 71 956 l 425 956 q 642 942 558 956 q 774 896 726 928 q 842 809 821 864 q 867 673 863 754 q 872 478 872 592 q 867 283 872 364 q 842 147 863 201 q 774 60 821 92 q 642 14 726 28 q 425 0 558 0 l 71 0 m 396 232 l 429 232 q 486 235 464 232 q 521 251 508 239 q 538 289 533 263 q 544 360 543 315 q 546 476 546 406 q 544 594 546 549 q 538 667 543 640 q 521 706 533 693 q 486 721 508 718 q 429 724 464 724 l 396 724 l 396 232 m 983 0 l 983 224 l 1344 724 l 999 724 l 999 956 l 1739 956 l 1739 739 l 1372 232 l 1738 232 l 1738 0 l 983 0 m 1229 1032 l 1106 1226 l 1106 1238 l 1292 1238 l 1364 1138 l 1431 1238 l 1617 1238 l 1617 1226 l 1492 1032 l 1229 1032 z "},"Ð":{"ha":931,"x_min":-12,"x_max":872,"o":"m 71 0 l 71 389 l -12 389 l -12 579 l 71 579 l 71 956 l 425 956 q 642 942 558 956 q 774 896 726 928 q 842 809 821 864 q 867 673 863 754 q 872 478 872 592 q 867 283 872 364 q 842 147 863 201 q 774 60 821 92 q 642 14 726 28 q 425 0 558 0 l 71 0 m 396 232 l 429 232 q 486 235 464 232 q 521 251 508 239 q 538 289 533 263 q 544 360 543 315 q 546 476 546 406 q 544 594 546 549 q 538 667 543 640 q 521 706 533 693 q 486 721 508 718 q 429 724 464 724 l 396 724 l 396 579 l 482 579 l 482 389 l 396 389 l 396 232 z "},"Ď":{"ha":931,"x_min":71,"x_max":872,"o":"m 71 0 l 71 956 l 425 956 q 642 942 558 956 q 774 896 726 928 q 842 809 821 864 q 867 673 863 754 q 872 478 872 592 q 867 283 872 364 q 842 147 863 201 q 774 60 821 92 q 642 14 726 28 q 425 0 558 0 l 71 0 m 396 232 l 429 232 q 486 235 464 232 q 521 251 508 239 q 538 289 533 263 q 544 360 543 315 q 546 476 546 406 q 544 594 546 549 q 538 667 543 640 q 521 706 533 693 q 486 721 508 718 q 429 724 464 724 l 396 724 l 396 232 m 333 1032 l 210 1226 l 210 1238 l 396 1238 l 468 1138 l 535 1238 l 721 1238 l 721 1226 l 596 1032 l 333 1032 z "},"Đ":{"ha":931,"x_min":-12,"x_max":872,"o":"m 71 0 l 71 389 l -12 389 l -12 579 l 71 579 l 71 956 l 425 956 q 642 942 558 956 q 774 896 726 928 q 842 809 821 864 q 867 673 863 754 q 872 478 872 592 q 867 283 872 364 q 842 147 863 201 q 774 60 821 92 q 642 14 726 28 q 425 0 558 0 l 71 0 m 396 232 l 429 232 q 486 235 464 232 q 521 251 508 239 q 538 289 533 263 q 544 360 543 315 q 546 476 546 406 q 544 594 546 549 q 538 667 543 640 q 521 706 533 693 q 486 721 508 718 q 429 724 464 724 l 396 724 l 396 579 l 482 579 l 482 389 l 396 389 l 396 232 z "},"Ḍ":{"ha":931,"x_min":71,"x_max":872,"o":"m 71 0 l 71 956 l 425 956 q 642 942 558 956 q 774 896 726 928 q 842 809 821 864 q 867 673 863 754 q 872 478 872 592 q 867 283 872 364 q 842 147 863 201 q 774 60 821 92 q 642 14 726 28 q 425 0 558 0 l 71 0 m 396 232 l 429 232 q 486 235 464 232 q 521 251 508 239 q 538 289 533 263 q 544 360 543 315 q 546 476 546 406 q 544 594 546 549 q 538 667 543 640 q 521 706 533 693 q 486 721 508 718 q 429 724 464 724 l 396 724 l 396 232 m 351 -324 l 351 -118 l 579 -118 l 579 -324 l 351 -324 z "},"ǲ":{"ha":1676,"x_min":71,"x_max":1628,"o":"m 71 0 l 71 956 l 425 956 q 642 942 558 956 q 774 896 726 928 q 842 809 821 864 q 867 673 863 754 q 872 478 872 592 q 867 283 872 364 q 842 147 863 201 q 774 60 821 92 q 642 14 726 28 q 425 0 558 0 l 71 0 m 396 232 l 429 232 q 486 235 464 232 q 521 251 508 239 q 538 289 533 263 q 544 360 543 315 q 546 476 546 406 q 544 594 546 549 q 538 667 543 640 q 521 706 533 693 q 486 721 508 718 q 429 724 464 724 l 396 724 l 396 232 m 979 0 l 979 197 l 1254 500 l 996 500 l 996 708 l 1625 708 l 1625 511 l 1350 208 l 1628 208 l 1628 0 l 979 0 z "},"ǅ":{"ha":1676,"x_min":71,"x_max":1628,"o":"m 71 0 l 71 956 l 425 956 q 642 942 558 956 q 774 896 726 928 q 842 809 821 864 q 867 673 863 754 q 872 478 872 592 q 867 283 872 364 q 842 147 863 201 q 774 60 821 92 q 642 14 726 28 q 425 0 558 0 l 71 0 m 396 232 l 429 232 q 486 235 464 232 q 521 251 508 239 q 538 289 533 263 q 544 360 543 315 q 546 476 546 406 q 544 594 546 549 q 538 667 543 640 q 521 706 533 693 q 486 721 508 718 q 429 724 464 724 l 396 724 l 396 232 m 979 0 l 979 197 l 1254 500 l 996 500 l 996 708 l 1625 708 l 1625 511 l 1350 208 l 1628 208 l 1628 0 l 979 0 m 1179 785 l 1056 979 l 1056 990 l 1242 990 l 1314 890 l 1381 990 l 1567 990 l 1567 979 l 1442 785 l 1179 785 z "},"E":{"ha":838,"x_min":71,"x_max":771,"o":"m 71 0 l 71 956 l 771 956 l 771 724 l 394 724 l 394 596 l 706 596 l 706 369 l 394 369 l 394 232 l 771 232 l 771 0 l 71 0 z "},"É":{"ha":838,"x_min":71,"x_max":771,"o":"m 71 0 l 71 956 l 771 956 l 771 724 l 394 724 l 394 596 l 706 596 l 706 369 l 394 369 l 394 232 l 771 232 l 771 0 l 71 0 m 281 1032 l 281 1039 l 400 1238 l 675 1238 l 675 1231 l 486 1032 l 281 1032 z "},"Ĕ":{"ha":838,"x_min":71,"x_max":771,"o":"m 71 0 l 71 956 l 771 956 l 771 724 l 394 724 l 394 596 l 706 596 l 706 369 l 394 369 l 394 232 l 771 232 l 771 0 l 71 0 m 426 1026 q 311 1042 356 1026 q 243 1085 267 1057 q 211 1153 219 1114 q 203 1238 203 1192 l 357 1238 q 360 1204 357 1219 q 377 1180 363 1189 q 426 1171 392 1171 q 477 1180 463 1171 q 494 1204 492 1189 q 497 1238 497 1219 l 651 1238 q 642 1153 651 1192 q 610 1085 633 1114 q 542 1042 586 1057 q 426 1026 497 1026 z "},"Ě":{"ha":838,"x_min":71,"x_max":771,"o":"m 71 0 l 71 956 l 771 956 l 771 724 l 394 724 l 394 596 l 706 596 l 706 369 l 394 369 l 394 232 l 771 232 l 771 0 l 71 0 m 296 1032 l 172 1226 l 172 1238 l 358 1238 l 431 1138 l 497 1238 l 683 1238 l 683 1226 l 558 1032 l 296 1032 z "},"Ê":{"ha":838,"x_min":71,"x_max":771,"o":"m 71 0 l 71 956 l 771 956 l 771 724 l 394 724 l 394 596 l 706 596 l 706 369 l 394 369 l 394 232 l 771 232 l 771 0 l 71 0 m 172 1032 l 172 1043 l 296 1238 l 558 1238 l 683 1043 l 683 1032 l 497 1032 l 426 1132 l 358 1032 l 172 1032 z "},"Ế":{"ha":838,"x_min":71,"x_max":771,"o":"m 71 0 l 71 956 l 771 956 l 771 724 l 394 724 l 394 596 l 706 596 l 706 369 l 394 369 l 394 232 l 771 232 l 771 0 l 71 0 m 172 1032 l 172 1043 l 296 1238 l 558 1238 l 683 1043 l 683 1032 l 497 1032 l 426 1132 l 358 1032 l 172 1032 m 281 1279 l 281 1286 l 400 1485 l 675 1485 l 675 1478 l 486 1279 l 281 1279 z "},"Ệ":{"ha":838,"x_min":71,"x_max":771,"o":"m 71 0 l 71 956 l 771 956 l 771 724 l 394 724 l 394 596 l 706 596 l 706 369 l 394 369 l 394 232 l 771 232 l 771 0 l 71 0 m 314 -324 l 314 -118 l 542 -118 l 542 -324 l 314 -324 m 172 1032 l 172 1043 l 296 1238 l 558 1238 l 683 1043 l 683 1032 l 497 1032 l 426 1132 l 358 1032 l 172 1032 z "},"Ề":{"ha":838,"x_min":71,"x_max":771,"o":"m 71 0 l 71 956 l 771 956 l 771 724 l 394 724 l 394 596 l 706 596 l 706 369 l 394 369 l 394 232 l 771 232 l 771 0 l 71 0 m 172 1032 l 172 1043 l 296 1238 l 558 1238 l 683 1043 l 683 1032 l 497 1032 l 426 1132 l 358 1032 l 172 1032 m 318 1279 l 129 1478 l 129 1485 l 404 1485 l 524 1286 l 524 1279 l 318 1279 z "},"Ể":{"ha":838,"x_min":71,"x_max":771,"o":"m 71 0 l 71 956 l 771 956 l 771 724 l 394 724 l 394 596 l 706 596 l 706 369 l 394 369 l 394 232 l 771 232 l 771 0 l 71 0 m 172 1032 l 172 1043 l 296 1239 l 558 1239 l 683 1043 l 683 1032 l 497 1032 l 426 1133 l 358 1032 l 172 1032 m 328 1275 l 328 1278 q 333 1330 328 1310 q 354 1362 339 1350 q 399 1381 369 1374 l 419 1386 q 444 1394 436 1390 q 454 1403 451 1397 q 457 1419 457 1410 q 453 1443 457 1436 q 433 1452 449 1450 q 383 1454 417 1454 q 338 1453 365 1454 q 282 1450 310 1451 q 238 1446 254 1449 l 238 1572 q 329 1584 275 1579 q 429 1589 383 1589 q 533 1582 486 1589 q 610 1543 581 1575 q 639 1438 639 1511 q 631 1377 639 1400 q 599 1340 622 1354 q 531 1314 575 1326 l 517 1310 q 492 1301 501 1306 q 481 1290 483 1296 q 478 1275 478 1283 l 328 1275 z "},"Ễ":{"ha":838,"x_min":71,"x_max":771,"o":"m 71 0 l 71 956 l 771 956 l 771 724 l 394 724 l 394 596 l 706 596 l 706 369 l 394 369 l 394 232 l 771 232 l 771 0 l 71 0 m 172 1032 l 172 1043 l 296 1238 l 558 1238 l 683 1043 l 683 1032 l 497 1032 l 426 1132 l 358 1032 l 172 1032 m 143 1264 q 149 1381 143 1332 q 185 1456 156 1429 q 288 1482 215 1482 q 372 1474 329 1482 q 450 1460 415 1467 q 503 1450 479 1454 q 542 1446 526 1446 q 569 1458 565 1446 q 572 1499 572 1469 l 711 1499 q 705 1383 711 1432 q 669 1307 699 1333 q 567 1281 639 1281 q 483 1289 525 1281 q 404 1303 440 1297 q 351 1313 375 1308 q 313 1317 328 1317 q 286 1304 290 1317 q 282 1264 282 1292 l 143 1264 z "},"Ȅ":{"ha":838,"x_min":71,"x_max":771,"o":"m 71 0 l 71 956 l 771 956 l 771 724 l 394 724 l 394 596 l 706 596 l 706 369 l 394 369 l 394 232 l 771 232 l 771 0 l 71 0 m 657 1032 l 492 1032 l 342 1200 l 342 1206 l 564 1206 l 657 1038 l 657 1032 m 394 1032 l 226 1032 l 78 1200 l 78 1206 l 299 1206 l 394 1038 l 394 1032 z "},"Ë":{"ha":838,"x_min":71,"x_max":771,"o":"m 71 0 l 71 956 l 771 956 l 771 724 l 394 724 l 394 596 l 706 596 l 706 369 l 394 369 l 394 232 l 771 232 l 771 0 l 71 0 m 157 1047 l 157 1219 l 386 1219 l 386 1047 l 157 1047 m 468 1047 l 468 1219 l 697 1219 l 697 1047 l 468 1047 z "},"Ė":{"ha":838,"x_min":71,"x_max":771,"o":"m 71 0 l 71 956 l 771 956 l 771 724 l 394 724 l 394 596 l 706 596 l 706 369 l 394 369 l 394 232 l 771 232 l 771 0 l 71 0 m 313 1047 l 313 1219 l 542 1219 l 542 1047 l 313 1047 z "},"Ẹ":{"ha":838,"x_min":71,"x_max":771,"o":"m 71 0 l 71 956 l 771 956 l 771 724 l 394 724 l 394 596 l 706 596 l 706 369 l 394 369 l 394 232 l 771 232 l 771 0 l 71 0 m 314 -324 l 314 -118 l 542 -118 l 542 -324 l 314 -324 z "},"È":{"ha":838,"x_min":71,"x_max":771,"o":"m 71 0 l 71 956 l 771 956 l 771 724 l 394 724 l 394 596 l 706 596 l 706 369 l 394 369 l 394 232 l 771 232 l 771 0 l 71 0 m 318 1032 l 129 1231 l 129 1238 l 404 1238 l 524 1039 l 524 1032 l 318 1032 z "},"Ẻ":{"ha":838,"x_min":71,"x_max":771,"o":"m 71 0 l 71 956 l 771 956 l 771 724 l 394 724 l 394 596 l 706 596 l 706 369 l 394 369 l 394 232 l 771 232 l 771 0 l 71 0 m 328 1026 l 328 1029 q 333 1081 328 1061 q 354 1113 339 1101 q 399 1132 369 1125 l 419 1138 q 444 1145 436 1142 q 454 1155 451 1149 q 457 1171 457 1161 q 453 1194 457 1188 q 433 1203 449 1201 q 383 1206 417 1206 q 338 1204 365 1206 q 282 1201 310 1203 q 238 1197 254 1200 l 238 1324 q 329 1335 275 1331 q 429 1340 383 1340 q 533 1333 486 1340 q 610 1294 581 1326 q 639 1189 639 1263 q 631 1128 639 1151 q 599 1092 622 1106 q 531 1065 575 1078 l 517 1061 q 492 1052 501 1057 q 481 1041 483 1047 q 478 1026 478 1035 l 328 1026 z "},"Ȇ":{"ha":838,"x_min":71,"x_max":771,"o":"m 71 0 l 71 956 l 771 956 l 771 724 l 394 724 l 394 596 l 706 596 l 706 369 l 394 369 l 394 232 l 771 232 l 771 0 l 71 0 m 428 1243 q 543 1228 499 1243 q 611 1184 588 1213 q 643 1117 635 1156 q 651 1032 651 1078 l 497 1032 q 494 1065 497 1050 q 477 1090 492 1081 q 428 1099 463 1099 q 378 1090 393 1099 q 360 1065 363 1081 q 357 1032 357 1050 l 203 1032 q 212 1117 203 1078 q 244 1184 221 1156 q 313 1228 268 1213 q 428 1243 357 1243 z "},"Ē":{"ha":838,"x_min":71,"x_max":771,"o":"m 71 0 l 71 956 l 771 956 l 771 724 l 394 724 l 394 596 l 706 596 l 706 369 l 394 369 l 394 232 l 771 232 l 771 0 l 71 0 m 179 1047 l 179 1203 l 676 1203 l 676 1047 l 179 1047 z "},"Ę":{"ha":838,"x_min":71,"x_max":772,"o":"m 71 0 l 71 956 l 771 956 l 771 724 l 394 724 l 394 596 l 706 596 l 706 369 l 394 369 l 394 232 l 771 232 l 771 0 l 71 0 m 651 -278 q 529 -260 574 -278 q 467 -215 485 -243 q 450 -154 450 -186 q 479 -67 450 -111 q 554 14 508 -24 l 771 0 q 733 -25 753 -8 q 698 -60 713 -42 q 683 -97 683 -79 q 696 -130 683 -117 q 749 -143 708 -143 q 757 -143 751 -143 q 772 -142 763 -143 l 772 -272 q 714 -276 749 -274 q 651 -278 679 -278 z "},"Ẽ":{"ha":838,"x_min":71,"x_max":771,"o":"m 71 0 l 71 956 l 771 956 l 771 724 l 394 724 l 394 596 l 706 596 l 706 369 l 394 369 l 394 232 l 771 232 l 771 0 l 71 0 m 143 1017 q 149 1133 143 1085 q 185 1208 156 1182 q 288 1235 215 1235 q 372 1227 329 1235 q 450 1213 415 1219 q 503 1203 479 1207 q 542 1199 526 1199 q 569 1210 565 1199 q 572 1251 572 1222 l 711 1251 q 705 1135 711 1185 q 669 1060 699 1086 q 567 1033 639 1033 q 483 1042 525 1033 q 404 1056 440 1050 q 351 1065 375 1061 q 313 1069 328 1069 q 286 1057 290 1069 q 282 1017 282 1044 l 143 1017 z "},"F":{"ha":790,"x_min":71,"x_max":743,"o":"m 71 0 l 71 956 l 743 956 l 743 724 l 394 724 l 394 556 l 692 556 l 692 324 l 394 324 l 394 0 l 71 0 z "},"G":{"ha":919,"x_min":58,"x_max":853,"o":"m 496 -11 q 312 3 388 -11 q 186 51 236 18 q 108 140 136 83 q 69 279 81 196 q 58 478 58 363 q 69 676 58 593 q 108 816 81 760 q 186 905 136 872 q 312 952 236 938 q 496 967 388 967 q 609 963 547 967 q 733 951 671 958 q 849 933 796 943 l 849 717 q 758 726 806 722 q 667 732 710 729 q 600 735 625 735 q 493 732 535 735 q 428 717 451 729 q 393 677 404 704 q 379 601 382 650 q 376 478 376 553 q 378 365 376 411 q 388 289 381 318 q 410 244 396 260 q 449 222 425 228 q 510 215 474 215 q 525 216 515 215 q 547 217 535 217 q 569 217 560 217 l 569 365 l 478 365 l 478 575 l 853 575 l 853 18 q 738 3 801 10 q 612 -7 675 -3 q 496 -11 549 -11 z "},"Ǵ":{"ha":919,"x_min":58,"x_max":853,"o":"m 496 -11 q 312 3 388 -11 q 186 51 236 18 q 108 140 136 83 q 69 279 81 196 q 58 478 58 363 q 69 676 58 593 q 108 816 81 760 q 186 905 136 872 q 312 952 236 938 q 496 967 388 967 q 609 963 547 967 q 733 951 671 958 q 849 933 796 943 l 849 717 q 758 726 806 722 q 667 732 710 729 q 600 735 625 735 q 493 732 535 735 q 428 717 451 729 q 393 677 404 704 q 379 601 382 650 q 376 478 376 553 q 378 365 376 411 q 388 289 381 318 q 410 244 396 260 q 449 222 425 228 q 510 215 474 215 q 525 216 515 215 q 547 217 535 217 q 569 217 560 217 l 569 365 l 478 365 l 478 575 l 853 575 l 853 18 q 738 3 801 10 q 612 -7 675 -3 q 496 -11 549 -11 m 347 1032 l 347 1039 l 467 1238 l 742 1238 l 742 1231 l 553 1032 l 347 1032 z "},"Ğ":{"ha":919,"x_min":58,"x_max":853,"o":"m 496 -11 q 312 3 388 -11 q 186 51 236 18 q 108 140 136 83 q 69 279 81 196 q 58 478 58 363 q 69 676 58 593 q 108 816 81 760 q 186 905 136 872 q 312 952 236 938 q 496 967 388 967 q 609 963 547 967 q 733 951 671 958 q 849 933 796 943 l 849 717 q 758 726 806 722 q 667 732 710 729 q 600 735 625 735 q 493 732 535 735 q 428 717 451 729 q 393 677 404 704 q 379 601 382 650 q 376 478 376 553 q 378 365 376 411 q 388 289 381 318 q 410 244 396 260 q 449 222 425 228 q 510 215 474 215 q 525 216 515 215 q 547 217 535 217 q 569 217 560 217 l 569 365 l 478 365 l 478 575 l 853 575 l 853 18 q 738 3 801 10 q 612 -7 675 -3 q 496 -11 549 -11 m 493 1026 q 378 1042 422 1026 q 310 1085 333 1057 q 278 1153 286 1114 q 269 1238 269 1192 l 424 1238 q 426 1204 424 1219 q 444 1180 429 1189 q 493 1171 458 1171 q 544 1180 529 1171 q 561 1204 558 1189 q 564 1238 564 1219 l 718 1238 q 709 1153 718 1192 q 676 1085 700 1114 q 608 1042 653 1057 q 493 1026 564 1026 z "},"Ǧ":{"ha":919,"x_min":58,"x_max":853,"o":"m 496 -11 q 312 3 388 -11 q 186 51 236 18 q 108 140 136 83 q 69 279 81 196 q 58 478 58 363 q 69 676 58 593 q 108 816 81 760 q 186 905 136 872 q 312 952 236 938 q 496 967 388 967 q 609 963 547 967 q 733 951 671 958 q 849 933 796 943 l 849 717 q 758 726 806 722 q 667 732 710 729 q 600 735 625 735 q 493 732 535 735 q 428 717 451 729 q 393 677 404 704 q 379 601 382 650 q 376 478 376 553 q 378 365 376 411 q 388 289 381 318 q 410 244 396 260 q 449 222 425 228 q 510 215 474 215 q 525 216 515 215 q 547 217 535 217 q 569 217 560 217 l 569 365 l 478 365 l 478 575 l 853 575 l 853 18 q 738 3 801 10 q 612 -7 675 -3 q 496 -11 549 -11 m 363 1032 l 239 1226 l 239 1238 l 425 1238 l 497 1138 l 564 1238 l 750 1238 l 750 1226 l 625 1032 l 363 1032 z "},"Ĝ":{"ha":919,"x_min":58,"x_max":853,"o":"m 496 -11 q 312 3 388 -11 q 186 51 236 18 q 108 140 136 83 q 69 279 81 196 q 58 478 58 363 q 69 676 58 593 q 108 816 81 760 q 186 905 136 872 q 312 952 236 938 q 496 967 388 967 q 609 963 547 967 q 733 951 671 958 q 849 933 796 943 l 849 717 q 758 726 806 722 q 667 732 710 729 q 600 735 625 735 q 493 732 535 735 q 428 717 451 729 q 393 677 404 704 q 379 601 382 650 q 376 478 376 553 q 378 365 376 411 q 388 289 381 318 q 410 244 396 260 q 449 222 425 228 q 510 215 474 215 q 525 216 515 215 q 547 217 535 217 q 569 217 560 217 l 569 365 l 478 365 l 478 575 l 853 575 l 853 18 q 738 3 801 10 q 612 -7 675 -3 q 496 -11 549 -11 m 239 1032 l 239 1043 l 363 1238 l 625 1238 l 750 1043 l 750 1032 l 564 1032 l 493 1132 l 425 1032 l 239 1032 z "},"Ģ":{"ha":919,"x_min":58,"x_max":853,"o":"m 496 -11 q 312 3 388 -11 q 186 51 236 18 q 108 140 136 83 q 69 279 81 196 q 58 478 58 363 q 69 676 58 593 q 108 816 81 760 q 186 905 136 872 q 312 952 236 938 q 496 967 388 967 q 609 963 547 967 q 733 951 671 958 q 849 933 796 943 l 849 717 q 758 726 806 722 q 667 732 710 729 q 600 735 625 735 q 493 732 535 735 q 428 717 451 729 q 393 677 404 704 q 379 601 382 650 q 376 478 376 553 q 378 365 376 411 q 388 289 381 318 q 410 244 396 260 q 449 222 425 228 q 510 215 474 215 q 525 216 515 215 q 547 217 535 217 q 569 217 560 217 l 569 365 l 478 365 l 478 575 l 853 575 l 853 18 q 738 3 801 10 q 612 -7 675 -3 q 496 -11 549 -11 m 351 -412 l 351 -312 q 416 -308 396 -312 q 442 -292 436 -303 q 449 -262 449 -281 l 449 -254 l 351 -254 l 351 -90 l 636 -90 l 636 -194 q 627 -301 636 -258 q 590 -367 618 -343 q 504 -402 561 -392 q 351 -412 447 -412 z "},"Ġ":{"ha":919,"x_min":58,"x_max":853,"o":"m 496 -11 q 312 3 388 -11 q 186 51 236 18 q 108 140 136 83 q 69 279 81 196 q 58 478 58 363 q 69 676 58 593 q 108 816 81 760 q 186 905 136 872 q 312 952 236 938 q 496 967 388 967 q 609 963 547 967 q 733 951 671 958 q 849 933 796 943 l 849 717 q 758 726 806 722 q 667 732 710 729 q 600 735 625 735 q 493 732 535 735 q 428 717 451 729 q 393 677 404 704 q 379 601 382 650 q 376 478 376 553 q 378 365 376 411 q 388 289 381 318 q 410 244 396 260 q 449 222 425 228 q 510 215 474 215 q 525 216 515 215 q 547 217 535 217 q 569 217 560 217 l 569 365 l 478 365 l 478 575 l 853 575 l 853 18 q 738 3 801 10 q 612 -7 675 -3 q 496 -11 549 -11 m 379 1047 l 379 1219 l 608 1219 l 608 1047 l 379 1047 z "},"H":{"ha":968,"x_min":71,"x_max":897,"o":"m 71 0 l 71 956 l 396 956 l 396 608 l 572 608 l 572 956 l 897 956 l 897 0 l 572 0 l 572 349 l 396 349 l 396 0 l 71 0 z "},"Ħ":{"ha":968,"x_min":71,"x_max":897,"o":"m 71 0 l 71 956 l 396 956 l 396 849 l 572 849 l 572 956 l 897 956 l 897 0 l 572 0 l 572 293 l 396 293 l 396 0 l 71 0 m 396 553 l 572 553 l 572 658 l 396 658 l 396 553 z "},"Ĥ":{"ha":968,"x_min":71,"x_max":897,"o":"m 71 0 l 71 956 l 396 956 l 396 608 l 572 608 l 572 956 l 897 956 l 897 0 l 572 0 l 572 349 l 396 349 l 396 0 l 71 0 m 229 1032 l 229 1043 l 353 1238 l 615 1238 l 740 1043 l 740 1032 l 554 1032 l 483 1132 l 415 1032 l 229 1032 z "},"Ḥ":{"ha":968,"x_min":71,"x_max":897,"o":"m 71 0 l 71 956 l 396 956 l 396 608 l 572 608 l 572 956 l 897 956 l 897 0 l 572 0 l 572 349 l 396 349 l 396 0 l 71 0 m 371 -324 l 371 -118 l 599 -118 l 599 -324 l 371 -324 z "},"I":{"ha":467,"x_min":71,"x_max":396,"o":"m 71 0 l 71 956 l 396 956 l 396 0 l 71 0 z "},"Ĳ":{"ha":1075,"x_min":71,"x_max":1004,"o":"m 71 0 l 71 956 l 396 956 l 396 0 l 71 0 m 492 0 l 492 219 q 598 223 560 219 q 653 242 636 226 q 675 289 671 257 q 679 376 679 321 l 679 956 l 1004 956 l 1004 456 q 997 240 1004 325 q 965 106 990 154 q 885 35 940 57 q 735 6 831 13 q 492 0 640 0 z "},"Í":{"ha":467,"x_min":71,"x_max":481,"o":"m 71 0 l 71 956 l 396 956 l 396 0 l 71 0 m 86 1032 l 86 1039 l 206 1238 l 481 1238 l 481 1231 l 292 1032 l 86 1032 z "},"Ĭ":{"ha":467,"x_min":8,"x_max":457,"o":"m 71 0 l 71 956 l 396 956 l 396 0 l 71 0 m 232 1026 q 117 1042 161 1026 q 49 1085 72 1057 q 17 1153 25 1114 q 8 1238 8 1192 l 163 1238 q 165 1204 163 1219 q 183 1180 168 1189 q 232 1171 197 1171 q 283 1180 268 1171 q 300 1204 297 1189 q 303 1238 303 1219 l 457 1238 q 448 1153 457 1192 q 415 1085 439 1114 q 347 1042 392 1057 q 232 1026 303 1026 z "},"Ǐ":{"ha":467,"x_min":-22,"x_max":489,"o":"m 71 0 l 71 956 l 396 956 l 396 0 l 71 0 m 101 1032 l -22 1226 l -22 1238 l 164 1238 l 236 1138 l 303 1238 l 489 1238 l 489 1226 l 364 1032 l 101 1032 z "},"Î":{"ha":467,"x_min":-22,"x_max":489,"o":"m 71 0 l 71 956 l 396 956 l 396 0 l 71 0 m -22 1032 l -22 1043 l 101 1238 l 364 1238 l 489 1043 l 489 1032 l 303 1032 l 232 1132 l 164 1032 l -22 1032 z "},"Ȉ":{"ha":467,"x_min":-117,"x_max":463,"o":"m 71 0 l 71 956 l 396 956 l 396 0 l 71 0 m 463 1032 l 297 1032 l 147 1200 l 147 1206 l 369 1206 l 463 1038 l 463 1032 m 200 1032 l 32 1032 l -117 1200 l -117 1206 l 104 1206 l 200 1038 l 200 1032 z "},"Ï":{"ha":467,"x_min":-37,"x_max":503,"o":"m 71 0 l 71 956 l 396 956 l 396 0 l 71 0 m -37 1047 l -37 1219 l 192 1219 l 192 1047 l -37 1047 m 274 1047 l 274 1219 l 503 1219 l 503 1047 l 274 1047 z "},"İ":{"ha":467,"x_min":71,"x_max":396,"o":"m 71 0 l 71 956 l 396 956 l 396 0 l 71 0 m 118 1047 l 118 1219 l 347 1219 l 347 1047 l 118 1047 z "},"Ị":{"ha":467,"x_min":71,"x_max":396,"o":"m 71 0 l 71 956 l 396 956 l 396 0 l 71 0 m 119 -324 l 119 -118 l 347 -118 l 347 -324 l 119 -324 z "},"Ì":{"ha":467,"x_min":-65,"x_max":396,"o":"m 71 0 l 71 956 l 396 956 l 396 0 l 71 0 m 124 1032 l -65 1231 l -65 1238 l 210 1238 l 329 1039 l 329 1032 l 124 1032 z "},"Ỉ":{"ha":467,"x_min":43,"x_max":444,"o":"m 71 0 l 71 956 l 396 956 l 396 0 l 71 0 m 133 1026 l 133 1029 q 139 1081 133 1061 q 160 1113 144 1101 q 204 1132 175 1125 l 225 1138 q 249 1145 242 1142 q 260 1155 257 1149 q 263 1171 263 1161 q 258 1194 263 1188 q 238 1203 254 1201 q 189 1206 222 1206 q 143 1204 171 1206 q 88 1201 115 1203 q 43 1197 60 1200 l 43 1324 q 135 1335 81 1331 q 235 1340 189 1340 q 339 1333 292 1340 q 415 1294 386 1326 q 444 1189 444 1263 q 436 1128 444 1151 q 404 1092 428 1106 q 336 1065 381 1078 l 322 1061 q 298 1052 307 1057 q 286 1041 289 1047 q 283 1026 283 1035 l 133 1026 z "},"Ȋ":{"ha":467,"x_min":8,"x_max":457,"o":"m 71 0 l 71 956 l 396 956 l 396 0 l 71 0 m 233 1243 q 349 1228 304 1243 q 417 1184 393 1213 q 449 1117 440 1156 q 457 1032 457 1078 l 303 1032 q 300 1065 303 1050 q 283 1090 297 1081 q 233 1099 268 1099 q 183 1090 199 1099 q 165 1065 168 1081 q 163 1032 163 1050 l 8 1032 q 17 1117 8 1078 q 50 1184 26 1156 q 118 1228 74 1213 q 233 1243 163 1243 z "},"Ī":{"ha":467,"x_min":-15,"x_max":482,"o":"m 71 0 l 71 956 l 396 956 l 396 0 l 71 0 m -15 1047 l -15 1203 l 482 1203 l 482 1047 l -15 1047 z "},"Į":{"ha":467,"x_min":71,"x_max":397,"o":"m 71 0 l 71 956 l 396 956 l 396 0 l 71 0 m 276 -278 q 154 -260 199 -278 q 92 -215 110 -243 q 75 -154 75 -186 q 104 -67 75 -111 q 179 14 133 -24 l 396 0 q 358 -25 378 -8 q 323 -60 338 -42 q 308 -97 308 -79 q 321 -130 308 -117 q 374 -143 333 -143 q 382 -143 376 -143 q 397 -142 388 -143 l 397 -272 q 339 -276 374 -274 q 276 -278 304 -278 z "},"Ĩ":{"ha":467,"x_min":-51,"x_max":517,"o":"m 71 0 l 71 956 l 396 956 l 396 0 l 71 0 m -51 1017 q -45 1133 -51 1085 q -9 1208 -39 1182 q 93 1235 21 1235 q 178 1227 135 1235 q 256 1213 221 1219 q 308 1203 285 1207 q 347 1199 332 1199 q 374 1210 371 1199 q 378 1251 378 1222 l 517 1251 q 510 1135 517 1185 q 474 1060 504 1086 q 372 1033 444 1033 q 288 1042 331 1033 q 210 1056 246 1050 q 157 1065 181 1061 q 118 1069 133 1069 q 92 1057 96 1069 q 88 1017 88 1044 l -51 1017 z "},"J":{"ha":608,"x_min":25,"x_max":538,"o":"m 25 0 l 25 219 q 131 223 93 219 q 187 242 169 226 q 208 289 204 257 q 213 376 213 321 l 213 956 l 538 956 l 538 456 q 531 240 538 325 q 499 106 524 154 q 419 35 474 57 q 269 6 364 13 q 25 0 174 0 z "},"Ĵ":{"ha":608,"x_min":25,"x_max":631,"o":"m 25 0 l 25 219 q 131 223 93 219 q 187 242 169 226 q 208 289 204 257 q 213 376 213 321 l 213 956 l 538 956 l 538 456 q 531 240 538 325 q 499 106 524 154 q 419 35 474 57 q 269 6 364 13 q 25 0 174 0 m 119 1032 l 119 1043 l 243 1238 l 506 1238 l 631 1043 l 631 1032 l 444 1032 l 374 1132 l 306 1032 l 119 1032 z "},"K":{"ha":967,"x_min":71,"x_max":967,"o":"m 71 0 l 71 956 l 396 956 l 396 599 l 410 599 l 617 956 l 963 956 l 675 507 l 967 0 l 613 0 l 410 372 l 396 372 l 396 0 l 71 0 z "},"Ķ":{"ha":967,"x_min":71,"x_max":967,"o":"m 71 0 l 71 956 l 396 956 l 396 599 l 410 599 l 617 956 l 963 956 l 675 507 l 967 0 l 613 0 l 410 372 l 396 372 l 396 0 l 71 0 m 340 -412 l 340 -312 q 405 -308 385 -312 q 431 -292 425 -303 q 438 -262 438 -281 l 438 -254 l 340 -254 l 340 -90 l 625 -90 l 625 -194 q 616 -301 625 -258 q 578 -367 607 -343 q 493 -402 550 -392 q 340 -412 436 -412 z "},"L":{"ha":740,"x_min":71,"x_max":715,"o":"m 71 0 l 71 956 l 396 956 l 396 244 l 715 244 l 715 0 l 71 0 z "},"Ǉ":{"ha":1349,"x_min":71,"x_max":1278,"o":"m 71 0 l 71 956 l 396 956 l 396 244 l 715 244 l 715 0 l 71 0 m 765 0 l 765 219 q 872 223 833 219 q 927 242 910 226 q 949 289 944 257 q 953 376 953 321 l 953 956 l 1278 956 l 1278 456 q 1271 240 1278 325 q 1239 106 1264 154 q 1159 35 1214 57 q 1009 6 1104 13 q 765 0 914 0 z "},"Ĺ":{"ha":740,"x_min":71,"x_max":715,"o":"m 71 0 l 71 956 l 396 956 l 396 244 l 715 244 l 715 0 l 71 0 m 86 1032 l 86 1039 l 206 1238 l 481 1238 l 481 1231 l 292 1032 l 86 1032 z "},"Ľ":{"ha":740,"x_min":71,"x_max":726,"o":"m 71 0 l 71 956 l 396 956 l 396 244 l 715 244 l 715 0 l 71 0 m 500 585 l 513 892 l 513 956 l 726 956 l 726 892 l 656 585 l 500 585 z "},"Ļ":{"ha":740,"x_min":71,"x_max":715,"o":"m 71 0 l 71 956 l 396 956 l 396 244 l 715 244 l 715 0 l 71 0 m 261 -412 l 261 -312 q 326 -308 306 -312 q 352 -292 346 -303 q 358 -262 358 -281 l 358 -254 l 261 -254 l 261 -90 l 546 -90 l 546 -194 q 537 -301 546 -258 q 499 -367 528 -343 q 414 -402 471 -392 q 261 -412 357 -412 z "},"Ŀ":{"ha":744,"x_min":71,"x_max":725,"o":"m 71 0 l 71 956 l 396 956 l 396 244 l 715 244 l 715 0 l 71 0 m 519 381 l 519 618 l 725 618 l 725 381 l 519 381 z "},"ǈ":{"ha":1165,"x_min":71,"x_max":1104,"o":"m 71 0 l 71 956 l 396 956 l 396 244 l 715 244 l 715 0 l 71 0 m 801 822 l 801 1032 l 1104 1032 l 1104 822 l 801 822 m 701 -276 l 701 -85 q 771 -77 750 -85 q 797 -53 792 -69 q 801 -14 801 -37 l 801 708 l 1104 708 l 1104 51 q 1089 -127 1104 -61 q 1031 -225 1074 -193 q 909 -267 989 -257 q 701 -276 829 -276 z "},"Ł":{"ha":740,"x_min":-1,"x_max":715,"o":"m -1 319 l -1 517 l 567 724 l 567 526 l -1 319 m 71 0 l 71 956 l 396 956 l 396 244 l 715 244 l 715 0 l 71 0 z "},"M":{"ha":1254,"x_min":71,"x_max":1183,"o":"m 71 0 l 71 956 l 515 956 l 622 507 l 635 507 l 740 956 l 1183 956 l 1183 0 l 874 0 l 874 538 l 858 538 l 731 0 l 515 0 l 388 538 l 372 538 l 372 0 l 71 0 z "},"N":{"ha":979,"x_min":71,"x_max":908,"o":"m 71 0 l 71 956 l 403 956 l 589 586 l 599 586 l 599 956 l 908 956 l 908 0 l 610 0 l 389 446 l 381 446 l 381 0 l 71 0 z "},"Ǌ":{"ha":1588,"x_min":71,"x_max":1517,"o":"m 71 0 l 71 956 l 403 956 l 589 586 l 599 586 l 599 956 l 908 956 l 908 0 l 610 0 l 389 446 l 381 446 l 381 0 l 71 0 m 1004 0 l 1004 219 q 1110 223 1072 219 q 1166 242 1149 226 q 1188 289 1183 257 q 1192 376 1192 321 l 1192 956 l 1517 956 l 1517 456 q 1510 240 1517 325 q 1478 106 1503 154 q 1398 35 1453 57 q 1248 6 1343 13 q 1004 0 1153 0 z "},"Ń":{"ha":979,"x_min":71,"x_max":908,"o":"m 71 0 l 71 956 l 403 956 l 589 586 l 599 586 l 599 956 l 908 956 l 908 0 l 610 0 l 389 446 l 381 446 l 381 0 l 71 0 m 350 1032 l 350 1039 l 469 1238 l 744 1238 l 744 1231 l 556 1032 l 350 1032 z "},"Ň":{"ha":979,"x_min":71,"x_max":908,"o":"m 71 0 l 71 956 l 403 956 l 589 586 l 599 586 l 599 956 l 908 956 l 908 0 l 610 0 l 389 446 l 381 446 l 381 0 l 71 0 m 365 1032 l 242 1226 l 242 1238 l 428 1238 l 500 1138 l 567 1238 l 753 1238 l 753 1226 l 628 1032 l 365 1032 z "},"Ņ":{"ha":979,"x_min":71,"x_max":908,"o":"m 71 0 l 71 956 l 403 956 l 589 586 l 599 586 l 599 956 l 908 956 l 908 0 l 610 0 l 389 446 l 381 446 l 381 0 l 71 0 m 354 -412 l 354 -312 q 419 -308 399 -312 q 445 -292 439 -303 q 451 -262 451 -281 l 451 -254 l 354 -254 l 354 -90 l 639 -90 l 639 -194 q 630 -301 639 -258 q 592 -367 621 -343 q 507 -402 564 -392 q 354 -412 450 -412 z "},"Ṅ":{"ha":979,"x_min":71,"x_max":908,"o":"m 71 0 l 71 956 l 403 956 l 589 586 l 599 586 l 599 956 l 908 956 l 908 0 l 610 0 l 389 446 l 381 446 l 381 0 l 71 0 m 382 1047 l 382 1219 l 611 1219 l 611 1047 l 382 1047 z "},"Ɲ":{"ha":979,"x_min":-29,"x_max":908,"o":"m -29 -276 l -29 -85 q 27 -81 7 -85 q 57 -67 47 -76 q 69 -45 67 -58 q 71 -14 71 -32 l 71 956 l 403 956 l 589 586 l 599 586 l 599 956 l 908 956 l 908 0 l 610 0 l 389 446 l 381 446 l 381 51 q 371 -99 381 -39 q 336 -194 361 -158 q 265 -247 311 -229 q 147 -271 219 -265 q -29 -276 75 -276 z "},"ǋ":{"ha":1404,"x_min":71,"x_max":1343,"o":"m 71 0 l 71 956 l 403 956 l 589 586 l 599 586 l 599 956 l 908 956 l 908 0 l 610 0 l 389 446 l 381 446 l 381 0 l 71 0 m 1040 822 l 1040 1032 l 1343 1032 l 1343 822 l 1040 822 m 940 -276 l 940 -85 q 1010 -77 989 -85 q 1035 -53 1031 -69 q 1040 -14 1040 -37 l 1040 708 l 1343 708 l 1343 51 q 1328 -127 1343 -61 q 1270 -225 1313 -193 q 1148 -267 1228 -257 q 940 -276 1068 -276 z "},"Ñ":{"ha":979,"x_min":71,"x_max":908,"o":"m 71 0 l 71 956 l 403 956 l 589 586 l 599 586 l 599 956 l 908 956 l 908 0 l 610 0 l 389 446 l 381 446 l 381 0 l 71 0 m 213 1017 q 219 1133 213 1085 q 255 1208 225 1182 q 357 1235 285 1235 q 442 1227 399 1235 q 519 1213 485 1219 q 572 1203 549 1207 q 611 1199 596 1199 q 638 1210 635 1199 q 642 1251 642 1222 l 781 1251 q 774 1135 781 1185 q 738 1060 768 1086 q 636 1033 708 1033 q 552 1042 594 1033 q 474 1056 510 1050 q 421 1065 444 1061 q 382 1069 397 1069 q 356 1057 360 1069 q 351 1017 351 1044 l 213 1017 z "},"Ŋ":{"ha":979,"x_min":71,"x_max":908,"o":"m 499 -276 l 499 -85 q 568 -77 547 -85 q 594 -53 589 -69 q 599 -14 599 -37 l 599 22 l 389 446 l 381 446 l 381 0 l 71 0 l 71 956 l 403 956 l 589 586 l 599 586 l 599 956 l 908 956 l 908 51 q 899 -99 908 -39 q 864 -194 889 -158 q 793 -247 839 -229 q 675 -271 747 -265 q 499 -276 603 -276 z "},"O":{"ha":965,"x_min":58,"x_max":907,"o":"m 482 -11 q 276 4 356 -11 q 151 53 196 19 q 87 143 107 86 q 63 283 67 200 q 58 478 58 365 q 63 673 58 590 q 87 813 67 756 q 151 903 107 869 q 276 951 196 936 q 482 967 356 967 q 688 951 608 967 q 813 903 768 936 q 878 813 858 869 q 902 673 897 756 q 907 478 907 590 q 902 283 907 365 q 878 143 897 200 q 813 53 858 86 q 688 4 768 19 q 482 -11 608 -11 m 482 221 q 530 224 511 221 q 559 239 549 226 q 574 278 569 251 q 579 354 578 306 q 581 478 581 403 q 579 601 581 553 q 574 677 578 650 q 559 717 569 704 q 530 732 549 729 q 482 735 511 735 q 434 732 453 735 q 406 717 415 729 q 391 677 396 704 q 385 601 386 650 q 385 478 385 553 q 385 354 385 403 q 391 278 386 306 q 406 239 396 251 q 434 224 415 226 q 482 221 453 221 z "},"Ó":{"ha":965,"x_min":58,"x_max":907,"o":"m 482 -11 q 276 4 356 -11 q 151 53 196 19 q 87 143 107 86 q 63 283 67 200 q 58 478 58 365 q 63 673 58 590 q 87 813 67 756 q 151 903 107 869 q 276 951 196 936 q 482 967 356 967 q 688 951 608 967 q 813 903 768 936 q 878 813 858 869 q 902 673 897 756 q 907 478 907 590 q 902 283 907 365 q 878 143 897 200 q 813 53 858 86 q 688 4 768 19 q 482 -11 608 -11 m 482 221 q 530 224 511 221 q 559 239 549 226 q 574 278 569 251 q 579 354 578 306 q 581 478 581 403 q 579 601 581 553 q 574 677 578 650 q 559 717 569 704 q 530 732 549 729 q 482 735 511 735 q 434 732 453 735 q 406 717 415 729 q 391 677 396 704 q 385 601 386 650 q 385 478 385 553 q 385 354 385 403 q 391 278 386 306 q 406 239 396 251 q 434 224 415 226 q 482 221 453 221 m 336 1032 l 336 1039 l 456 1238 l 731 1238 l 731 1231 l 542 1032 l 336 1032 z "},"Ŏ":{"ha":965,"x_min":58,"x_max":907,"o":"m 482 -11 q 276 4 356 -11 q 151 53 196 19 q 87 143 107 86 q 63 283 67 200 q 58 478 58 365 q 63 673 58 590 q 87 813 67 756 q 151 903 107 869 q 276 951 196 936 q 482 967 356 967 q 688 951 608 967 q 813 903 768 936 q 878 813 858 869 q 902 673 897 756 q 907 478 907 590 q 902 283 907 365 q 878 143 897 200 q 813 53 858 86 q 688 4 768 19 q 482 -11 608 -11 m 482 221 q 530 224 511 221 q 559 239 549 226 q 574 278 569 251 q 579 354 578 306 q 581 478 581 403 q 579 601 581 553 q 574 677 578 650 q 559 717 569 704 q 530 732 549 729 q 482 735 511 735 q 434 732 453 735 q 406 717 415 729 q 391 677 396 704 q 385 601 386 650 q 385 478 385 553 q 385 354 385 403 q 391 278 386 306 q 406 239 396 251 q 434 224 415 226 q 482 221 453 221 m 482 1026 q 367 1042 411 1026 q 299 1085 322 1057 q 267 1153 275 1114 q 258 1238 258 1192 l 413 1238 q 415 1204 413 1219 q 433 1180 418 1189 q 482 1171 447 1171 q 533 1180 518 1171 q 550 1204 547 1189 q 553 1238 553 1219 l 707 1238 q 698 1153 707 1192 q 665 1085 689 1114 q 597 1042 642 1057 q 482 1026 553 1026 z "},"Ǒ":{"ha":965,"x_min":58,"x_max":907,"o":"m 482 -11 q 276 4 356 -11 q 151 53 196 19 q 87 143 107 86 q 63 283 67 200 q 58 478 58 365 q 63 673 58 590 q 87 813 67 756 q 151 903 107 869 q 276 951 196 936 q 482 967 356 967 q 688 951 608 967 q 813 903 768 936 q 878 813 858 869 q 902 673 897 756 q 907 478 907 590 q 902 283 907 365 q 878 143 897 200 q 813 53 858 86 q 688 4 768 19 q 482 -11 608 -11 m 482 221 q 530 224 511 221 q 559 239 549 226 q 574 278 569 251 q 579 354 578 306 q 581 478 581 403 q 579 601 581 553 q 574 677 578 650 q 559 717 569 704 q 530 732 549 729 q 482 735 511 735 q 434 732 453 735 q 406 717 415 729 q 391 677 396 704 q 385 601 386 650 q 385 478 385 553 q 385 354 385 403 q 391 278 386 306 q 406 239 396 251 q 434 224 415 226 q 482 221 453 221 m 351 1032 l 228 1226 l 228 1238 l 414 1238 l 486 1138 l 553 1238 l 739 1238 l 739 1226 l 614 1032 l 351 1032 z "},"Ô":{"ha":965,"x_min":58,"x_max":907,"o":"m 482 -11 q 276 4 356 -11 q 151 53 196 19 q 87 143 107 86 q 63 283 67 200 q 58 478 58 365 q 63 673 58 590 q 87 813 67 756 q 151 903 107 869 q 276 951 196 936 q 482 967 356 967 q 688 951 608 967 q 813 903 768 936 q 878 813 858 869 q 902 673 897 756 q 907 478 907 590 q 902 283 907 365 q 878 143 897 200 q 813 53 858 86 q 688 4 768 19 q 482 -11 608 -11 m 482 221 q 530 224 511 221 q 559 239 549 226 q 574 278 569 251 q 579 354 578 306 q 581 478 581 403 q 579 601 581 553 q 574 677 578 650 q 559 717 569 704 q 530 732 549 729 q 482 735 511 735 q 434 732 453 735 q 406 717 415 729 q 391 677 396 704 q 385 601 386 650 q 385 478 385 553 q 385 354 385 403 q 391 278 386 306 q 406 239 396 251 q 434 224 415 226 q 482 221 453 221 m 228 1032 l 228 1043 l 351 1238 l 614 1238 l 739 1043 l 739 1032 l 553 1032 l 482 1132 l 414 1032 l 228 1032 z "},"Ố":{"ha":965,"x_min":58,"x_max":907,"o":"m 482 -11 q 276 4 356 -11 q 151 53 196 19 q 87 143 107 86 q 63 283 67 200 q 58 478 58 365 q 63 673 58 590 q 87 813 67 756 q 151 903 107 869 q 276 951 196 936 q 482 967 356 967 q 688 951 608 967 q 813 903 768 936 q 878 813 858 869 q 902 673 897 756 q 907 478 907 590 q 902 283 907 365 q 878 143 897 200 q 813 53 858 86 q 688 4 768 19 q 482 -11 608 -11 m 482 221 q 530 224 511 221 q 559 239 549 226 q 574 278 569 251 q 579 354 578 306 q 581 478 581 403 q 579 601 581 553 q 574 677 578 650 q 559 717 569 704 q 530 732 549 729 q 482 735 511 735 q 434 732 453 735 q 406 717 415 729 q 391 677 396 704 q 385 601 386 650 q 385 478 385 553 q 385 354 385 403 q 391 278 386 306 q 406 239 396 251 q 434 224 415 226 q 482 221 453 221 m 228 1032 l 228 1043 l 351 1238 l 614 1238 l 739 1043 l 739 1032 l 553 1032 l 482 1132 l 414 1032 l 228 1032 m 336 1279 l 336 1286 l 456 1485 l 731 1485 l 731 1478 l 542 1279 l 336 1279 z "},"Ộ":{"ha":965,"x_min":58,"x_max":907,"o":"m 482 -11 q 276 4 356 -11 q 151 53 196 19 q 87 143 107 86 q 63 283 67 200 q 58 478 58 365 q 63 673 58 590 q 87 813 67 756 q 151 903 107 869 q 276 951 196 936 q 482 967 356 967 q 688 951 608 967 q 813 903 768 936 q 878 813 858 869 q 902 673 897 756 q 907 478 907 590 q 902 283 907 365 q 878 143 897 200 q 813 53 858 86 q 688 4 768 19 q 482 -11 608 -11 m 482 221 q 530 224 511 221 q 559 239 549 226 q 574 278 569 251 q 579 354 578 306 q 581 478 581 403 q 579 601 581 553 q 574 677 578 650 q 559 717 569 704 q 530 732 549 729 q 482 735 511 735 q 434 732 453 735 q 406 717 415 729 q 391 677 396 704 q 385 601 386 650 q 385 478 385 553 q 385 354 385 403 q 391 278 386 306 q 406 239 396 251 q 434 224 415 226 q 482 221 453 221 m 369 -324 l 369 -118 l 597 -118 l 597 -324 l 369 -324 m 228 1032 l 228 1043 l 351 1238 l 614 1238 l 739 1043 l 739 1032 l 553 1032 l 482 1132 l 414 1032 l 228 1032 z "},"Ồ":{"ha":965,"x_min":58,"x_max":907,"o":"m 482 -11 q 276 4 356 -11 q 151 53 196 19 q 87 143 107 86 q 63 283 67 200 q 58 478 58 365 q 63 673 58 590 q 87 813 67 756 q 151 903 107 869 q 276 951 196 936 q 482 967 356 967 q 688 951 608 967 q 813 903 768 936 q 878 813 858 869 q 902 673 897 756 q 907 478 907 590 q 902 283 907 365 q 878 143 897 200 q 813 53 858 86 q 688 4 768 19 q 482 -11 608 -11 m 482 221 q 530 224 511 221 q 559 239 549 226 q 574 278 569 251 q 579 354 578 306 q 581 478 581 403 q 579 601 581 553 q 574 677 578 650 q 559 717 569 704 q 530 732 549 729 q 482 735 511 735 q 434 732 453 735 q 406 717 415 729 q 391 677 396 704 q 385 601 386 650 q 385 478 385 553 q 385 354 385 403 q 391 278 386 306 q 406 239 396 251 q 434 224 415 226 q 482 221 453 221 m 228 1032 l 228 1043 l 351 1238 l 614 1238 l 739 1043 l 739 1032 l 553 1032 l 482 1132 l 414 1032 l 228 1032 m 374 1279 l 185 1478 l 185 1485 l 460 1485 l 579 1286 l 579 1279 l 374 1279 z "},"Ổ":{"ha":965,"x_min":58,"x_max":907,"o":"m 482 -11 q 276 4 356 -11 q 151 53 196 19 q 87 143 107 86 q 63 283 67 200 q 58 478 58 365 q 63 673 58 590 q 87 813 67 756 q 151 903 107 869 q 276 951 196 936 q 482 967 356 967 q 688 951 608 967 q 813 903 768 936 q 878 813 858 869 q 902 673 897 756 q 907 478 907 590 q 902 283 907 365 q 878 143 897 200 q 813 53 858 86 q 688 4 768 19 q 482 -11 608 -11 m 482 221 q 530 224 511 221 q 559 239 549 226 q 574 278 569 251 q 579 354 578 306 q 581 478 581 403 q 579 601 581 553 q 574 677 578 650 q 559 717 569 704 q 530 732 549 729 q 482 735 511 735 q 434 732 453 735 q 406 717 415 729 q 391 677 396 704 q 385 601 386 650 q 385 478 385 553 q 385 354 385 403 q 391 278 386 306 q 406 239 396 251 q 434 224 415 226 q 482 221 453 221 m 228 1032 l 228 1043 l 351 1239 l 614 1239 l 739 1043 l 739 1032 l 553 1032 l 482 1133 l 414 1032 l 228 1032 m 383 1275 l 383 1278 q 389 1330 383 1310 q 410 1362 394 1350 q 454 1381 425 1374 l 475 1386 q 499 1394 492 1390 q 510 1403 507 1397 q 513 1419 513 1410 q 508 1443 513 1436 q 488 1452 504 1450 q 439 1454 472 1454 q 393 1453 421 1454 q 338 1450 365 1451 q 293 1446 310 1449 l 293 1572 q 385 1584 331 1579 q 485 1589 439 1589 q 589 1582 542 1589 q 665 1543 636 1575 q 694 1438 694 1511 q 686 1377 694 1400 q 654 1340 678 1354 q 586 1314 631 1326 l 572 1310 q 548 1301 557 1306 q 536 1290 539 1296 q 533 1275 533 1283 l 383 1275 z "},"Ỗ":{"ha":965,"x_min":58,"x_max":907,"o":"m 482 -11 q 276 4 356 -11 q 151 53 196 19 q 87 143 107 86 q 63 283 67 200 q 58 478 58 365 q 63 673 58 590 q 87 813 67 756 q 151 903 107 869 q 276 951 196 936 q 482 967 356 967 q 688 951 608 967 q 813 903 768 936 q 878 813 858 869 q 902 673 897 756 q 907 478 907 590 q 902 283 907 365 q 878 143 897 200 q 813 53 858 86 q 688 4 768 19 q 482 -11 608 -11 m 482 221 q 530 224 511 221 q 559 239 549 226 q 574 278 569 251 q 579 354 578 306 q 581 478 581 403 q 579 601 581 553 q 574 677 578 650 q 559 717 569 704 q 530 732 549 729 q 482 735 511 735 q 434 732 453 735 q 406 717 415 729 q 391 677 396 704 q 385 601 386 650 q 385 478 385 553 q 385 354 385 403 q 391 278 386 306 q 406 239 396 251 q 434 224 415 226 q 482 221 453 221 m 228 1032 l 228 1043 l 351 1238 l 614 1238 l 739 1043 l 739 1032 l 553 1032 l 482 1132 l 414 1032 l 228 1032 m 199 1264 q 205 1381 199 1332 q 241 1456 211 1429 q 343 1482 271 1482 q 428 1474 385 1482 q 506 1460 471 1467 q 558 1450 535 1454 q 597 1446 582 1446 q 624 1458 621 1446 q 628 1499 628 1469 l 767 1499 q 760 1383 767 1432 q 724 1307 754 1333 q 622 1281 694 1281 q 538 1289 581 1281 q 460 1303 496 1297 q 407 1313 431 1308 q 368 1317 383 1317 q 342 1304 346 1317 q 338 1264 338 1292 l 199 1264 z "},"Ȍ":{"ha":965,"x_min":58,"x_max":907,"o":"m 482 -11 q 276 4 356 -11 q 151 53 196 19 q 87 143 107 86 q 63 283 67 200 q 58 478 58 365 q 63 673 58 590 q 87 813 67 756 q 151 903 107 869 q 276 951 196 936 q 482 967 356 967 q 688 951 608 967 q 813 903 768 936 q 878 813 858 869 q 902 673 897 756 q 907 478 907 590 q 902 283 907 365 q 878 143 897 200 q 813 53 858 86 q 688 4 768 19 q 482 -11 608 -11 m 482 221 q 530 224 511 221 q 559 239 549 226 q 574 278 569 251 q 579 354 578 306 q 581 478 581 403 q 579 601 581 553 q 574 677 578 650 q 559 717 569 704 q 530 732 549 729 q 482 735 511 735 q 434 732 453 735 q 406 717 415 729 q 391 677 396 704 q 385 601 386 650 q 385 478 385 553 q 385 354 385 403 q 391 278 386 306 q 406 239 396 251 q 434 224 415 226 q 482 221 453 221 m 713 1032 l 547 1032 l 397 1200 l 397 1206 l 619 1206 l 713 1038 l 713 1032 m 450 1032 l 282 1032 l 133 1200 l 133 1206 l 354 1206 l 450 1038 l 450 1032 z "},"Ö":{"ha":965,"x_min":58,"x_max":907,"o":"m 482 -11 q 276 4 356 -11 q 151 53 196 19 q 87 143 107 86 q 63 283 67 200 q 58 478 58 365 q 63 673 58 590 q 87 813 67 756 q 151 903 107 869 q 276 951 196 936 q 482 967 356 967 q 688 951 608 967 q 813 903 768 936 q 878 813 858 869 q 902 673 897 756 q 907 478 907 590 q 902 283 907 365 q 878 143 897 200 q 813 53 858 86 q 688 4 768 19 q 482 -11 608 -11 m 482 221 q 530 224 511 221 q 559 239 549 226 q 574 278 569 251 q 579 354 578 306 q 581 478 581 403 q 579 601 581 553 q 574 677 578 650 q 559 717 569 704 q 530 732 549 729 q 482 735 511 735 q 434 732 453 735 q 406 717 415 729 q 391 677 396 704 q 385 601 386 650 q 385 478 385 553 q 385 354 385 403 q 391 278 386 306 q 406 239 396 251 q 434 224 415 226 q 482 221 453 221 m 213 1047 l 213 1219 l 442 1219 l 442 1047 l 213 1047 m 524 1047 l 524 1219 l 753 1219 l 753 1047 l 524 1047 z "},"Ȫ":{"ha":965,"x_min":58,"x_max":907,"o":"m 482 -11 q 276 4 356 -11 q 151 53 196 19 q 87 143 107 86 q 63 283 67 200 q 58 478 58 365 q 63 673 58 590 q 87 813 67 756 q 151 903 107 869 q 276 951 196 936 q 482 967 356 967 q 688 951 608 967 q 813 903 768 936 q 878 813 858 869 q 902 673 897 756 q 907 478 907 590 q 902 283 907 365 q 878 143 897 200 q 813 53 858 86 q 688 4 768 19 q 482 -11 608 -11 m 482 221 q 530 224 511 221 q 559 239 549 226 q 574 278 569 251 q 579 354 578 306 q 581 478 581 403 q 579 601 581 553 q 574 677 578 650 q 559 717 569 704 q 530 732 549 729 q 482 735 511 735 q 434 732 453 735 q 406 717 415 729 q 391 677 396 704 q 385 601 386 650 q 385 478 385 553 q 385 354 385 403 q 391 278 386 306 q 406 239 396 251 q 434 224 415 226 q 482 221 453 221 m 213 1047 l 213 1219 l 442 1219 l 442 1047 l 213 1047 m 524 1047 l 524 1219 l 753 1219 l 753 1047 l 524 1047 m 235 1297 l 235 1453 l 732 1453 l 732 1297 l 235 1297 z "},"Ȱ":{"ha":965,"x_min":58,"x_max":907,"o":"m 482 -11 q 276 4 356 -11 q 151 53 196 19 q 87 143 107 86 q 63 283 67 200 q 58 478 58 365 q 63 673 58 590 q 87 813 67 756 q 151 903 107 869 q 276 951 196 936 q 482 967 356 967 q 688 951 608 967 q 813 903 768 936 q 878 813 858 869 q 902 673 897 756 q 907 478 907 590 q 902 283 907 365 q 878 143 897 200 q 813 53 858 86 q 688 4 768 19 q 482 -11 608 -11 m 482 221 q 530 224 511 221 q 559 239 549 226 q 574 278 569 251 q 579 354 578 306 q 581 478 581 403 q 579 601 581 553 q 574 677 578 650 q 559 717 569 704 q 530 732 549 729 q 482 735 511 735 q 434 732 453 735 q 406 717 415 729 q 391 677 396 704 q 385 601 386 650 q 385 478 385 553 q 385 354 385 403 q 391 278 386 306 q 406 239 396 251 q 434 224 415 226 q 482 221 453 221 m 368 1047 l 368 1219 l 597 1219 l 597 1047 l 368 1047 m 235 1276 l 235 1432 l 732 1432 l 732 1276 l 235 1276 z "},"Ọ":{"ha":965,"x_min":58,"x_max":907,"o":"m 482 -11 q 276 4 356 -11 q 151 53 196 19 q 87 143 107 86 q 63 283 67 200 q 58 478 58 365 q 63 673 58 590 q 87 813 67 756 q 151 903 107 869 q 276 951 196 936 q 482 967 356 967 q 688 951 608 967 q 813 903 768 936 q 878 813 858 869 q 902 673 897 756 q 907 478 907 590 q 902 283 907 365 q 878 143 897 200 q 813 53 858 86 q 688 4 768 19 q 482 -11 608 -11 m 482 221 q 530 224 511 221 q 559 239 549 226 q 574 278 569 251 q 579 354 578 306 q 581 478 581 403 q 579 601 581 553 q 574 677 578 650 q 559 717 569 704 q 530 732 549 729 q 482 735 511 735 q 434 732 453 735 q 406 717 415 729 q 391 677 396 704 q 385 601 386 650 q 385 478 385 553 q 385 354 385 403 q 391 278 386 306 q 406 239 396 251 q 434 224 415 226 q 482 221 453 221 m 369 -324 l 369 -118 l 597 -118 l 597 -324 l 369 -324 z "},"Ò":{"ha":965,"x_min":58,"x_max":907,"o":"m 482 -11 q 276 4 356 -11 q 151 53 196 19 q 87 143 107 86 q 63 283 67 200 q 58 478 58 365 q 63 673 58 590 q 87 813 67 756 q 151 903 107 869 q 276 951 196 936 q 482 967 356 967 q 688 951 608 967 q 813 903 768 936 q 878 813 858 869 q 902 673 897 756 q 907 478 907 590 q 902 283 907 365 q 878 143 897 200 q 813 53 858 86 q 688 4 768 19 q 482 -11 608 -11 m 482 221 q 530 224 511 221 q 559 239 549 226 q 574 278 569 251 q 579 354 578 306 q 581 478 581 403 q 579 601 581 553 q 574 677 578 650 q 559 717 569 704 q 530 732 549 729 q 482 735 511 735 q 434 732 453 735 q 406 717 415 729 q 391 677 396 704 q 385 601 386 650 q 385 478 385 553 q 385 354 385 403 q 391 278 386 306 q 406 239 396 251 q 434 224 415 226 q 482 221 453 221 m 374 1032 l 185 1231 l 185 1238 l 460 1238 l 579 1039 l 579 1032 l 374 1032 z "},"Ỏ":{"ha":965,"x_min":58,"x_max":907,"o":"m 482 -11 q 276 4 356 -11 q 151 53 196 19 q 87 143 107 86 q 63 283 67 200 q 58 478 58 365 q 63 673 58 590 q 87 813 67 756 q 151 903 107 869 q 276 951 196 936 q 482 967 356 967 q 688 951 608 967 q 813 903 768 936 q 878 813 858 869 q 902 673 897 756 q 907 478 907 590 q 902 283 907 365 q 878 143 897 200 q 813 53 858 86 q 688 4 768 19 q 482 -11 608 -11 m 482 221 q 530 224 511 221 q 559 239 549 226 q 574 278 569 251 q 579 354 578 306 q 581 478 581 403 q 579 601 581 553 q 574 677 578 650 q 559 717 569 704 q 530 732 549 729 q 482 735 511 735 q 434 732 453 735 q 406 717 415 729 q 391 677 396 704 q 385 601 386 650 q 385 478 385 553 q 385 354 385 403 q 391 278 386 306 q 406 239 396 251 q 434 224 415 226 q 482 221 453 221 m 383 1026 l 383 1029 q 389 1081 383 1061 q 410 1113 394 1101 q 454 1132 425 1125 l 475 1138 q 499 1145 492 1142 q 510 1155 507 1149 q 513 1171 513 1161 q 508 1194 513 1188 q 488 1203 504 1201 q 439 1206 472 1206 q 393 1204 421 1206 q 338 1201 365 1203 q 293 1197 310 1200 l 293 1324 q 385 1335 331 1331 q 485 1340 439 1340 q 589 1333 542 1340 q 665 1294 636 1326 q 694 1189 694 1263 q 686 1128 694 1151 q 654 1092 678 1106 q 586 1065 631 1078 l 572 1061 q 548 1052 557 1057 q 536 1041 539 1047 q 533 1026 533 1035 l 383 1026 z "},"Ơ":{"ha":965,"x_min":58,"x_max":960,"o":"m 639 856 l 639 956 l 675 956 q 756 976 740 956 q 772 1047 772 996 l 772 1078 l 960 1078 l 960 1060 q 951 960 960 1000 q 913 898 942 921 q 828 865 885 875 q 675 856 771 856 l 639 856 m 482 -11 q 276 4 356 -11 q 151 53 196 19 q 87 143 107 86 q 63 283 67 200 q 58 478 58 365 q 63 673 58 590 q 87 813 67 756 q 151 903 107 869 q 276 951 196 936 q 482 967 356 967 q 688 951 608 967 q 813 903 768 936 q 878 813 858 869 q 902 673 897 756 q 907 478 907 590 q 902 283 907 365 q 878 143 897 200 q 813 53 858 86 q 688 4 768 19 q 482 -11 608 -11 m 482 221 q 530 224 511 221 q 559 239 549 226 q 574 278 569 251 q 579 354 578 306 q 581 478 581 403 q 579 601 581 553 q 574 677 578 650 q 559 717 569 704 q 530 732 549 729 q 482 735 511 735 q 434 732 453 735 q 406 717 415 729 q 391 677 396 704 q 385 601 386 650 q 385 478 385 553 q 385 354 385 403 q 391 278 386 306 q 406 239 396 251 q 434 224 415 226 q 482 221 453 221 z "},"Ớ":{"ha":965,"x_min":58,"x_max":960,"o":"m 639 856 l 639 956 l 675 956 q 756 976 740 956 q 772 1047 772 996 l 772 1078 l 960 1078 l 960 1060 q 951 960 960 1000 q 913 898 942 921 q 828 865 885 875 q 675 856 771 856 l 639 856 m 482 -11 q 276 4 356 -11 q 151 53 196 19 q 87 143 107 86 q 63 283 67 200 q 58 478 58 365 q 63 673 58 590 q 87 813 67 756 q 151 903 107 869 q 276 951 196 936 q 482 967 356 967 q 688 951 608 967 q 813 903 768 936 q 878 813 858 869 q 902 673 897 756 q 907 478 907 590 q 902 283 907 365 q 878 143 897 200 q 813 53 858 86 q 688 4 768 19 q 482 -11 608 -11 m 482 221 q 530 224 511 221 q 559 239 549 226 q 574 278 569 251 q 579 354 578 306 q 581 478 581 403 q 579 601 581 553 q 574 677 578 650 q 559 717 569 704 q 530 732 549 729 q 482 735 511 735 q 434 732 453 735 q 406 717 415 729 q 391 677 396 704 q 385 601 386 650 q 385 478 385 553 q 385 354 385 403 q 391 278 386 306 q 406 239 396 251 q 434 224 415 226 q 482 221 453 221 m 336 1032 l 336 1039 l 456 1238 l 731 1238 l 731 1231 l 542 1032 l 336 1032 z "},"Ợ":{"ha":965,"x_min":58,"x_max":960,"o":"m 639 856 l 639 956 l 675 956 q 756 976 740 956 q 772 1047 772 996 l 772 1078 l 960 1078 l 960 1060 q 951 960 960 1000 q 913 898 942 921 q 828 865 885 875 q 675 856 771 856 l 639 856 m 482 -11 q 276 4 356 -11 q 151 53 196 19 q 87 143 107 86 q 63 283 67 200 q 58 478 58 365 q 63 673 58 590 q 87 813 67 756 q 151 903 107 869 q 276 951 196 936 q 482 967 356 967 q 688 951 608 967 q 813 903 768 936 q 878 813 858 869 q 902 673 897 756 q 907 478 907 590 q 902 283 907 365 q 878 143 897 200 q 813 53 858 86 q 688 4 768 19 q 482 -11 608 -11 m 482 221 q 530 224 511 221 q 559 239 549 226 q 574 278 569 251 q 579 354 578 306 q 581 478 581 403 q 579 601 581 553 q 574 677 578 650 q 559 717 569 704 q 530 732 549 729 q 482 735 511 735 q 434 732 453 735 q 406 717 415 729 q 391 677 396 704 q 385 601 386 650 q 385 478 385 553 q 385 354 385 403 q 391 278 386 306 q 406 239 396 251 q 434 224 415 226 q 482 221 453 221 m 369 -324 l 369 -118 l 597 -118 l 597 -324 l 369 -324 z "},"Ờ":{"ha":965,"x_min":58,"x_max":960,"o":"m 639 856 l 639 956 l 675 956 q 756 976 740 956 q 772 1047 772 996 l 772 1078 l 960 1078 l 960 1060 q 951 960 960 1000 q 913 898 942 921 q 828 865 885 875 q 675 856 771 856 l 639 856 m 482 -11 q 276 4 356 -11 q 151 53 196 19 q 87 143 107 86 q 63 283 67 200 q 58 478 58 365 q 63 673 58 590 q 87 813 67 756 q 151 903 107 869 q 276 951 196 936 q 482 967 356 967 q 688 951 608 967 q 813 903 768 936 q 878 813 858 869 q 902 673 897 756 q 907 478 907 590 q 902 283 907 365 q 878 143 897 200 q 813 53 858 86 q 688 4 768 19 q 482 -11 608 -11 m 482 221 q 530 224 511 221 q 559 239 549 226 q 574 278 569 251 q 579 354 578 306 q 581 478 581 403 q 579 601 581 553 q 574 677 578 650 q 559 717 569 704 q 530 732 549 729 q 482 735 511 735 q 434 732 453 735 q 406 717 415 729 q 391 677 396 704 q 385 601 386 650 q 385 478 385 553 q 385 354 385 403 q 391 278 386 306 q 406 239 396 251 q 434 224 415 226 q 482 221 453 221 m 374 1032 l 185 1231 l 185 1238 l 460 1238 l 579 1039 l 579 1032 l 374 1032 z "},"Ở":{"ha":965,"x_min":58,"x_max":960,"o":"m 639 856 l 639 956 l 675 956 q 756 976 740 956 q 772 1047 772 996 l 772 1078 l 960 1078 l 960 1060 q 951 960 960 1000 q 913 898 942 921 q 828 865 885 875 q 675 856 771 856 l 639 856 m 482 -11 q 276 4 356 -11 q 151 53 196 19 q 87 143 107 86 q 63 283 67 200 q 58 478 58 365 q 63 673 58 590 q 87 813 67 756 q 151 903 107 869 q 276 951 196 936 q 482 967 356 967 q 688 951 608 967 q 813 903 768 936 q 878 813 858 869 q 902 673 897 756 q 907 478 907 590 q 902 283 907 365 q 878 143 897 200 q 813 53 858 86 q 688 4 768 19 q 482 -11 608 -11 m 482 221 q 530 224 511 221 q 559 239 549 226 q 574 278 569 251 q 579 354 578 306 q 581 478 581 403 q 579 601 581 553 q 574 677 578 650 q 559 717 569 704 q 530 732 549 729 q 482 735 511 735 q 434 732 453 735 q 406 717 415 729 q 391 677 396 704 q 385 601 386 650 q 385 478 385 553 q 385 354 385 403 q 391 278 386 306 q 406 239 396 251 q 434 224 415 226 q 482 221 453 221 m 383 1026 l 383 1029 q 389 1081 383 1061 q 410 1113 394 1101 q 454 1132 425 1125 l 475 1138 q 499 1145 492 1142 q 510 1155 507 1149 q 513 1171 513 1161 q 508 1194 513 1188 q 488 1203 504 1201 q 439 1206 472 1206 q 393 1204 421 1206 q 338 1201 365 1203 q 293 1197 310 1200 l 293 1324 q 385 1335 331 1331 q 485 1340 439 1340 q 589 1333 542 1340 q 665 1294 636 1326 q 694 1189 694 1263 q 686 1128 694 1151 q 654 1092 678 1106 q 586 1065 631 1078 l 572 1061 q 548 1052 557 1057 q 536 1041 539 1047 q 533 1026 533 1035 l 383 1026 z "},"Ỡ":{"ha":965,"x_min":58,"x_max":960,"o":"m 639 856 l 639 956 l 675 956 q 756 976 740 956 q 772 1047 772 996 l 772 1078 l 960 1078 l 960 1060 q 951 960 960 1000 q 913 898 942 921 q 828 865 885 875 q 675 856 771 856 l 639 856 m 482 -11 q 276 4 356 -11 q 151 53 196 19 q 87 143 107 86 q 63 283 67 200 q 58 478 58 365 q 63 673 58 590 q 87 813 67 756 q 151 903 107 869 q 276 951 196 936 q 482 967 356 967 q 688 951 608 967 q 813 903 768 936 q 878 813 858 869 q 902 673 897 756 q 907 478 907 590 q 902 283 907 365 q 878 143 897 200 q 813 53 858 86 q 688 4 768 19 q 482 -11 608 -11 m 482 221 q 530 224 511 221 q 559 239 549 226 q 574 278 569 251 q 579 354 578 306 q 581 478 581 403 q 579 601 581 553 q 574 677 578 650 q 559 717 569 704 q 530 732 549 729 q 482 735 511 735 q 434 732 453 735 q 406 717 415 729 q 391 677 396 704 q 385 601 386 650 q 385 478 385 553 q 385 354 385 403 q 391 278 386 306 q 406 239 396 251 q 434 224 415 226 q 482 221 453 221 m 199 1017 q 205 1133 199 1085 q 241 1208 211 1182 q 343 1235 271 1235 q 428 1227 385 1235 q 506 1213 471 1219 q 558 1203 535 1207 q 597 1199 582 1199 q 624 1210 621 1199 q 628 1251 628 1222 l 767 1251 q 760 1135 767 1185 q 724 1060 754 1086 q 622 1033 694 1033 q 538 1042 581 1033 q 460 1056 496 1050 q 407 1065 431 1061 q 368 1069 383 1069 q 342 1057 346 1069 q 338 1017 338 1044 l 199 1017 z "},"Ő":{"ha":965,"x_min":58,"x_max":907,"o":"m 482 -11 q 276 4 356 -11 q 151 53 196 19 q 87 143 107 86 q 63 283 67 200 q 58 478 58 365 q 63 673 58 590 q 87 813 67 756 q 151 903 107 869 q 276 951 196 936 q 482 967 356 967 q 688 951 608 967 q 813 903 768 936 q 878 813 858 869 q 902 673 897 756 q 907 478 907 590 q 902 283 907 365 q 878 143 897 200 q 813 53 858 86 q 688 4 768 19 q 482 -11 608 -11 m 482 221 q 530 224 511 221 q 559 239 549 226 q 574 278 569 251 q 579 354 578 306 q 581 478 581 403 q 579 601 581 553 q 574 677 578 650 q 559 717 569 704 q 530 732 549 729 q 482 735 511 735 q 434 732 453 735 q 406 717 415 729 q 391 677 396 704 q 385 601 386 650 q 385 478 385 553 q 385 354 385 403 q 391 278 386 306 q 406 239 396 251 q 434 224 415 226 q 482 221 453 221 m 264 1032 l 264 1038 l 357 1206 l 579 1206 l 579 1200 l 429 1032 l 264 1032 m 526 1032 l 526 1038 l 622 1206 l 843 1206 l 843 1200 l 694 1032 l 526 1032 z "},"Ȏ":{"ha":965,"x_min":58,"x_max":907,"o":"m 482 -11 q 276 4 356 -11 q 151 53 196 19 q 87 143 107 86 q 63 283 67 200 q 58 478 58 365 q 63 673 58 590 q 87 813 67 756 q 151 903 107 869 q 276 951 196 936 q 482 967 356 967 q 688 951 608 967 q 813 903 768 936 q 878 813 858 869 q 902 673 897 756 q 907 478 907 590 q 902 283 907 365 q 878 143 897 200 q 813 53 858 86 q 688 4 768 19 q 482 -11 608 -11 m 482 221 q 530 224 511 221 q 559 239 549 226 q 574 278 569 251 q 579 354 578 306 q 581 478 581 403 q 579 601 581 553 q 574 677 578 650 q 559 717 569 704 q 530 732 549 729 q 482 735 511 735 q 434 732 453 735 q 406 717 415 729 q 391 677 396 704 q 385 601 386 650 q 385 478 385 553 q 385 354 385 403 q 391 278 386 306 q 406 239 396 251 q 434 224 415 226 q 482 221 453 221 m 483 1243 q 599 1228 554 1243 q 667 1184 643 1213 q 699 1117 690 1156 q 707 1032 707 1078 l 553 1032 q 550 1065 553 1050 q 533 1090 547 1081 q 483 1099 518 1099 q 433 1090 449 1099 q 415 1065 418 1081 q 413 1032 413 1050 l 258 1032 q 267 1117 258 1078 q 300 1184 276 1156 q 368 1228 324 1213 q 483 1243 413 1243 z "},"Ō":{"ha":965,"x_min":58,"x_max":907,"o":"m 482 -11 q 276 4 356 -11 q 151 53 196 19 q 87 143 107 86 q 63 283 67 200 q 58 478 58 365 q 63 673 58 590 q 87 813 67 756 q 151 903 107 869 q 276 951 196 936 q 482 967 356 967 q 688 951 608 967 q 813 903 768 936 q 878 813 858 869 q 902 673 897 756 q 907 478 907 590 q 902 283 907 365 q 878 143 897 200 q 813 53 858 86 q 688 4 768 19 q 482 -11 608 -11 m 482 221 q 530 224 511 221 q 559 239 549 226 q 574 278 569 251 q 579 354 578 306 q 581 478 581 403 q 579 601 581 553 q 574 677 578 650 q 559 717 569 704 q 530 732 549 729 q 482 735 511 735 q 434 732 453 735 q 406 717 415 729 q 391 677 396 704 q 385 601 386 650 q 385 478 385 553 q 385 354 385 403 q 391 278 386 306 q 406 239 396 251 q 434 224 415 226 q 482 221 453 221 m 235 1047 l 235 1203 l 732 1203 l 732 1047 l 235 1047 z "},"Ǫ":{"ha":965,"x_min":58,"x_max":907,"o":"m 482 -11 q 276 4 356 -11 q 151 53 196 19 q 87 143 107 86 q 63 283 67 200 q 58 478 58 365 q 63 673 58 590 q 87 813 67 756 q 151 903 107 869 q 276 951 196 936 q 482 967 356 967 q 688 951 608 967 q 813 903 768 936 q 878 813 858 869 q 902 673 897 756 q 907 478 907 590 q 902 283 907 365 q 878 143 897 200 q 813 53 858 86 q 688 4 768 19 q 482 -11 608 -11 m 482 221 q 530 224 511 221 q 559 239 549 226 q 574 278 569 251 q 579 354 578 306 q 581 478 581 403 q 579 601 581 553 q 574 677 578 650 q 559 717 569 704 q 530 732 549 729 q 482 735 511 735 q 434 732 453 735 q 406 717 415 729 q 391 677 396 704 q 385 601 386 650 q 385 478 385 553 q 385 354 385 403 q 391 278 386 306 q 406 239 396 251 q 434 224 415 226 q 482 221 453 221 m 492 -278 q 369 -260 414 -278 q 308 -215 325 -243 q 290 -154 290 -186 q 319 -67 290 -111 q 394 14 349 -24 l 611 0 q 573 -25 593 -8 q 538 -60 553 -42 q 524 -97 524 -79 q 536 -130 524 -117 q 589 -143 549 -143 q 597 -143 592 -143 q 613 -142 603 -143 l 613 -272 q 554 -276 589 -274 q 492 -278 519 -278 z "},"Ø":{"ha":965,"x_min":58,"x_max":907,"o":"m 58 -76 l 665 1032 l 907 1032 l 299 -76 l 58 -76 m 482 -11 q 276 4 356 -11 q 151 53 196 19 q 87 143 107 86 q 63 283 67 200 q 58 478 58 365 q 63 673 58 590 q 87 813 67 756 q 151 903 107 869 q 276 951 196 936 q 482 967 356 967 q 688 951 608 967 q 813 903 768 936 q 878 813 858 869 q 902 673 897 756 q 907 478 907 590 q 902 283 907 365 q 878 143 897 200 q 813 53 858 86 q 688 4 768 19 q 482 -11 608 -11 m 482 221 q 530 224 511 221 q 559 239 549 226 q 574 278 569 251 q 579 354 578 306 q 581 478 581 403 q 579 601 581 553 q 574 677 578 650 q 559 717 569 704 q 530 732 549 729 q 482 735 511 735 q 434 732 453 735 q 406 717 415 729 q 391 677 396 704 q 385 601 386 650 q 385 478 385 553 q 385 354 385 403 q 391 278 386 306 q 406 239 396 251 q 434 224 415 226 q 482 221 453 221 z "},"Ǿ":{"ha":965,"x_min":58,"x_max":907,"o":"m 58 -76 l 665 1032 l 907 1032 l 299 -76 l 58 -76 m 482 -11 q 276 4 356 -11 q 151 53 196 19 q 87 143 107 86 q 63 283 67 200 q 58 478 58 365 q 63 673 58 590 q 87 813 67 756 q 151 903 107 869 q 276 951 196 936 q 482 967 356 967 q 688 951 608 967 q 813 903 768 936 q 878 813 858 869 q 902 673 897 756 q 907 478 907 590 q 902 283 907 365 q 878 143 897 200 q 813 53 858 86 q 688 4 768 19 q 482 -11 608 -11 m 482 221 q 530 224 511 221 q 559 239 549 226 q 574 278 569 251 q 579 354 578 306 q 581 478 581 403 q 579 601 581 553 q 574 677 578 650 q 559 717 569 704 q 530 732 549 729 q 482 735 511 735 q 434 732 453 735 q 406 717 415 729 q 391 677 396 704 q 385 601 386 650 q 385 478 385 553 q 385 354 385 403 q 391 278 386 306 q 406 239 396 251 q 434 224 415 226 q 482 221 453 221 m 336 1032 l 336 1039 l 456 1238 l 731 1238 l 731 1231 l 542 1032 l 336 1032 z "},"Õ":{"ha":965,"x_min":58,"x_max":907,"o":"m 482 -11 q 276 4 356 -11 q 151 53 196 19 q 87 143 107 86 q 63 283 67 200 q 58 478 58 365 q 63 673 58 590 q 87 813 67 756 q 151 903 107 869 q 276 951 196 936 q 482 967 356 967 q 688 951 608 967 q 813 903 768 936 q 878 813 858 869 q 902 673 897 756 q 907 478 907 590 q 902 283 907 365 q 878 143 897 200 q 813 53 858 86 q 688 4 768 19 q 482 -11 608 -11 m 482 221 q 530 224 511 221 q 559 239 549 226 q 574 278 569 251 q 579 354 578 306 q 581 478 581 403 q 579 601 581 553 q 574 677 578 650 q 559 717 569 704 q 530 732 549 729 q 482 735 511 735 q 434 732 453 735 q 406 717 415 729 q 391 677 396 704 q 385 601 386 650 q 385 478 385 553 q 385 354 385 403 q 391 278 386 306 q 406 239 396 251 q 434 224 415 226 q 482 221 453 221 m 199 1017 q 205 1133 199 1085 q 241 1208 211 1182 q 343 1235 271 1235 q 428 1227 385 1235 q 506 1213 471 1219 q 558 1203 535 1207 q 597 1199 582 1199 q 624 1210 621 1199 q 628 1251 628 1222 l 767 1251 q 760 1135 767 1185 q 724 1060 754 1086 q 622 1033 694 1033 q 538 1042 581 1033 q 460 1056 496 1050 q 407 1065 431 1061 q 368 1069 383 1069 q 342 1057 346 1069 q 338 1017 338 1044 l 199 1017 z "},"Ȭ":{"ha":965,"x_min":58,"x_max":907,"o":"m 482 -11 q 276 4 356 -11 q 151 53 196 19 q 87 143 107 86 q 63 283 67 200 q 58 478 58 365 q 63 673 58 590 q 87 813 67 756 q 151 903 107 869 q 276 951 196 936 q 482 967 356 967 q 688 951 608 967 q 813 903 768 936 q 878 813 858 869 q 902 673 897 756 q 907 478 907 590 q 902 283 907 365 q 878 143 897 200 q 813 53 858 86 q 688 4 768 19 q 482 -11 608 -11 m 482 221 q 530 224 511 221 q 559 239 549 226 q 574 278 569 251 q 579 354 578 306 q 581 478 581 403 q 579 601 581 553 q 574 677 578 650 q 559 717 569 704 q 530 732 549 729 q 482 735 511 735 q 434 732 453 735 q 406 717 415 729 q 391 677 396 704 q 385 601 386 650 q 385 478 385 553 q 385 354 385 403 q 391 278 386 306 q 406 239 396 251 q 434 224 415 226 q 482 221 453 221 m 199 1017 q 205 1133 199 1085 q 241 1208 211 1182 q 343 1235 271 1235 q 428 1227 385 1235 q 506 1213 471 1219 q 558 1203 535 1207 q 597 1199 582 1199 q 624 1210 621 1199 q 628 1251 628 1222 l 767 1251 q 760 1135 767 1185 q 724 1060 754 1086 q 622 1033 694 1033 q 538 1042 581 1033 q 460 1056 496 1050 q 407 1065 431 1061 q 368 1069 383 1069 q 342 1057 346 1069 q 338 1017 338 1044 l 199 1017 m 235 1294 l 235 1450 l 732 1450 l 732 1294 l 235 1294 z "},"Œ":{"ha":1353,"x_min":58,"x_max":1286,"o":"m 482 0 q 276 15 356 0 q 151 63 196 29 q 87 151 107 96 q 63 287 67 206 q 58 478 58 368 q 63 669 58 588 q 87 805 67 750 q 151 893 107 860 q 276 941 196 926 q 482 956 356 956 l 1286 956 l 1286 724 l 982 724 q 924 726 953 724 q 883 735 896 729 q 893 693 889 715 q 901 647 897 671 q 906 596 904 622 l 1221 596 l 1221 369 l 906 369 q 903 315 906 342 q 897 265 901 289 q 883 221 892 242 q 917 228 892 224 q 982 232 943 232 l 1286 232 l 1286 0 l 482 0 m 482 232 q 530 235 511 232 q 559 249 549 238 q 574 288 569 261 q 579 360 578 314 q 581 478 581 406 q 579 596 581 550 q 574 668 578 642 q 559 706 569 694 q 530 721 549 718 q 482 724 511 724 q 434 721 453 724 q 406 706 415 718 q 391 668 396 694 q 385 596 386 642 q 385 478 385 550 q 385 360 385 406 q 391 288 386 314 q 406 249 396 261 q 434 235 415 238 q 482 232 453 232 z "},"P":{"ha":883,"x_min":71,"x_max":854,"o":"m 71 0 l 71 956 l 561 956 q 715 935 657 956 q 803 874 772 915 q 844 769 833 832 q 854 622 854 707 q 845 485 854 546 q 807 380 836 424 q 719 313 778 336 q 561 290 660 290 l 396 290 l 396 0 l 71 0 m 396 517 l 439 517 q 487 519 469 517 q 513 533 504 522 q 525 564 522 543 q 528 622 528 585 q 525 682 528 660 q 513 714 522 704 q 487 726 504 724 q 439 729 469 729 l 396 729 l 396 517 z "},"Þ":{"ha":883,"x_min":72,"x_max":854,"o":"m 72 0 l 72 956 l 396 956 l 396 822 l 561 822 q 715 802 657 822 q 803 740 772 782 q 844 636 833 699 q 854 489 854 574 q 845 351 854 413 q 807 247 836 290 q 719 180 778 203 q 561 157 660 157 l 396 157 l 396 0 l 72 0 m 396 383 l 439 383 q 487 386 469 383 q 513 399 504 389 q 525 431 522 410 q 528 489 528 451 q 525 549 528 526 q 513 581 522 571 q 487 593 504 590 q 439 596 469 596 l 396 596 l 396 383 z "},"Q":{"ha":965,"x_min":58,"x_max":972,"o":"m 642 -160 l 339 303 l 660 303 l 972 -147 l 972 -160 l 642 -160 m 482 -11 q 276 4 356 -11 q 151 53 196 19 q 87 143 107 86 q 63 283 67 200 q 58 478 58 365 q 63 673 58 590 q 87 813 67 756 q 151 903 107 869 q 276 951 196 936 q 482 967 356 967 q 688 951 608 967 q 813 903 768 936 q 878 813 858 869 q 902 673 897 756 q 907 478 907 590 q 902 283 907 365 q 878 143 897 200 q 813 53 858 86 q 688 4 768 19 q 482 -11 608 -11 m 482 221 q 530 224 511 221 q 559 239 549 226 q 574 278 569 251 q 579 354 578 306 q 581 478 581 403 q 579 601 581 553 q 574 677 578 650 q 559 717 569 704 q 530 732 549 729 q 482 735 511 735 q 434 732 453 735 q 406 717 415 729 q 391 677 396 704 q 385 601 386 650 q 385 478 385 553 q 385 354 385 403 q 391 278 386 306 q 406 239 396 251 q 434 224 415 226 q 482 221 453 221 z "},"R":{"ha":924,"x_min":71,"x_max":890,"o":"m 71 0 l 71 956 l 574 956 q 728 936 669 956 q 818 877 788 917 q 859 777 849 838 q 869 636 869 717 q 862 517 869 571 q 831 424 854 464 q 760 357 807 383 l 890 0 l 557 0 l 443 378 l 524 332 q 495 320 510 322 q 457 318 481 318 l 396 318 l 396 0 l 71 0 m 396 533 l 454 533 q 501 535 483 533 q 529 547 519 538 q 542 576 539 556 q 544 631 544 596 q 543 683 544 664 q 533 713 542 703 q 506 726 525 722 q 453 729 488 729 l 396 729 l 396 533 z "},"Ŕ":{"ha":924,"x_min":71,"x_max":890,"o":"m 71 0 l 71 956 l 574 956 q 728 936 669 956 q 818 877 788 917 q 859 777 849 838 q 869 636 869 717 q 862 517 869 571 q 831 424 854 464 q 760 357 807 383 l 890 0 l 557 0 l 443 378 l 524 332 q 495 320 510 322 q 457 318 481 318 l 396 318 l 396 0 l 71 0 m 396 533 l 454 533 q 501 535 483 533 q 529 547 519 538 q 542 576 539 556 q 544 631 544 596 q 543 683 544 664 q 533 713 542 703 q 506 726 525 722 q 453 729 488 729 l 396 729 l 396 533 m 315 1032 l 315 1039 l 435 1238 l 710 1238 l 710 1231 l 521 1032 l 315 1032 z "},"Ř":{"ha":924,"x_min":71,"x_max":890,"o":"m 71 0 l 71 956 l 574 956 q 728 936 669 956 q 818 877 788 917 q 859 777 849 838 q 869 636 869 717 q 862 517 869 571 q 831 424 854 464 q 760 357 807 383 l 890 0 l 557 0 l 443 378 l 524 332 q 495 320 510 322 q 457 318 481 318 l 396 318 l 396 0 l 71 0 m 396 533 l 454 533 q 501 535 483 533 q 529 547 519 538 q 542 576 539 556 q 544 631 544 596 q 543 683 544 664 q 533 713 542 703 q 506 726 525 722 q 453 729 488 729 l 396 729 l 396 533 m 331 1032 l 207 1226 l 207 1238 l 393 1238 l 465 1138 l 532 1238 l 718 1238 l 718 1226 l 593 1032 l 331 1032 z "},"Ŗ":{"ha":924,"x_min":71,"x_max":890,"o":"m 71 0 l 71 956 l 574 956 q 728 936 669 956 q 818 877 788 917 q 859 777 849 838 q 869 636 869 717 q 862 517 869 571 q 831 424 854 464 q 760 357 807 383 l 890 0 l 557 0 l 443 378 l 524 332 q 495 320 510 322 q 457 318 481 318 l 396 318 l 396 0 l 71 0 m 396 533 l 454 533 q 501 535 483 533 q 529 547 519 538 q 542 576 539 556 q 544 631 544 596 q 543 683 544 664 q 533 713 542 703 q 506 726 525 722 q 453 729 488 729 l 396 729 l 396 533 m 319 -412 l 319 -312 q 384 -308 364 -312 q 410 -292 404 -303 q 417 -262 417 -281 l 417 -254 l 319 -254 l 319 -90 l 604 -90 l 604 -194 q 595 -301 604 -258 q 558 -367 586 -343 q 472 -402 529 -392 q 319 -412 415 -412 z "},"Ȑ":{"ha":924,"x_min":71,"x_max":890,"o":"m 71 0 l 71 956 l 574 956 q 728 936 669 956 q 818 877 788 917 q 859 777 849 838 q 869 636 869 717 q 862 517 869 571 q 831 424 854 464 q 760 357 807 383 l 890 0 l 557 0 l 443 378 l 524 332 q 495 320 510 322 q 457 318 481 318 l 396 318 l 396 0 l 71 0 m 396 533 l 454 533 q 501 535 483 533 q 529 547 519 538 q 542 576 539 556 q 544 631 544 596 q 543 683 544 664 q 533 713 542 703 q 506 726 525 722 q 453 729 488 729 l 396 729 l 396 533 m 692 1032 l 526 1032 l 376 1200 l 376 1206 l 599 1206 l 692 1038 l 692 1032 m 429 1032 l 261 1032 l 113 1200 l 113 1206 l 333 1206 l 429 1038 l 429 1032 z "},"Ṛ":{"ha":924,"x_min":71,"x_max":890,"o":"m 71 0 l 71 956 l 574 956 q 728 936 669 956 q 818 877 788 917 q 859 777 849 838 q 869 636 869 717 q 862 517 869 571 q 831 424 854 464 q 760 357 807 383 l 890 0 l 557 0 l 443 378 l 524 332 q 495 320 510 322 q 457 318 481 318 l 396 318 l 396 0 l 71 0 m 396 533 l 454 533 q 501 535 483 533 q 529 547 519 538 q 542 576 539 556 q 544 631 544 596 q 543 683 544 664 q 533 713 542 703 q 506 726 525 722 q 453 729 488 729 l 396 729 l 396 533 m 349 -324 l 349 -118 l 576 -118 l 576 -324 l 349 -324 z "},"Ȓ":{"ha":924,"x_min":71,"x_max":890,"o":"m 71 0 l 71 956 l 574 956 q 728 936 669 956 q 818 877 788 917 q 859 777 849 838 q 869 636 869 717 q 862 517 869 571 q 831 424 854 464 q 760 357 807 383 l 890 0 l 557 0 l 443 378 l 524 332 q 495 320 510 322 q 457 318 481 318 l 396 318 l 396 0 l 71 0 m 396 533 l 454 533 q 501 535 483 533 q 529 547 519 538 q 542 576 539 556 q 544 631 544 596 q 543 683 544 664 q 533 713 542 703 q 506 726 525 722 q 453 729 488 729 l 396 729 l 396 533 m 463 1243 q 578 1228 533 1243 q 646 1184 622 1213 q 678 1117 669 1156 q 686 1032 686 1078 l 532 1032 q 529 1065 532 1050 q 512 1090 526 1081 q 463 1099 497 1099 q 413 1090 428 1099 q 394 1065 397 1081 q 392 1032 392 1050 l 238 1032 q 247 1117 238 1078 q 279 1184 256 1156 q 347 1228 303 1213 q 463 1243 392 1243 z "},"S":{"ha":846,"x_min":46,"x_max":800,"o":"m 444 -11 q 317 -8 385 -11 q 185 1 249 -4 q 74 14 121 7 l 74 235 q 174 227 125 231 q 267 222 224 224 q 342 221 311 221 q 425 223 397 221 q 463 232 453 225 q 472 244 469 238 q 476 261 475 251 q 476 283 476 271 q 472 315 476 304 q 456 333 468 326 q 418 343 443 339 q 351 353 393 347 l 189 374 q 118 402 146 379 q 74 463 90 425 q 52 555 58 501 q 46 674 46 608 q 75 826 46 768 q 156 914 104 883 q 276 956 208 944 q 424 967 344 967 q 544 963 482 967 q 660 952 606 958 q 751 938 715 946 l 751 719 q 669 727 717 724 q 571 733 621 731 q 476 735 521 735 q 422 733 443 735 q 390 725 401 732 q 374 708 379 718 q 369 682 369 697 q 374 646 369 658 q 394 628 378 633 q 447 618 411 624 l 593 600 q 661 586 629 596 q 721 556 693 576 q 769 496 749 536 q 785 453 779 479 q 796 391 792 426 q 800 310 800 356 q 783 164 800 222 q 733 71 765 106 q 656 18 700 36 q 558 -6 611 0 q 444 -11 504 -11 z "},"Ś":{"ha":846,"x_min":46,"x_max":800,"o":"m 444 -11 q 317 -8 385 -11 q 185 1 249 -4 q 74 14 121 7 l 74 235 q 174 227 125 231 q 267 222 224 224 q 342 221 311 221 q 425 223 397 221 q 463 232 453 225 q 472 244 469 238 q 476 261 475 251 q 476 283 476 271 q 472 315 476 304 q 456 333 468 326 q 418 343 443 339 q 351 353 393 347 l 189 374 q 118 402 146 379 q 74 463 90 425 q 52 555 58 501 q 46 674 46 608 q 75 826 46 768 q 156 914 104 883 q 276 956 208 944 q 424 967 344 967 q 544 963 482 967 q 660 952 606 958 q 751 938 715 946 l 751 719 q 669 727 717 724 q 571 733 621 731 q 476 735 521 735 q 422 733 443 735 q 390 725 401 732 q 374 708 379 718 q 369 682 369 697 q 374 646 369 658 q 394 628 378 633 q 447 618 411 624 l 593 600 q 661 586 629 596 q 721 556 693 576 q 769 496 749 536 q 785 453 779 479 q 796 391 792 426 q 800 310 800 356 q 783 164 800 222 q 733 71 765 106 q 656 18 700 36 q 558 -6 611 0 q 444 -11 504 -11 m 276 1032 l 276 1039 l 396 1238 l 671 1238 l 671 1231 l 482 1032 l 276 1032 z "},"Ꞌ":{"ha":367,"x_min":56,"x_max":311,"o":"m 56 363 l 56 956 l 311 956 l 311 725 l 253 363 l 56 363 z "},"Š":{"ha":846,"x_min":46,"x_max":800,"o":"m 444 -11 q 317 -8 385 -11 q 185 1 249 -4 q 74 14 121 7 l 74 235 q 174 227 125 231 q 267 222 224 224 q 342 221 311 221 q 425 223 397 221 q 463 232 453 225 q 472 244 469 238 q 476 261 475 251 q 476 283 476 271 q 472 315 476 304 q 456 333 468 326 q 418 343 443 339 q 351 353 393 347 l 189 374 q 118 402 146 379 q 74 463 90 425 q 52 555 58 501 q 46 674 46 608 q 75 826 46 768 q 156 914 104 883 q 276 956 208 944 q 424 967 344 967 q 544 963 482 967 q 660 952 606 958 q 751 938 715 946 l 751 719 q 669 727 717 724 q 571 733 621 731 q 476 735 521 735 q 422 733 443 735 q 390 725 401 732 q 374 708 379 718 q 369 682 369 697 q 374 646 369 658 q 394 628 378 633 q 447 618 411 624 l 593 600 q 661 586 629 596 q 721 556 693 576 q 769 496 749 536 q 785 453 779 479 q 796 391 792 426 q 800 310 800 356 q 783 164 800 222 q 733 71 765 106 q 656 18 700 36 q 558 -6 611 0 q 444 -11 504 -11 m 292 1032 l 168 1226 l 168 1238 l 354 1238 l 426 1138 l 493 1238 l 679 1238 l 679 1226 l 554 1032 l 292 1032 z "},"Ş":{"ha":846,"x_min":46,"x_max":800,"o":"m 444 -11 q 317 -8 385 -11 q 185 1 249 -4 q 74 14 121 7 l 74 235 q 174 227 125 231 q 267 222 224 224 q 342 221 311 221 q 425 223 397 221 q 463 232 453 225 q 472 244 469 238 q 476 261 475 251 q 476 283 476 271 q 472 315 476 304 q 456 333 468 326 q 418 343 443 339 q 351 353 393 347 l 189 374 q 118 402 146 379 q 74 463 90 425 q 52 555 58 501 q 46 674 46 608 q 75 826 46 768 q 156 914 104 883 q 276 956 208 944 q 424 967 344 967 q 544 963 482 967 q 660 952 606 958 q 751 938 715 946 l 751 719 q 669 727 717 724 q 571 733 621 731 q 476 735 521 735 q 422 733 443 735 q 390 725 401 732 q 374 708 379 718 q 369 682 369 697 q 374 646 369 658 q 394 628 378 633 q 447 618 411 624 l 593 600 q 661 586 629 596 q 721 556 693 576 q 769 496 749 536 q 785 453 779 479 q 796 391 792 426 q 800 310 800 356 q 783 164 800 222 q 733 71 765 106 q 656 18 700 36 q 558 -6 611 0 q 444 -11 504 -11 m 221 -264 l 221 -257 l 342 25 l 528 25 l 528 18 l 481 -264 l 221 -264 z "},"Ŝ":{"ha":846,"x_min":46,"x_max":800,"o":"m 444 -11 q 317 -8 385 -11 q 185 1 249 -4 q 74 14 121 7 l 74 235 q 174 227 125 231 q 267 222 224 224 q 342 221 311 221 q 425 223 397 221 q 463 232 453 225 q 472 244 469 238 q 476 261 475 251 q 476 283 476 271 q 472 315 476 304 q 456 333 468 326 q 418 343 443 339 q 351 353 393 347 l 189 374 q 118 402 146 379 q 74 463 90 425 q 52 555 58 501 q 46 674 46 608 q 75 826 46 768 q 156 914 104 883 q 276 956 208 944 q 424 967 344 967 q 544 963 482 967 q 660 952 606 958 q 751 938 715 946 l 751 719 q 669 727 717 724 q 571 733 621 731 q 476 735 521 735 q 422 733 443 735 q 390 725 401 732 q 374 708 379 718 q 369 682 369 697 q 374 646 369 658 q 394 628 378 633 q 447 618 411 624 l 593 600 q 661 586 629 596 q 721 556 693 576 q 769 496 749 536 q 785 453 779 479 q 796 391 792 426 q 800 310 800 356 q 783 164 800 222 q 733 71 765 106 q 656 18 700 36 q 558 -6 611 0 q 444 -11 504 -11 m 168 1032 l 168 1043 l 292 1238 l 554 1238 l 679 1043 l 679 1032 l 493 1032 l 422 1132 l 354 1032 l 168 1032 z "},"Ș":{"ha":846,"x_min":46,"x_max":800,"o":"m 444 -11 q 317 -8 385 -11 q 185 1 249 -4 q 74 14 121 7 l 74 235 q 174 227 125 231 q 267 222 224 224 q 342 221 311 221 q 425 223 397 221 q 463 232 453 225 q 472 244 469 238 q 476 261 475 251 q 476 283 476 271 q 472 315 476 304 q 456 333 468 326 q 418 343 443 339 q 351 353 393 347 l 189 374 q 118 402 146 379 q 74 463 90 425 q 52 555 58 501 q 46 674 46 608 q 75 826 46 768 q 156 914 104 883 q 276 956 208 944 q 424 967 344 967 q 544 963 482 967 q 660 952 606 958 q 751 938 715 946 l 751 719 q 669 727 717 724 q 571 733 621 731 q 476 735 521 735 q 422 733 443 735 q 390 725 401 732 q 374 708 379 718 q 369 682 369 697 q 374 646 369 658 q 394 628 378 633 q 447 618 411 624 l 593 600 q 661 586 629 596 q 721 556 693 576 q 769 496 749 536 q 785 453 779 479 q 796 391 792 426 q 800 310 800 356 q 783 164 800 222 q 733 71 765 106 q 656 18 700 36 q 558 -6 611 0 q 444 -11 504 -11 m 281 -412 l 281 -312 q 345 -308 325 -312 q 372 -292 365 -303 q 378 -262 378 -281 l 378 -254 l 281 -254 l 281 -90 l 565 -90 l 565 -194 q 556 -301 565 -258 q 519 -367 547 -343 q 433 -402 490 -392 q 281 -412 376 -412 z "},"Ṣ":{"ha":846,"x_min":46,"x_max":800,"o":"m 444 -11 q 317 -8 385 -11 q 185 1 249 -4 q 74 14 121 7 l 74 235 q 174 227 125 231 q 267 222 224 224 q 342 221 311 221 q 425 223 397 221 q 463 232 453 225 q 472 244 469 238 q 476 261 475 251 q 476 283 476 271 q 472 315 476 304 q 456 333 468 326 q 418 343 443 339 q 351 353 393 347 l 189 374 q 118 402 146 379 q 74 463 90 425 q 52 555 58 501 q 46 674 46 608 q 75 826 46 768 q 156 914 104 883 q 276 956 208 944 q 424 967 344 967 q 544 963 482 967 q 660 952 606 958 q 751 938 715 946 l 751 719 q 669 727 717 724 q 571 733 621 731 q 476 735 521 735 q 422 733 443 735 q 390 725 401 732 q 374 708 379 718 q 369 682 369 697 q 374 646 369 658 q 394 628 378 633 q 447 618 411 624 l 593 600 q 661 586 629 596 q 721 556 693 576 q 769 496 749 536 q 785 453 779 479 q 796 391 792 426 q 800 310 800 356 q 783 164 800 222 q 733 71 765 106 q 656 18 700 36 q 558 -6 611 0 q 444 -11 504 -11 m 310 -324 l 310 -118 l 538 -118 l 538 -324 l 310 -324 z "},"ẞ":{"ha":1097,"x_min":71,"x_max":1046,"o":"m 671 -11 q 570 -2 626 -11 q 472 21 514 7 l 472 238 q 547 226 508 231 q 611 221 586 221 q 682 224 658 221 q 713 242 706 228 q 721 290 721 257 q 713 344 721 328 q 683 365 706 361 q 619 369 661 369 l 499 369 l 499 567 l 738 828 l 781 713 q 682 728 731 724 q 597 734 633 733 q 547 735 561 735 q 473 729 501 735 q 428 708 444 724 q 406 660 413 692 q 397 578 399 629 q 396 450 396 526 l 396 0 l 71 0 l 71 492 q 78 687 71 606 q 110 822 86 768 q 181 908 135 876 q 304 953 228 940 q 494 967 381 967 q 673 959 585 967 q 844 940 761 951 q 999 918 926 929 l 999 721 l 728 424 l 639 529 l 660 529 q 875 510 789 529 q 1003 433 961 490 q 1046 256 1046 375 q 1030 144 1046 193 q 973 60 1014 94 q 859 7 932 25 q 671 -11 786 -11 z "},"Ə":{"ha":965,"x_min":58,"x_max":893,"o":"m 468 -11 q 269 4 346 -11 q 149 53 192 19 q 86 143 106 86 q 63 283 67 200 q 58 478 58 365 l 58 596 l 565 596 q 556 658 563 633 q 537 699 550 683 q 501 722 524 714 q 443 732 478 729 q 358 735 408 735 q 264 732 317 735 q 171 724 211 729 l 171 944 q 247 956 203 951 q 341 964 292 961 q 435 967 390 967 q 640 951 557 967 q 773 902 722 936 q 849 812 824 868 q 884 673 875 756 q 893 478 893 590 q 888 283 893 365 q 864 143 883 200 q 799 53 844 86 q 674 4 754 19 q 468 -11 594 -11 m 468 221 q 515 223 496 221 q 546 232 533 225 q 565 255 558 239 q 576 299 572 271 q 581 369 579 326 l 371 369 q 374 299 372 326 q 383 255 376 271 q 400 232 389 239 q 428 223 411 225 q 468 221 444 221 z "},"T":{"ha":829,"x_min":18,"x_max":811,"o":"m 251 0 l 251 711 l 18 711 l 18 956 l 811 956 l 811 711 l 576 711 l 576 0 l 251 0 z "},"Ŧ":{"ha":829,"x_min":18,"x_max":811,"o":"m 46 349 l 46 539 l 782 539 l 782 349 l 46 349 m 251 0 l 251 711 l 18 711 l 18 956 l 811 956 l 811 711 l 576 711 l 576 0 l 251 0 z "},"Ť":{"ha":829,"x_min":18,"x_max":811,"o":"m 251 0 l 251 711 l 18 711 l 18 956 l 811 956 l 811 711 l 576 711 l 576 0 l 251 0 m 283 1032 l 160 1226 l 160 1238 l 346 1238 l 418 1138 l 485 1238 l 671 1238 l 671 1226 l 546 1032 l 283 1032 z "},"Ţ":{"ha":829,"x_min":18,"x_max":811,"o":"m 251 0 l 251 711 l 18 711 l 18 956 l 811 956 l 811 711 l 576 711 l 576 0 l 251 0 m 213 -264 l 213 -257 l 333 25 l 519 25 l 519 18 l 472 -264 l 213 -264 z "},"Ț":{"ha":829,"x_min":18,"x_max":811,"o":"m 251 0 l 251 711 l 18 711 l 18 956 l 811 956 l 811 711 l 576 711 l 576 0 l 251 0 m 272 -412 l 272 -312 q 337 -308 317 -312 q 363 -292 357 -303 q 369 -262 369 -281 l 369 -254 l 272 -254 l 272 -90 l 557 -90 l 557 -194 q 548 -301 557 -258 q 510 -367 539 -343 q 425 -402 482 -392 q 272 -412 368 -412 z "},"Ṭ":{"ha":829,"x_min":18,"x_max":811,"o":"m 251 0 l 251 711 l 18 711 l 18 956 l 811 956 l 811 711 l 576 711 l 576 0 l 251 0 m 301 -324 l 301 -118 l 529 -118 l 529 -324 l 301 -324 z "},"U":{"ha":938,"x_min":71,"x_max":867,"o":"m 468 -11 q 275 3 350 -11 q 158 50 200 18 q 98 134 117 82 q 75 262 79 186 q 71 439 71 338 l 71 956 l 396 956 l 396 386 q 397 297 396 329 q 405 249 399 264 q 426 229 411 233 q 468 225 442 225 q 510 229 496 225 q 532 249 525 233 q 540 297 539 264 q 542 386 542 329 l 542 956 l 867 956 l 867 439 q 863 262 867 338 q 840 134 858 186 q 778 50 821 82 q 661 3 736 18 q 468 -11 586 -11 z "},"Ú":{"ha":938,"x_min":71,"x_max":867,"o":"m 468 -11 q 275 3 350 -11 q 158 50 200 18 q 98 134 117 82 q 75 262 79 186 q 71 439 71 338 l 71 956 l 396 956 l 396 386 q 397 297 396 329 q 405 249 399 264 q 426 229 411 233 q 468 225 442 225 q 510 229 496 225 q 532 249 525 233 q 540 297 539 264 q 542 386 542 329 l 542 956 l 867 956 l 867 439 q 863 262 867 338 q 840 134 858 186 q 778 50 821 82 q 661 3 736 18 q 468 -11 586 -11 m 322 1032 l 322 1039 l 442 1238 l 717 1238 l 717 1231 l 528 1032 l 322 1032 z "},"Ŭ":{"ha":938,"x_min":71,"x_max":867,"o":"m 468 -11 q 275 3 350 -11 q 158 50 200 18 q 98 134 117 82 q 75 262 79 186 q 71 439 71 338 l 71 956 l 396 956 l 396 386 q 397 297 396 329 q 405 249 399 264 q 426 229 411 233 q 468 225 442 225 q 510 229 496 225 q 532 249 525 233 q 540 297 539 264 q 542 386 542 329 l 542 956 l 867 956 l 867 439 q 863 262 867 338 q 840 134 858 186 q 778 50 821 82 q 661 3 736 18 q 468 -11 586 -11 m 468 1026 q 353 1042 397 1026 q 285 1085 308 1057 q 253 1153 261 1114 q 244 1238 244 1192 l 399 1238 q 401 1204 399 1219 q 419 1180 404 1189 q 468 1171 433 1171 q 519 1180 504 1171 q 536 1204 533 1189 q 539 1238 539 1219 l 693 1238 q 684 1153 693 1192 q 651 1085 675 1114 q 583 1042 628 1057 q 468 1026 539 1026 z "},"Ǔ":{"ha":938,"x_min":71,"x_max":867,"o":"m 468 -11 q 275 3 350 -11 q 158 50 200 18 q 98 134 117 82 q 75 262 79 186 q 71 439 71 338 l 71 956 l 396 956 l 396 386 q 397 297 396 329 q 405 249 399 264 q 426 229 411 233 q 468 225 442 225 q 510 229 496 225 q 532 249 525 233 q 540 297 539 264 q 542 386 542 329 l 542 956 l 867 956 l 867 439 q 863 262 867 338 q 840 134 858 186 q 778 50 821 82 q 661 3 736 18 q 468 -11 586 -11 m 338 1032 l 214 1226 l 214 1238 l 400 1238 l 472 1138 l 539 1238 l 725 1238 l 725 1226 l 600 1032 l 338 1032 z "},"Û":{"ha":938,"x_min":71,"x_max":867,"o":"m 468 -11 q 275 3 350 -11 q 158 50 200 18 q 98 134 117 82 q 75 262 79 186 q 71 439 71 338 l 71 956 l 396 956 l 396 386 q 397 297 396 329 q 405 249 399 264 q 426 229 411 233 q 468 225 442 225 q 510 229 496 225 q 532 249 525 233 q 540 297 539 264 q 542 386 542 329 l 542 956 l 867 956 l 867 439 q 863 262 867 338 q 840 134 858 186 q 778 50 821 82 q 661 3 736 18 q 468 -11 586 -11 m 214 1032 l 214 1043 l 338 1238 l 600 1238 l 725 1043 l 725 1032 l 539 1032 l 468 1132 l 400 1032 l 214 1032 z "},"Ȕ":{"ha":938,"x_min":71,"x_max":867,"o":"m 468 -11 q 275 3 350 -11 q 158 50 200 18 q 98 134 117 82 q 75 262 79 186 q 71 439 71 338 l 71 956 l 396 956 l 396 386 q 397 297 396 329 q 405 249 399 264 q 426 229 411 233 q 468 225 442 225 q 510 229 496 225 q 532 249 525 233 q 540 297 539 264 q 542 386 542 329 l 542 956 l 867 956 l 867 439 q 863 262 867 338 q 840 134 858 186 q 778 50 821 82 q 661 3 736 18 q 468 -11 586 -11 m 699 1032 l 533 1032 l 383 1200 l 383 1206 l 606 1206 l 699 1038 l 699 1032 m 436 1032 l 268 1032 l 119 1200 l 119 1206 l 340 1206 l 436 1038 l 436 1032 z "},"Ü":{"ha":938,"x_min":71,"x_max":867,"o":"m 468 -11 q 275 3 350 -11 q 158 50 200 18 q 98 134 117 82 q 75 262 79 186 q 71 439 71 338 l 71 956 l 396 956 l 396 386 q 397 297 396 329 q 405 249 399 264 q 426 229 411 233 q 468 225 442 225 q 510 229 496 225 q 532 249 525 233 q 540 297 539 264 q 542 386 542 329 l 542 956 l 867 956 l 867 439 q 863 262 867 338 q 840 134 858 186 q 778 50 821 82 q 661 3 736 18 q 468 -11 586 -11 m 199 1047 l 199 1219 l 428 1219 l 428 1047 l 199 1047 m 510 1047 l 510 1219 l 739 1219 l 739 1047 l 510 1047 z "},"Ǘ":{"ha":938,"x_min":71,"x_max":867,"o":"m 468 -11 q 275 3 350 -11 q 158 50 200 18 q 98 134 117 82 q 75 262 79 186 q 71 439 71 338 l 71 956 l 396 956 l 396 386 q 397 297 396 329 q 405 249 399 264 q 426 229 411 233 q 468 225 442 225 q 510 229 496 225 q 532 249 525 233 q 540 297 539 264 q 542 386 542 329 l 542 956 l 867 956 l 867 439 q 863 262 867 338 q 840 134 858 186 q 778 50 821 82 q 661 3 736 18 q 468 -11 586 -11 m 199 1047 l 199 1219 l 428 1219 l 428 1047 l 199 1047 m 510 1047 l 510 1219 l 739 1219 l 739 1047 l 510 1047 m 322 1282 l 322 1289 l 442 1488 l 717 1488 l 717 1481 l 528 1282 l 322 1282 z "},"Ǚ":{"ha":938,"x_min":71,"x_max":867,"o":"m 468 -11 q 275 3 350 -11 q 158 50 200 18 q 98 134 117 82 q 75 262 79 186 q 71 439 71 338 l 71 956 l 396 956 l 396 386 q 397 297 396 329 q 405 249 399 264 q 426 229 411 233 q 468 225 442 225 q 510 229 496 225 q 532 249 525 233 q 540 297 539 264 q 542 386 542 329 l 542 956 l 867 956 l 867 439 q 863 262 867 338 q 840 134 858 186 q 778 50 821 82 q 661 3 736 18 q 468 -11 586 -11 m 199 1047 l 199 1219 l 428 1219 l 428 1047 l 199 1047 m 510 1047 l 510 1219 l 739 1219 l 739 1047 l 510 1047 m 338 1282 l 214 1476 l 214 1488 l 400 1488 l 472 1388 l 539 1488 l 725 1488 l 725 1476 l 600 1282 l 338 1282 z "},"Ǜ":{"ha":938,"x_min":71,"x_max":867,"o":"m 468 -11 q 275 3 350 -11 q 158 50 200 18 q 98 134 117 82 q 75 262 79 186 q 71 439 71 338 l 71 956 l 396 956 l 396 386 q 397 297 396 329 q 405 249 399 264 q 426 229 411 233 q 468 225 442 225 q 510 229 496 225 q 532 249 525 233 q 540 297 539 264 q 542 386 542 329 l 542 956 l 867 956 l 867 439 q 863 262 867 338 q 840 134 858 186 q 778 50 821 82 q 661 3 736 18 q 468 -11 586 -11 m 199 1047 l 199 1219 l 428 1219 l 428 1047 l 199 1047 m 510 1047 l 510 1219 l 739 1219 l 739 1047 l 510 1047 m 360 1282 l 171 1481 l 171 1488 l 446 1488 l 565 1289 l 565 1282 l 360 1282 z "},"Ǖ":{"ha":938,"x_min":71,"x_max":867,"o":"m 468 -11 q 275 3 350 -11 q 158 50 200 18 q 98 134 117 82 q 75 262 79 186 q 71 439 71 338 l 71 956 l 396 956 l 396 386 q 397 297 396 329 q 405 249 399 264 q 426 229 411 233 q 468 225 442 225 q 510 229 496 225 q 532 249 525 233 q 540 297 539 264 q 542 386 542 329 l 542 956 l 867 956 l 867 439 q 863 262 867 338 q 840 134 858 186 q 778 50 821 82 q 661 3 736 18 q 468 -11 586 -11 m 199 1047 l 199 1219 l 428 1219 l 428 1047 l 199 1047 m 510 1047 l 510 1219 l 739 1219 l 739 1047 l 510 1047 m 221 1297 l 221 1453 l 718 1453 l 718 1297 l 221 1297 z "},"Ụ":{"ha":938,"x_min":71,"x_max":867,"o":"m 468 -11 q 275 3 350 -11 q 158 50 200 18 q 98 134 117 82 q 75 262 79 186 q 71 439 71 338 l 71 956 l 396 956 l 396 386 q 397 297 396 329 q 405 249 399 264 q 426 229 411 233 q 468 225 442 225 q 510 229 496 225 q 532 249 525 233 q 540 297 539 264 q 542 386 542 329 l 542 956 l 867 956 l 867 439 q 863 262 867 338 q 840 134 858 186 q 778 50 821 82 q 661 3 736 18 q 468 -11 586 -11 m 356 -324 l 356 -118 l 583 -118 l 583 -324 l 356 -324 z "},"Ù":{"ha":938,"x_min":71,"x_max":867,"o":"m 468 -11 q 275 3 350 -11 q 158 50 200 18 q 98 134 117 82 q 75 262 79 186 q 71 439 71 338 l 71 956 l 396 956 l 396 386 q 397 297 396 329 q 405 249 399 264 q 426 229 411 233 q 468 225 442 225 q 510 229 496 225 q 532 249 525 233 q 540 297 539 264 q 542 386 542 329 l 542 956 l 867 956 l 867 439 q 863 262 867 338 q 840 134 858 186 q 778 50 821 82 q 661 3 736 18 q 468 -11 586 -11 m 360 1032 l 171 1231 l 171 1238 l 446 1238 l 565 1039 l 565 1032 l 360 1032 z "},"Ủ":{"ha":938,"x_min":71,"x_max":867,"o":"m 468 -11 q 275 3 350 -11 q 158 50 200 18 q 98 134 117 82 q 75 262 79 186 q 71 439 71 338 l 71 956 l 396 956 l 396 386 q 397 297 396 329 q 405 249 399 264 q 426 229 411 233 q 468 225 442 225 q 510 229 496 225 q 532 249 525 233 q 540 297 539 264 q 542 386 542 329 l 542 956 l 867 956 l 867 439 q 863 262 867 338 q 840 134 858 186 q 778 50 821 82 q 661 3 736 18 q 468 -11 586 -11 m 369 1026 l 369 1029 q 375 1081 369 1061 q 396 1113 381 1101 q 440 1132 411 1125 l 461 1138 q 485 1145 478 1142 q 496 1155 493 1149 q 499 1171 499 1161 q 494 1194 499 1188 q 474 1203 490 1201 q 425 1206 458 1206 q 379 1204 407 1206 q 324 1201 351 1203 q 279 1197 296 1200 l 279 1324 q 371 1335 317 1331 q 471 1340 425 1340 q 575 1333 528 1340 q 651 1294 622 1326 q 681 1189 681 1263 q 672 1128 681 1151 q 640 1092 664 1106 q 572 1065 617 1078 l 558 1061 q 534 1052 543 1057 q 522 1041 525 1047 q 519 1026 519 1035 l 369 1026 z "},"Ư":{"ha":938,"x_min":71,"x_max":1007,"o":"m 686 856 l 686 956 l 722 956 q 803 976 788 956 q 819 1047 819 996 l 819 1078 l 1007 1078 l 1007 1060 q 998 960 1007 1000 q 960 898 989 921 q 875 865 932 875 q 722 856 818 856 l 686 856 m 468 -11 q 275 3 350 -11 q 158 50 200 18 q 98 134 117 82 q 75 262 79 186 q 71 439 71 338 l 71 956 l 396 956 l 396 386 q 397 297 396 329 q 405 249 399 264 q 426 229 411 233 q 468 225 442 225 q 510 229 496 225 q 532 249 525 233 q 540 297 539 264 q 542 386 542 329 l 542 956 l 867 956 l 867 439 q 863 262 867 338 q 840 134 858 186 q 778 50 821 82 q 661 3 736 18 q 468 -11 586 -11 z "},"Ứ":{"ha":938,"x_min":71,"x_max":1007,"o":"m 686 856 l 686 956 l 722 956 q 803 976 788 956 q 819 1047 819 996 l 819 1078 l 1007 1078 l 1007 1060 q 998 960 1007 1000 q 960 898 989 921 q 875 865 932 875 q 722 856 818 856 l 686 856 m 468 -11 q 275 3 350 -11 q 158 50 200 18 q 98 134 117 82 q 75 262 79 186 q 71 439 71 338 l 71 956 l 396 956 l 396 386 q 397 297 396 329 q 405 249 399 264 q 426 229 411 233 q 468 225 442 225 q 510 229 496 225 q 532 249 525 233 q 540 297 539 264 q 542 386 542 329 l 542 956 l 867 956 l 867 439 q 863 262 867 338 q 840 134 858 186 q 778 50 821 82 q 661 3 736 18 q 468 -11 586 -11 m 322 1032 l 322 1039 l 442 1238 l 717 1238 l 717 1231 l 528 1032 l 322 1032 z "},"Ự":{"ha":938,"x_min":71,"x_max":1007,"o":"m 686 856 l 686 956 l 722 956 q 803 976 788 956 q 819 1047 819 996 l 819 1078 l 1007 1078 l 1007 1060 q 998 960 1007 1000 q 960 898 989 921 q 875 865 932 875 q 722 856 818 856 l 686 856 m 468 -11 q 275 3 350 -11 q 158 50 200 18 q 98 134 117 82 q 75 262 79 186 q 71 439 71 338 l 71 956 l 396 956 l 396 386 q 397 297 396 329 q 405 249 399 264 q 426 229 411 233 q 468 225 442 225 q 510 229 496 225 q 532 249 525 233 q 540 297 539 264 q 542 386 542 329 l 542 956 l 867 956 l 867 439 q 863 262 867 338 q 840 134 858 186 q 778 50 821 82 q 661 3 736 18 q 468 -11 586 -11 m 356 -324 l 356 -118 l 583 -118 l 583 -324 l 356 -324 z "},"Ừ":{"ha":938,"x_min":71,"x_max":1007,"o":"m 686 856 l 686 956 l 722 956 q 803 976 788 956 q 819 1047 819 996 l 819 1078 l 1007 1078 l 1007 1060 q 998 960 1007 1000 q 960 898 989 921 q 875 865 932 875 q 722 856 818 856 l 686 856 m 468 -11 q 275 3 350 -11 q 158 50 200 18 q 98 134 117 82 q 75 262 79 186 q 71 439 71 338 l 71 956 l 396 956 l 396 386 q 397 297 396 329 q 405 249 399 264 q 426 229 411 233 q 468 225 442 225 q 510 229 496 225 q 532 249 525 233 q 540 297 539 264 q 542 386 542 329 l 542 956 l 867 956 l 867 439 q 863 262 867 338 q 840 134 858 186 q 778 50 821 82 q 661 3 736 18 q 468 -11 586 -11 m 360 1032 l 171 1231 l 171 1238 l 446 1238 l 565 1039 l 565 1032 l 360 1032 z "},"Ử":{"ha":938,"x_min":71,"x_max":1007,"o":"m 686 856 l 686 956 l 722 956 q 803 976 788 956 q 819 1047 819 996 l 819 1078 l 1007 1078 l 1007 1060 q 998 960 1007 1000 q 960 898 989 921 q 875 865 932 875 q 722 856 818 856 l 686 856 m 468 -11 q 275 3 350 -11 q 158 50 200 18 q 98 134 117 82 q 75 262 79 186 q 71 439 71 338 l 71 956 l 396 956 l 396 386 q 397 297 396 329 q 405 249 399 264 q 426 229 411 233 q 468 225 442 225 q 510 229 496 225 q 532 249 525 233 q 540 297 539 264 q 542 386 542 329 l 542 956 l 867 956 l 867 439 q 863 262 867 338 q 840 134 858 186 q 778 50 821 82 q 661 3 736 18 q 468 -11 586 -11 m 369 1026 l 369 1029 q 375 1081 369 1061 q 396 1113 381 1101 q 440 1132 411 1125 l 461 1138 q 485 1145 478 1142 q 496 1155 493 1149 q 499 1171 499 1161 q 494 1194 499 1188 q 474 1203 490 1201 q 425 1206 458 1206 q 379 1204 407 1206 q 324 1201 351 1203 q 279 1197 296 1200 l 279 1324 q 371 1335 317 1331 q 471 1340 425 1340 q 575 1333 528 1340 q 651 1294 622 1326 q 681 1189 681 1263 q 672 1128 681 1151 q 640 1092 664 1106 q 572 1065 617 1078 l 558 1061 q 534 1052 543 1057 q 522 1041 525 1047 q 519 1026 519 1035 l 369 1026 z "},"Ữ":{"ha":938,"x_min":71,"x_max":1007,"o":"m 686 856 l 686 956 l 722 956 q 803 976 788 956 q 819 1047 819 996 l 819 1078 l 1007 1078 l 1007 1060 q 998 960 1007 1000 q 960 898 989 921 q 875 865 932 875 q 722 856 818 856 l 686 856 m 468 -11 q 275 3 350 -11 q 158 50 200 18 q 98 134 117 82 q 75 262 79 186 q 71 439 71 338 l 71 956 l 396 956 l 396 386 q 397 297 396 329 q 405 249 399 264 q 426 229 411 233 q 468 225 442 225 q 510 229 496 225 q 532 249 525 233 q 540 297 539 264 q 542 386 542 329 l 542 956 l 867 956 l 867 439 q 863 262 867 338 q 840 134 858 186 q 778 50 821 82 q 661 3 736 18 q 468 -11 586 -11 m 185 1017 q 191 1133 185 1085 q 227 1208 197 1182 q 329 1235 257 1235 q 414 1227 371 1235 q 492 1213 457 1219 q 544 1203 521 1207 q 583 1199 568 1199 q 610 1210 607 1199 q 614 1251 614 1222 l 753 1251 q 747 1135 753 1185 q 710 1060 740 1086 q 608 1033 681 1033 q 524 1042 567 1033 q 446 1056 482 1050 q 393 1065 417 1061 q 354 1069 369 1069 q 328 1057 332 1069 q 324 1017 324 1044 l 185 1017 z "},"Ű":{"ha":938,"x_min":71,"x_max":867,"o":"m 468 -11 q 275 3 350 -11 q 158 50 200 18 q 98 134 117 82 q 75 262 79 186 q 71 439 71 338 l 71 956 l 396 956 l 396 386 q 397 297 396 329 q 405 249 399 264 q 426 229 411 233 q 468 225 442 225 q 510 229 496 225 q 532 249 525 233 q 540 297 539 264 q 542 386 542 329 l 542 956 l 867 956 l 867 439 q 863 262 867 338 q 840 134 858 186 q 778 50 821 82 q 661 3 736 18 q 468 -11 586 -11 m 250 1032 l 250 1038 l 343 1206 l 565 1206 l 565 1200 l 415 1032 l 250 1032 m 513 1032 l 513 1038 l 608 1206 l 829 1206 l 829 1200 l 681 1032 l 513 1032 z "},"Ȗ":{"ha":938,"x_min":71,"x_max":867,"o":"m 468 -11 q 275 3 350 -11 q 158 50 200 18 q 98 134 117 82 q 75 262 79 186 q 71 439 71 338 l 71 956 l 396 956 l 396 386 q 397 297 396 329 q 405 249 399 264 q 426 229 411 233 q 468 225 442 225 q 510 229 496 225 q 532 249 525 233 q 540 297 539 264 q 542 386 542 329 l 542 956 l 867 956 l 867 439 q 863 262 867 338 q 840 134 858 186 q 778 50 821 82 q 661 3 736 18 q 468 -11 586 -11 m 469 1243 q 585 1228 540 1243 q 653 1184 629 1213 q 685 1117 676 1156 q 693 1032 693 1078 l 539 1032 q 536 1065 539 1050 q 519 1090 533 1081 q 469 1099 504 1099 q 419 1090 435 1099 q 401 1065 404 1081 q 399 1032 399 1050 l 244 1032 q 253 1117 244 1078 q 286 1184 263 1156 q 354 1228 310 1213 q 469 1243 399 1243 z "},"Ū":{"ha":938,"x_min":71,"x_max":867,"o":"m 468 -11 q 275 3 350 -11 q 158 50 200 18 q 98 134 117 82 q 75 262 79 186 q 71 439 71 338 l 71 956 l 396 956 l 396 386 q 397 297 396 329 q 405 249 399 264 q 426 229 411 233 q 468 225 442 225 q 510 229 496 225 q 532 249 525 233 q 540 297 539 264 q 542 386 542 329 l 542 956 l 867 956 l 867 439 q 863 262 867 338 q 840 134 858 186 q 778 50 821 82 q 661 3 736 18 q 468 -11 586 -11 m 221 1047 l 221 1203 l 718 1203 l 718 1047 l 221 1047 z "},"Ų":{"ha":938,"x_min":71,"x_max":867,"o":"m 468 -11 q 275 3 350 -11 q 158 50 200 18 q 98 134 117 82 q 75 262 79 186 q 71 439 71 338 l 71 956 l 396 956 l 396 386 q 397 297 396 329 q 405 249 399 264 q 426 229 411 233 q 468 225 442 225 q 510 229 496 225 q 532 249 525 233 q 540 297 539 264 q 542 386 542 329 l 542 956 l 867 956 l 867 439 q 863 262 867 338 q 840 134 858 186 q 778 50 821 82 q 661 3 736 18 q 468 -11 586 -11 m 486 -278 q 364 -260 408 -278 q 302 -215 319 -243 q 285 -154 285 -186 q 314 -67 285 -111 q 389 14 343 -24 l 606 0 q 567 -25 588 -8 q 533 -60 547 -42 q 518 -97 518 -79 q 531 -130 518 -117 q 583 -143 543 -143 q 592 -143 586 -143 q 607 -142 597 -143 l 607 -272 q 549 -276 583 -274 q 486 -278 514 -278 z "},"Ů":{"ha":938,"x_min":71,"x_max":867,"o":"m 468 -11 q 275 3 350 -11 q 158 50 200 18 q 98 134 117 82 q 75 262 79 186 q 71 439 71 338 l 71 956 l 396 956 l 396 386 q 397 297 396 329 q 405 249 399 264 q 426 229 411 233 q 468 225 442 225 q 510 229 496 225 q 532 249 525 233 q 540 297 539 264 q 542 386 542 329 l 542 956 l 867 956 l 867 439 q 863 262 867 338 q 840 134 858 186 q 778 50 821 82 q 661 3 736 18 q 468 -11 586 -11 m 468 1013 q 353 1021 396 1013 q 288 1049 310 1029 q 260 1102 267 1069 q 253 1182 253 1135 q 260 1264 253 1231 q 288 1317 267 1297 q 353 1345 310 1336 q 468 1354 396 1354 q 583 1345 540 1354 q 649 1317 626 1336 q 678 1264 671 1297 q 685 1182 685 1231 q 678 1102 685 1135 q 649 1049 671 1069 q 583 1021 626 1029 q 468 1013 540 1013 m 468 1119 q 519 1124 504 1119 q 536 1143 533 1129 q 539 1182 539 1157 q 536 1222 539 1208 q 519 1242 533 1236 q 468 1247 504 1247 q 419 1242 433 1247 q 401 1222 404 1236 q 399 1182 399 1208 q 401 1143 399 1157 q 419 1124 404 1129 q 468 1119 433 1119 z "},"Ũ":{"ha":938,"x_min":71,"x_max":867,"o":"m 468 -11 q 275 3 350 -11 q 158 50 200 18 q 98 134 117 82 q 75 262 79 186 q 71 439 71 338 l 71 956 l 396 956 l 396 386 q 397 297 396 329 q 405 249 399 264 q 426 229 411 233 q 468 225 442 225 q 510 229 496 225 q 532 249 525 233 q 540 297 539 264 q 542 386 542 329 l 542 956 l 867 956 l 867 439 q 863 262 867 338 q 840 134 858 186 q 778 50 821 82 q 661 3 736 18 q 468 -11 586 -11 m 185 1017 q 191 1133 185 1085 q 227 1208 197 1182 q 329 1235 257 1235 q 414 1227 371 1235 q 492 1213 457 1219 q 544 1203 521 1207 q 583 1199 568 1199 q 610 1210 607 1199 q 614 1251 614 1222 l 753 1251 q 747 1135 753 1185 q 710 1060 740 1086 q 608 1033 681 1033 q 524 1042 567 1033 q 446 1056 482 1050 q 393 1065 417 1061 q 354 1069 369 1069 q 328 1057 332 1069 q 324 1017 324 1044 l 185 1017 z "},"V":{"ha":921,"x_min":-4,"x_max":925,"o":"m 246 0 l -4 956 l 326 956 l 456 342 l 471 342 l 600 956 l 925 956 l 675 0 l 246 0 z "},"W":{"ha":1368,"x_min":0,"x_max":1368,"o":"m 176 0 l 0 956 l 322 956 l 403 356 l 418 356 l 521 956 l 854 956 l 960 356 l 975 356 l 1044 956 l 1368 956 l 1192 0 l 782 0 l 692 482 l 676 482 l 586 0 l 176 0 z "},"Ẃ":{"ha":1368,"x_min":0,"x_max":1368,"o":"m 176 0 l 0 956 l 322 956 l 403 356 l 418 356 l 521 956 l 854 956 l 960 356 l 975 356 l 1044 956 l 1368 956 l 1192 0 l 782 0 l 692 482 l 676 482 l 586 0 l 176 0 m 538 1032 l 538 1039 l 657 1238 l 932 1238 l 932 1231 l 743 1032 l 538 1032 z "},"Ŵ":{"ha":1368,"x_min":0,"x_max":1368,"o":"m 176 0 l 0 956 l 322 956 l 403 356 l 418 356 l 521 956 l 854 956 l 960 356 l 975 356 l 1044 956 l 1368 956 l 1192 0 l 782 0 l 692 482 l 676 482 l 586 0 l 176 0 m 429 1032 l 429 1043 l 553 1238 l 815 1238 l 940 1043 l 940 1032 l 754 1032 l 683 1132 l 615 1032 l 429 1032 z "},"Ẅ":{"ha":1368,"x_min":0,"x_max":1368,"o":"m 176 0 l 0 956 l 322 956 l 403 356 l 418 356 l 521 956 l 854 956 l 960 356 l 975 356 l 1044 956 l 1368 956 l 1192 0 l 782 0 l 692 482 l 676 482 l 586 0 l 176 0 m 414 1047 l 414 1219 l 643 1219 l 643 1047 l 414 1047 m 725 1047 l 725 1219 l 954 1219 l 954 1047 l 725 1047 z "},"Ẁ":{"ha":1368,"x_min":0,"x_max":1368,"o":"m 176 0 l 0 956 l 322 956 l 403 356 l 418 356 l 521 956 l 854 956 l 960 356 l 975 356 l 1044 956 l 1368 956 l 1192 0 l 782 0 l 692 482 l 676 482 l 586 0 l 176 0 m 575 1032 l 386 1231 l 386 1238 l 661 1238 l 781 1039 l 781 1032 l 575 1032 z "},"X":{"ha":975,"x_min":7,"x_max":968,"o":"m 7 0 l 282 481 l 13 956 l 374 956 l 486 717 l 499 717 l 617 956 l 964 956 l 694 486 l 968 0 l 607 0 l 489 243 l 474 243 l 354 0 l 7 0 z "},"Y":{"ha":919,"x_min":-4,"x_max":924,"o":"m 297 0 l 297 308 l -4 956 l 326 956 l 458 600 l 468 600 l 600 956 l 924 956 l 622 308 l 622 0 l 297 0 z "},"Ý":{"ha":919,"x_min":-4,"x_max":924,"o":"m 297 0 l 297 308 l -4 956 l 326 956 l 458 600 l 468 600 l 600 956 l 924 956 l 622 308 l 622 0 l 297 0 m 313 1032 l 313 1039 l 432 1238 l 707 1238 l 707 1231 l 518 1032 l 313 1032 z "},"Ŷ":{"ha":919,"x_min":-4,"x_max":924,"o":"m 297 0 l 297 308 l -4 956 l 326 956 l 458 600 l 468 600 l 600 956 l 924 956 l 622 308 l 622 0 l 297 0 m 204 1032 l 204 1043 l 328 1238 l 590 1238 l 715 1043 l 715 1032 l 529 1032 l 458 1132 l 390 1032 l 204 1032 z "},"Ÿ":{"ha":919,"x_min":-4,"x_max":924,"o":"m 297 0 l 297 308 l -4 956 l 326 956 l 458 600 l 468 600 l 600 956 l 924 956 l 622 308 l 622 0 l 297 0 m 189 1047 l 189 1219 l 418 1219 l 418 1047 l 189 1047 m 500 1047 l 500 1219 l 729 1219 l 729 1047 l 500 1047 z "},"Ỵ":{"ha":919,"x_min":-4,"x_max":924,"o":"m 297 0 l 297 308 l -4 956 l 326 956 l 458 600 l 468 600 l 600 956 l 924 956 l 622 308 l 622 0 l 297 0 m 346 -324 l 346 -118 l 574 -118 l 574 -324 l 346 -324 z "},"Ỳ":{"ha":919,"x_min":-4,"x_max":924,"o":"m 297 0 l 297 308 l -4 956 l 326 956 l 458 600 l 468 600 l 600 956 l 924 956 l 622 308 l 622 0 l 297 0 m 350 1032 l 161 1231 l 161 1238 l 436 1238 l 556 1039 l 556 1032 l 350 1032 z "},"Ỷ":{"ha":919,"x_min":-4,"x_max":924,"o":"m 297 0 l 297 308 l -4 956 l 326 956 l 458 600 l 468 600 l 600 956 l 924 956 l 622 308 l 622 0 l 297 0 m 360 1026 l 360 1029 q 365 1081 360 1061 q 386 1113 371 1101 q 431 1132 401 1125 l 451 1138 q 476 1145 468 1142 q 486 1155 483 1149 q 489 1171 489 1161 q 485 1194 489 1188 q 465 1203 481 1201 q 415 1206 449 1206 q 369 1204 397 1206 q 314 1201 342 1203 q 269 1197 286 1200 l 269 1324 q 361 1335 307 1331 q 461 1340 415 1340 q 565 1333 518 1340 q 642 1294 613 1326 q 671 1189 671 1263 q 663 1128 671 1151 q 631 1092 654 1106 q 563 1065 607 1078 l 549 1061 q 524 1052 533 1057 q 513 1041 515 1047 q 510 1026 510 1035 l 360 1026 z "},"Ȳ":{"ha":919,"x_min":-4,"x_max":924,"o":"m 297 0 l 297 308 l -4 956 l 326 956 l 458 600 l 468 600 l 600 956 l 924 956 l 622 308 l 622 0 l 297 0 m 211 1047 l 211 1203 l 708 1203 l 708 1047 l 211 1047 z "},"Ỹ":{"ha":919,"x_min":-4,"x_max":924,"o":"m 297 0 l 297 308 l -4 956 l 326 956 l 458 600 l 468 600 l 600 956 l 924 956 l 622 308 l 622 0 l 297 0 m 175 1017 q 181 1133 175 1085 q 217 1208 188 1182 q 319 1235 247 1235 q 404 1227 361 1235 q 482 1213 447 1219 q 535 1203 511 1207 q 574 1199 558 1199 q 601 1210 597 1199 q 604 1251 604 1222 l 743 1251 q 737 1135 743 1185 q 701 1060 731 1086 q 599 1033 671 1033 q 515 1042 557 1033 q 436 1056 472 1050 q 383 1065 407 1061 q 344 1069 360 1069 q 318 1057 322 1069 q 314 1017 314 1044 l 175 1017 z "},"Z":{"ha":861,"x_min":53,"x_max":808,"o":"m 53 0 l 53 224 l 414 724 l 68 724 l 68 956 l 808 956 l 808 739 l 442 232 l 807 232 l 807 0 l 53 0 z "},"Ź":{"ha":861,"x_min":53,"x_max":808,"o":"m 53 0 l 53 224 l 414 724 l 68 724 l 68 956 l 808 956 l 808 739 l 442 232 l 807 232 l 807 0 l 53 0 m 283 1032 l 283 1039 l 403 1238 l 678 1238 l 678 1231 l 489 1032 l 283 1032 z "},"Ž":{"ha":861,"x_min":53,"x_max":808,"o":"m 53 0 l 53 224 l 414 724 l 68 724 l 68 956 l 808 956 l 808 739 l 442 232 l 807 232 l 807 0 l 53 0 m 299 1032 l 175 1226 l 175 1238 l 361 1238 l 433 1138 l 500 1238 l 686 1238 l 686 1226 l 561 1032 l 299 1032 z "},"Ż":{"ha":861,"x_min":53,"x_max":808,"o":"m 53 0 l 53 224 l 414 724 l 68 724 l 68 956 l 808 956 l 808 739 l 442 232 l 807 232 l 807 0 l 53 0 m 315 1047 l 315 1219 l 544 1219 l 544 1047 l 315 1047 z "},"Ẓ":{"ha":861,"x_min":53,"x_max":808,"o":"m 53 0 l 53 224 l 414 724 l 68 724 l 68 956 l 808 956 l 808 739 l 442 232 l 807 232 l 807 0 l 53 0 m 317 -324 l 317 -118 l 544 -118 l 544 -324 l 317 -324 z "},"a":{"ha":788,"x_min":39,"x_max":726,"o":"m 231 -11 q 124 11 167 -11 q 60 82 82 33 q 39 207 39 131 q 57 333 39 286 q 125 399 75 379 q 268 419 175 419 q 298 419 279 419 q 340 417 317 418 q 387 416 364 417 q 429 414 410 415 l 429 438 q 424 481 429 465 q 406 502 419 496 q 362 510 392 508 q 282 511 332 511 q 213 510 249 511 q 143 507 178 508 q 76 503 108 506 l 76 694 q 205 712 129 704 q 374 719 281 719 q 539 707 474 719 q 642 670 604 694 q 699 610 681 646 q 722 526 717 574 q 726 419 726 479 l 726 0 l 436 0 l 431 78 l 417 78 q 358 18 388 38 q 297 -6 328 -1 q 231 -11 265 -11 m 371 179 q 397 182 388 179 q 414 191 407 185 q 424 206 421 197 q 428 229 428 215 q 429 261 429 243 l 429 299 l 374 299 q 333 294 346 299 q 316 276 319 290 q 313 233 313 263 q 315 201 313 214 q 331 184 318 189 q 371 179 343 179 z "},"á":{"ha":788,"x_min":39,"x_max":726,"o":"m 231 -11 q 124 11 167 -11 q 60 82 82 33 q 39 207 39 131 q 57 333 39 286 q 125 399 75 379 q 268 419 175 419 q 298 419 279 419 q 340 417 317 418 q 387 416 364 417 q 429 414 410 415 l 429 438 q 424 481 429 465 q 406 502 419 496 q 362 510 392 508 q 282 511 332 511 q 213 510 249 511 q 143 507 178 508 q 76 503 108 506 l 76 694 q 205 712 129 704 q 374 719 281 719 q 539 707 474 719 q 642 670 604 694 q 699 610 681 646 q 722 526 717 574 q 726 419 726 479 l 726 0 l 436 0 l 431 78 l 417 78 q 358 18 388 38 q 297 -6 328 -1 q 231 -11 265 -11 m 371 179 q 397 182 388 179 q 414 191 407 185 q 424 206 421 197 q 428 229 428 215 q 429 261 429 243 l 429 299 l 374 299 q 333 294 346 299 q 316 276 319 290 q 313 233 313 263 q 315 201 313 214 q 331 184 318 189 q 371 179 343 179 m 231 785 l 231 792 l 350 990 l 625 990 l 625 983 l 436 785 l 231 785 z "},"ă":{"ha":788,"x_min":39,"x_max":726,"o":"m 231 -11 q 124 11 167 -11 q 60 82 82 33 q 39 207 39 131 q 57 333 39 286 q 125 399 75 379 q 268 419 175 419 q 298 419 279 419 q 340 417 317 418 q 387 416 364 417 q 429 414 410 415 l 429 438 q 424 481 429 465 q 406 502 419 496 q 362 510 392 508 q 282 511 332 511 q 213 510 249 511 q 143 507 178 508 q 76 503 108 506 l 76 694 q 205 712 129 704 q 374 719 281 719 q 539 707 474 719 q 642 670 604 694 q 699 610 681 646 q 722 526 717 574 q 726 419 726 479 l 726 0 l 436 0 l 431 78 l 417 78 q 358 18 388 38 q 297 -6 328 -1 q 231 -11 265 -11 m 371 179 q 397 182 388 179 q 414 191 407 185 q 424 206 421 197 q 428 229 428 215 q 429 261 429 243 l 429 299 l 374 299 q 333 294 346 299 q 316 276 319 290 q 313 233 313 263 q 315 201 313 214 q 331 184 318 189 q 371 179 343 179 m 399 779 q 283 794 328 779 q 215 838 239 810 q 183 906 192 867 q 175 990 175 944 l 329 990 q 332 957 329 972 q 349 933 335 942 q 399 924 364 924 q 449 933 435 924 q 467 957 464 942 q 469 990 469 972 l 624 990 q 615 906 624 944 q 582 838 606 867 q 514 794 558 810 q 399 779 469 779 z "},"ắ":{"ha":788,"x_min":39,"x_max":726,"o":"m 231 -11 q 124 11 167 -11 q 60 82 82 33 q 39 207 39 131 q 57 333 39 286 q 125 399 75 379 q 268 419 175 419 q 298 419 279 419 q 340 417 317 418 q 387 416 364 417 q 429 414 410 415 l 429 438 q 424 481 429 465 q 406 502 419 496 q 362 510 392 508 q 282 511 332 511 q 213 510 249 511 q 143 507 178 508 q 76 503 108 506 l 76 694 q 205 712 129 704 q 374 719 281 719 q 539 707 474 719 q 642 670 604 694 q 699 610 681 646 q 722 526 717 574 q 726 419 726 479 l 726 0 l 436 0 l 431 78 l 417 78 q 358 18 388 38 q 297 -6 328 -1 q 231 -11 265 -11 m 371 179 q 397 182 388 179 q 414 191 407 185 q 424 206 421 197 q 428 229 428 215 q 429 261 429 243 l 429 299 l 374 299 q 333 294 346 299 q 316 276 319 290 q 313 233 313 263 q 315 201 313 214 q 331 184 318 189 q 371 179 343 179 m 399 779 q 283 794 328 779 q 215 838 239 810 q 183 906 192 867 q 175 990 175 944 l 329 990 q 332 957 329 972 q 349 933 335 942 q 399 924 364 924 q 449 933 435 924 q 467 957 464 942 q 469 990 469 972 l 624 990 q 615 906 624 944 q 582 838 606 867 q 514 794 558 810 q 399 779 469 779 m 231 1028 l 231 1035 l 350 1233 l 625 1233 l 625 1226 l 436 1028 l 231 1028 z "},"ặ":{"ha":788,"x_min":39,"x_max":726,"o":"m 231 -11 q 124 11 167 -11 q 60 82 82 33 q 39 207 39 131 q 57 333 39 286 q 125 399 75 379 q 268 419 175 419 q 298 419 279 419 q 340 417 317 418 q 387 416 364 417 q 429 414 410 415 l 429 438 q 424 481 429 465 q 406 502 419 496 q 362 510 392 508 q 282 511 332 511 q 213 510 249 511 q 143 507 178 508 q 76 503 108 506 l 76 694 q 205 712 129 704 q 374 719 281 719 q 539 707 474 719 q 642 670 604 694 q 699 610 681 646 q 722 526 717 574 q 726 419 726 479 l 726 0 l 436 0 l 431 78 l 417 78 q 358 18 388 38 q 297 -6 328 -1 q 231 -11 265 -11 m 371 179 q 397 182 388 179 q 414 191 407 185 q 424 206 421 197 q 428 229 428 215 q 429 261 429 243 l 429 299 l 374 299 q 333 294 346 299 q 316 276 319 290 q 313 233 313 263 q 315 201 313 214 q 331 184 318 189 q 371 179 343 179 m 281 -324 l 281 -118 l 508 -118 l 508 -324 l 281 -324 m 399 779 q 283 794 328 779 q 215 838 239 810 q 183 906 192 867 q 175 990 175 944 l 329 990 q 332 957 329 972 q 349 933 335 942 q 399 924 364 924 q 449 933 435 924 q 467 957 464 942 q 469 990 469 972 l 624 990 q 615 906 624 944 q 582 838 606 867 q 514 794 558 810 q 399 779 469 779 z "},"ằ":{"ha":788,"x_min":39,"x_max":726,"o":"m 231 -11 q 124 11 167 -11 q 60 82 82 33 q 39 207 39 131 q 57 333 39 286 q 125 399 75 379 q 268 419 175 419 q 298 419 279 419 q 340 417 317 418 q 387 416 364 417 q 429 414 410 415 l 429 438 q 424 481 429 465 q 406 502 419 496 q 362 510 392 508 q 282 511 332 511 q 213 510 249 511 q 143 507 178 508 q 76 503 108 506 l 76 694 q 205 712 129 704 q 374 719 281 719 q 539 707 474 719 q 642 670 604 694 q 699 610 681 646 q 722 526 717 574 q 726 419 726 479 l 726 0 l 436 0 l 431 78 l 417 78 q 358 18 388 38 q 297 -6 328 -1 q 231 -11 265 -11 m 371 179 q 397 182 388 179 q 414 191 407 185 q 424 206 421 197 q 428 229 428 215 q 429 261 429 243 l 429 299 l 374 299 q 333 294 346 299 q 316 276 319 290 q 313 233 313 263 q 315 201 313 214 q 331 184 318 189 q 371 179 343 179 m 399 779 q 283 794 328 779 q 215 838 239 810 q 183 906 192 867 q 175 990 175 944 l 329 990 q 332 957 329 972 q 349 933 335 942 q 399 924 364 924 q 449 933 435 924 q 467 957 464 942 q 469 990 469 972 l 624 990 q 615 906 624 944 q 582 838 606 867 q 514 794 558 810 q 399 779 469 779 m 313 1028 l 124 1226 l 124 1233 l 399 1233 l 518 1035 l 518 1028 l 313 1028 z "},"ẳ":{"ha":788,"x_min":39,"x_max":726,"o":"m 231 -11 q 124 11 167 -11 q 60 82 82 33 q 39 207 39 131 q 57 333 39 286 q 125 399 75 379 q 268 419 175 419 q 298 419 279 419 q 340 417 317 418 q 387 416 364 417 q 429 414 410 415 l 429 438 q 424 481 429 465 q 406 502 419 496 q 362 510 392 508 q 282 511 332 511 q 213 510 249 511 q 143 507 178 508 q 76 503 108 506 l 76 694 q 205 712 129 704 q 374 719 281 719 q 539 707 474 719 q 642 670 604 694 q 699 610 681 646 q 722 526 717 574 q 726 419 726 479 l 726 0 l 436 0 l 431 78 l 417 78 q 358 18 388 38 q 297 -6 328 -1 q 231 -11 265 -11 m 371 179 q 397 182 388 179 q 414 191 407 185 q 424 206 421 197 q 428 229 428 215 q 429 261 429 243 l 429 299 l 374 299 q 333 294 346 299 q 316 276 319 290 q 313 233 313 263 q 315 201 313 214 q 331 184 318 189 q 371 179 343 179 m 399 779 q 283 794 328 779 q 215 838 239 810 q 183 906 192 867 q 175 990 175 944 l 329 990 q 332 957 329 972 q 349 933 335 942 q 399 924 364 924 q 449 933 435 924 q 467 957 464 942 q 469 990 469 972 l 624 990 q 615 906 624 944 q 582 838 606 867 q 514 794 558 810 q 399 779 469 779 m 300 1022 l 300 1025 q 306 1077 300 1057 q 326 1109 311 1097 q 371 1128 342 1121 l 392 1133 q 416 1141 408 1138 q 426 1151 424 1144 q 429 1167 429 1157 q 425 1190 429 1183 q 405 1199 421 1197 q 356 1201 389 1201 q 310 1200 338 1201 q 254 1197 282 1199 q 210 1193 226 1196 l 210 1319 q 301 1331 247 1326 q 401 1336 356 1336 q 506 1329 458 1336 q 582 1290 553 1322 q 611 1185 611 1258 q 603 1124 611 1147 q 571 1088 594 1101 q 503 1061 547 1074 l 489 1057 q 465 1048 474 1053 q 453 1037 456 1043 q 450 1022 450 1031 l 300 1022 z "},"ẵ":{"ha":788,"x_min":39,"x_max":726,"o":"m 231 -11 q 124 11 167 -11 q 60 82 82 33 q 39 207 39 131 q 57 333 39 286 q 125 399 75 379 q 268 419 175 419 q 298 419 279 419 q 340 417 317 418 q 387 416 364 417 q 429 414 410 415 l 429 438 q 424 481 429 465 q 406 502 419 496 q 362 510 392 508 q 282 511 332 511 q 213 510 249 511 q 143 507 178 508 q 76 503 108 506 l 76 694 q 205 712 129 704 q 374 719 281 719 q 539 707 474 719 q 642 670 604 694 q 699 610 681 646 q 722 526 717 574 q 726 419 726 479 l 726 0 l 436 0 l 431 78 l 417 78 q 358 18 388 38 q 297 -6 328 -1 q 231 -11 265 -11 m 371 179 q 397 182 388 179 q 414 191 407 185 q 424 206 421 197 q 428 229 428 215 q 429 261 429 243 l 429 299 l 374 299 q 333 294 346 299 q 316 276 319 290 q 313 233 313 263 q 315 201 313 214 q 331 184 318 189 q 371 179 343 179 m 399 779 q 283 794 328 779 q 215 838 239 810 q 183 906 192 867 q 175 990 175 944 l 329 990 q 332 957 329 972 q 349 933 335 942 q 399 924 364 924 q 449 933 435 924 q 467 957 464 942 q 469 990 469 972 l 624 990 q 615 906 624 944 q 582 838 606 867 q 514 794 558 810 q 399 779 469 779 m 115 1013 q 122 1129 115 1081 q 158 1204 128 1178 q 260 1231 188 1231 q 344 1223 301 1231 q 422 1208 388 1215 q 475 1199 451 1203 q 514 1194 499 1194 q 541 1206 538 1194 q 544 1247 544 1218 l 683 1247 q 677 1131 683 1181 q 641 1056 671 1082 q 539 1029 611 1029 q 455 1038 497 1029 q 376 1051 413 1046 q 324 1061 347 1057 q 285 1065 300 1065 q 258 1053 263 1065 q 254 1013 254 1040 l 115 1013 z "},"ǎ":{"ha":788,"x_min":39,"x_max":726,"o":"m 231 -11 q 124 11 167 -11 q 60 82 82 33 q 39 207 39 131 q 57 333 39 286 q 125 399 75 379 q 268 419 175 419 q 298 419 279 419 q 340 417 317 418 q 387 416 364 417 q 429 414 410 415 l 429 438 q 424 481 429 465 q 406 502 419 496 q 362 510 392 508 q 282 511 332 511 q 213 510 249 511 q 143 507 178 508 q 76 503 108 506 l 76 694 q 205 712 129 704 q 374 719 281 719 q 539 707 474 719 q 642 670 604 694 q 699 610 681 646 q 722 526 717 574 q 726 419 726 479 l 726 0 l 436 0 l 431 78 l 417 78 q 358 18 388 38 q 297 -6 328 -1 q 231 -11 265 -11 m 371 179 q 397 182 388 179 q 414 191 407 185 q 424 206 421 197 q 428 229 428 215 q 429 261 429 243 l 429 299 l 374 299 q 333 294 346 299 q 316 276 319 290 q 313 233 313 263 q 315 201 313 214 q 331 184 318 189 q 371 179 343 179 m 268 785 l 144 979 l 144 990 l 331 990 l 403 890 l 469 990 l 656 990 l 656 979 l 531 785 l 268 785 z "},"â":{"ha":788,"x_min":39,"x_max":726,"o":"m 231 -11 q 124 11 167 -11 q 60 82 82 33 q 39 207 39 131 q 57 333 39 286 q 125 399 75 379 q 268 419 175 419 q 298 419 279 419 q 340 417 317 418 q 387 416 364 417 q 429 414 410 415 l 429 438 q 424 481 429 465 q 406 502 419 496 q 362 510 392 508 q 282 511 332 511 q 213 510 249 511 q 143 507 178 508 q 76 503 108 506 l 76 694 q 205 712 129 704 q 374 719 281 719 q 539 707 474 719 q 642 670 604 694 q 699 610 681 646 q 722 526 717 574 q 726 419 726 479 l 726 0 l 436 0 l 431 78 l 417 78 q 358 18 388 38 q 297 -6 328 -1 q 231 -11 265 -11 m 371 179 q 397 182 388 179 q 414 191 407 185 q 424 206 421 197 q 428 229 428 215 q 429 261 429 243 l 429 299 l 374 299 q 333 294 346 299 q 316 276 319 290 q 313 233 313 263 q 315 201 313 214 q 331 184 318 189 q 371 179 343 179 m 144 785 l 144 796 l 268 990 l 531 990 l 656 796 l 656 785 l 469 785 l 399 885 l 331 785 l 144 785 z "},"ấ":{"ha":788,"x_min":39,"x_max":726,"o":"m 231 -11 q 124 11 167 -11 q 60 82 82 33 q 39 207 39 131 q 57 333 39 286 q 125 399 75 379 q 268 419 175 419 q 298 419 279 419 q 340 417 317 418 q 387 416 364 417 q 429 414 410 415 l 429 438 q 424 481 429 465 q 406 502 419 496 q 362 510 392 508 q 282 511 332 511 q 213 510 249 511 q 143 507 178 508 q 76 503 108 506 l 76 694 q 205 712 129 704 q 374 719 281 719 q 539 707 474 719 q 642 670 604 694 q 699 610 681 646 q 722 526 717 574 q 726 419 726 479 l 726 0 l 436 0 l 431 78 l 417 78 q 358 18 388 38 q 297 -6 328 -1 q 231 -11 265 -11 m 371 179 q 397 182 388 179 q 414 191 407 185 q 424 206 421 197 q 428 229 428 215 q 429 261 429 243 l 429 299 l 374 299 q 333 294 346 299 q 316 276 319 290 q 313 233 313 263 q 315 201 313 214 q 331 184 318 189 q 371 179 343 179 m 144 785 l 144 796 l 268 990 l 531 990 l 656 796 l 656 785 l 469 785 l 399 885 l 331 785 l 144 785 m 231 1032 l 231 1039 l 350 1238 l 625 1238 l 625 1231 l 436 1032 l 231 1032 z "},"ậ":{"ha":788,"x_min":39,"x_max":726,"o":"m 231 -11 q 124 11 167 -11 q 60 82 82 33 q 39 207 39 131 q 57 333 39 286 q 125 399 75 379 q 268 419 175 419 q 298 419 279 419 q 340 417 317 418 q 387 416 364 417 q 429 414 410 415 l 429 438 q 424 481 429 465 q 406 502 419 496 q 362 510 392 508 q 282 511 332 511 q 213 510 249 511 q 143 507 178 508 q 76 503 108 506 l 76 694 q 205 712 129 704 q 374 719 281 719 q 539 707 474 719 q 642 670 604 694 q 699 610 681 646 q 722 526 717 574 q 726 419 726 479 l 726 0 l 436 0 l 431 78 l 417 78 q 358 18 388 38 q 297 -6 328 -1 q 231 -11 265 -11 m 371 179 q 397 182 388 179 q 414 191 407 185 q 424 206 421 197 q 428 229 428 215 q 429 261 429 243 l 429 299 l 374 299 q 333 294 346 299 q 316 276 319 290 q 313 233 313 263 q 315 201 313 214 q 331 184 318 189 q 371 179 343 179 m 281 -324 l 281 -118 l 508 -118 l 508 -324 l 281 -324 m 144 785 l 144 796 l 268 990 l 531 990 l 656 796 l 656 785 l 469 785 l 399 885 l 331 785 l 144 785 z "},"ầ":{"ha":788,"x_min":39,"x_max":726,"o":"m 231 -11 q 124 11 167 -11 q 60 82 82 33 q 39 207 39 131 q 57 333 39 286 q 125 399 75 379 q 268 419 175 419 q 298 419 279 419 q 340 417 317 418 q 387 416 364 417 q 429 414 410 415 l 429 438 q 424 481 429 465 q 406 502 419 496 q 362 510 392 508 q 282 511 332 511 q 213 510 249 511 q 143 507 178 508 q 76 503 108 506 l 76 694 q 205 712 129 704 q 374 719 281 719 q 539 707 474 719 q 642 670 604 694 q 699 610 681 646 q 722 526 717 574 q 726 419 726 479 l 726 0 l 436 0 l 431 78 l 417 78 q 358 18 388 38 q 297 -6 328 -1 q 231 -11 265 -11 m 371 179 q 397 182 388 179 q 414 191 407 185 q 424 206 421 197 q 428 229 428 215 q 429 261 429 243 l 429 299 l 374 299 q 333 294 346 299 q 316 276 319 290 q 313 233 313 263 q 315 201 313 214 q 331 184 318 189 q 371 179 343 179 m 144 785 l 144 796 l 268 990 l 531 990 l 656 796 l 656 785 l 469 785 l 399 885 l 331 785 l 144 785 m 313 1032 l 124 1231 l 124 1238 l 399 1238 l 518 1039 l 518 1032 l 313 1032 z "},"ẩ":{"ha":788,"x_min":39,"x_max":726,"o":"m 231 -11 q 124 11 167 -11 q 60 82 82 33 q 39 207 39 131 q 57 333 39 286 q 125 399 75 379 q 268 419 175 419 q 298 419 279 419 q 340 417 317 418 q 387 416 364 417 q 429 414 410 415 l 429 438 q 424 481 429 465 q 406 502 419 496 q 362 510 392 508 q 282 511 332 511 q 213 510 249 511 q 143 507 178 508 q 76 503 108 506 l 76 694 q 205 712 129 704 q 374 719 281 719 q 539 707 474 719 q 642 670 604 694 q 699 610 681 646 q 722 526 717 574 q 726 419 726 479 l 726 0 l 436 0 l 431 78 l 417 78 q 358 18 388 38 q 297 -6 328 -1 q 231 -11 265 -11 m 371 179 q 397 182 388 179 q 414 191 407 185 q 424 206 421 197 q 428 229 428 215 q 429 261 429 243 l 429 299 l 374 299 q 333 294 346 299 q 316 276 319 290 q 313 233 313 263 q 315 201 313 214 q 331 184 318 189 q 371 179 343 179 m 144 785 l 144 796 l 268 990 l 531 990 l 656 796 l 656 785 l 469 785 l 399 885 l 331 785 l 144 785 m 300 1026 l 300 1029 q 306 1081 300 1061 q 326 1113 311 1101 q 371 1132 342 1125 l 392 1138 q 416 1145 408 1142 q 426 1155 424 1149 q 429 1171 429 1161 q 425 1194 429 1188 q 405 1203 421 1201 q 356 1206 389 1206 q 310 1204 338 1206 q 254 1201 282 1203 q 210 1197 226 1200 l 210 1324 q 301 1335 247 1331 q 401 1340 356 1340 q 506 1333 458 1340 q 582 1294 553 1326 q 611 1189 611 1263 q 603 1128 611 1151 q 571 1092 594 1106 q 503 1065 547 1078 l 489 1061 q 465 1052 474 1057 q 453 1041 456 1047 q 450 1026 450 1035 l 300 1026 z "},"ẫ":{"ha":788,"x_min":39,"x_max":726,"o":"m 231 -11 q 124 11 167 -11 q 60 82 82 33 q 39 207 39 131 q 57 333 39 286 q 125 399 75 379 q 268 419 175 419 q 298 419 279 419 q 340 417 317 418 q 387 416 364 417 q 429 414 410 415 l 429 438 q 424 481 429 465 q 406 502 419 496 q 362 510 392 508 q 282 511 332 511 q 213 510 249 511 q 143 507 178 508 q 76 503 108 506 l 76 694 q 205 712 129 704 q 374 719 281 719 q 539 707 474 719 q 642 670 604 694 q 699 610 681 646 q 722 526 717 574 q 726 419 726 479 l 726 0 l 436 0 l 431 78 l 417 78 q 358 18 388 38 q 297 -6 328 -1 q 231 -11 265 -11 m 371 179 q 397 182 388 179 q 414 191 407 185 q 424 206 421 197 q 428 229 428 215 q 429 261 429 243 l 429 299 l 374 299 q 333 294 346 299 q 316 276 319 290 q 313 233 313 263 q 315 201 313 214 q 331 184 318 189 q 371 179 343 179 m 144 785 l 144 796 l 268 990 l 531 990 l 656 796 l 656 785 l 469 785 l 399 885 l 331 785 l 144 785 m 115 1017 q 122 1133 115 1085 q 158 1208 128 1182 q 260 1235 188 1235 q 344 1227 301 1235 q 422 1213 388 1219 q 475 1203 451 1207 q 514 1199 499 1199 q 541 1210 538 1199 q 544 1251 544 1222 l 683 1251 q 677 1135 683 1185 q 641 1060 671 1086 q 539 1033 611 1033 q 455 1042 497 1033 q 376 1056 413 1050 q 324 1065 347 1061 q 285 1069 300 1069 q 258 1057 263 1069 q 254 1017 254 1044 l 115 1017 z "},"ȁ":{"ha":788,"x_min":39,"x_max":726,"o":"m 231 -11 q 124 11 167 -11 q 60 82 82 33 q 39 207 39 131 q 57 333 39 286 q 125 399 75 379 q 268 419 175 419 q 298 419 279 419 q 340 417 317 418 q 387 416 364 417 q 429 414 410 415 l 429 438 q 424 481 429 465 q 406 502 419 496 q 362 510 392 508 q 282 511 332 511 q 213 510 249 511 q 143 507 178 508 q 76 503 108 506 l 76 694 q 205 712 129 704 q 374 719 281 719 q 539 707 474 719 q 642 670 604 694 q 699 610 681 646 q 722 526 717 574 q 726 419 726 479 l 726 0 l 436 0 l 431 78 l 417 78 q 358 18 388 38 q 297 -6 328 -1 q 231 -11 265 -11 m 371 179 q 397 182 388 179 q 414 191 407 185 q 424 206 421 197 q 428 229 428 215 q 429 261 429 243 l 429 299 l 374 299 q 333 294 346 299 q 316 276 319 290 q 313 233 313 263 q 315 201 313 214 q 331 184 318 189 q 371 179 343 179 m 635 785 l 469 785 l 319 953 l 319 958 l 542 958 l 635 790 l 635 785 m 372 785 l 204 785 l 56 953 l 56 958 l 276 958 l 372 790 l 372 785 z "},"ä":{"ha":788,"x_min":39,"x_max":726,"o":"m 231 -11 q 124 11 167 -11 q 60 82 82 33 q 39 207 39 131 q 57 333 39 286 q 125 399 75 379 q 268 419 175 419 q 298 419 279 419 q 340 417 317 418 q 387 416 364 417 q 429 414 410 415 l 429 438 q 424 481 429 465 q 406 502 419 496 q 362 510 392 508 q 282 511 332 511 q 213 510 249 511 q 143 507 178 508 q 76 503 108 506 l 76 694 q 205 712 129 704 q 374 719 281 719 q 539 707 474 719 q 642 670 604 694 q 699 610 681 646 q 722 526 717 574 q 726 419 726 479 l 726 0 l 436 0 l 431 78 l 417 78 q 358 18 388 38 q 297 -6 328 -1 q 231 -11 265 -11 m 371 179 q 397 182 388 179 q 414 191 407 185 q 424 206 421 197 q 428 229 428 215 q 429 261 429 243 l 429 299 l 374 299 q 333 294 346 299 q 316 276 319 290 q 313 233 313 263 q 315 201 313 214 q 331 184 318 189 q 371 179 343 179 m 131 800 l 131 972 l 360 972 l 360 800 l 131 800 m 442 800 l 442 972 l 671 972 l 671 800 l 442 800 z "},"ạ":{"ha":788,"x_min":39,"x_max":726,"o":"m 231 -11 q 124 11 167 -11 q 60 82 82 33 q 39 207 39 131 q 57 333 39 286 q 125 399 75 379 q 268 419 175 419 q 298 419 279 419 q 340 417 317 418 q 387 416 364 417 q 429 414 410 415 l 429 438 q 424 481 429 465 q 406 502 419 496 q 362 510 392 508 q 282 511 332 511 q 213 510 249 511 q 143 507 178 508 q 76 503 108 506 l 76 694 q 205 712 129 704 q 374 719 281 719 q 539 707 474 719 q 642 670 604 694 q 699 610 681 646 q 722 526 717 574 q 726 419 726 479 l 726 0 l 436 0 l 431 78 l 417 78 q 358 18 388 38 q 297 -6 328 -1 q 231 -11 265 -11 m 371 179 q 397 182 388 179 q 414 191 407 185 q 424 206 421 197 q 428 229 428 215 q 429 261 429 243 l 429 299 l 374 299 q 333 294 346 299 q 316 276 319 290 q 313 233 313 263 q 315 201 313 214 q 331 184 318 189 q 371 179 343 179 m 281 -324 l 281 -118 l 508 -118 l 508 -324 l 281 -324 z "},"à":{"ha":788,"x_min":39,"x_max":726,"o":"m 231 -11 q 124 11 167 -11 q 60 82 82 33 q 39 207 39 131 q 57 333 39 286 q 125 399 75 379 q 268 419 175 419 q 298 419 279 419 q 340 417 317 418 q 387 416 364 417 q 429 414 410 415 l 429 438 q 424 481 429 465 q 406 502 419 496 q 362 510 392 508 q 282 511 332 511 q 213 510 249 511 q 143 507 178 508 q 76 503 108 506 l 76 694 q 205 712 129 704 q 374 719 281 719 q 539 707 474 719 q 642 670 604 694 q 699 610 681 646 q 722 526 717 574 q 726 419 726 479 l 726 0 l 436 0 l 431 78 l 417 78 q 358 18 388 38 q 297 -6 328 -1 q 231 -11 265 -11 m 371 179 q 397 182 388 179 q 414 191 407 185 q 424 206 421 197 q 428 229 428 215 q 429 261 429 243 l 429 299 l 374 299 q 333 294 346 299 q 316 276 319 290 q 313 233 313 263 q 315 201 313 214 q 331 184 318 189 q 371 179 343 179 m 313 785 l 124 983 l 124 990 l 399 990 l 518 792 l 518 785 l 313 785 z "},"ả":{"ha":788,"x_min":39,"x_max":726,"o":"m 231 -11 q 124 11 167 -11 q 60 82 82 33 q 39 207 39 131 q 57 333 39 286 q 125 399 75 379 q 268 419 175 419 q 298 419 279 419 q 340 417 317 418 q 387 416 364 417 q 429 414 410 415 l 429 438 q 424 481 429 465 q 406 502 419 496 q 362 510 392 508 q 282 511 332 511 q 213 510 249 511 q 143 507 178 508 q 76 503 108 506 l 76 694 q 205 712 129 704 q 374 719 281 719 q 539 707 474 719 q 642 670 604 694 q 699 610 681 646 q 722 526 717 574 q 726 419 726 479 l 726 0 l 436 0 l 431 78 l 417 78 q 358 18 388 38 q 297 -6 328 -1 q 231 -11 265 -11 m 371 179 q 397 182 388 179 q 414 191 407 185 q 424 206 421 197 q 428 229 428 215 q 429 261 429 243 l 429 299 l 374 299 q 333 294 346 299 q 316 276 319 290 q 313 233 313 263 q 315 201 313 214 q 331 184 318 189 q 371 179 343 179 m 300 779 l 300 782 q 306 834 300 814 q 326 866 311 854 q 371 885 342 878 l 392 890 q 416 898 408 894 q 426 908 424 901 q 429 924 429 914 q 425 947 429 940 q 405 956 421 954 q 356 958 389 958 q 310 957 338 958 q 254 954 282 956 q 210 950 226 953 l 210 1076 q 301 1088 247 1083 q 401 1093 356 1093 q 506 1086 458 1093 q 582 1047 553 1079 q 611 942 611 1015 q 603 881 611 904 q 571 844 594 858 q 503 818 547 831 l 489 814 q 465 805 474 810 q 453 794 456 800 q 450 779 450 788 l 300 779 z "},"ȃ":{"ha":788,"x_min":39,"x_max":726,"o":"m 231 -11 q 124 11 167 -11 q 60 82 82 33 q 39 207 39 131 q 57 333 39 286 q 125 399 75 379 q 268 419 175 419 q 298 419 279 419 q 340 417 317 418 q 387 416 364 417 q 429 414 410 415 l 429 438 q 424 481 429 465 q 406 502 419 496 q 362 510 392 508 q 282 511 332 511 q 213 510 249 511 q 143 507 178 508 q 76 503 108 506 l 76 694 q 205 712 129 704 q 374 719 281 719 q 539 707 474 719 q 642 670 604 694 q 699 610 681 646 q 722 526 717 574 q 726 419 726 479 l 726 0 l 436 0 l 431 78 l 417 78 q 358 18 388 38 q 297 -6 328 -1 q 231 -11 265 -11 m 371 179 q 397 182 388 179 q 414 191 407 185 q 424 206 421 197 q 428 229 428 215 q 429 261 429 243 l 429 299 l 374 299 q 333 294 346 299 q 316 276 319 290 q 313 233 313 263 q 315 201 313 214 q 331 184 318 189 q 371 179 343 179 m 400 996 q 515 981 471 996 q 583 937 560 965 q 615 869 607 908 q 624 785 624 831 l 469 785 q 467 818 469 803 q 449 842 464 833 q 400 851 435 851 q 350 842 365 851 q 332 818 335 833 q 329 785 329 803 l 175 785 q 184 869 175 831 q 217 937 193 908 q 285 981 240 965 q 400 996 329 996 z "},"ā":{"ha":788,"x_min":39,"x_max":726,"o":"m 231 -11 q 124 11 167 -11 q 60 82 82 33 q 39 207 39 131 q 57 333 39 286 q 125 399 75 379 q 268 419 175 419 q 298 419 279 419 q 340 417 317 418 q 387 416 364 417 q 429 414 410 415 l 429 438 q 424 481 429 465 q 406 502 419 496 q 362 510 392 508 q 282 511 332 511 q 213 510 249 511 q 143 507 178 508 q 76 503 108 506 l 76 694 q 205 712 129 704 q 374 719 281 719 q 539 707 474 719 q 642 670 604 694 q 699 610 681 646 q 722 526 717 574 q 726 419 726 479 l 726 0 l 436 0 l 431 78 l 417 78 q 358 18 388 38 q 297 -6 328 -1 q 231 -11 265 -11 m 371 179 q 397 182 388 179 q 414 191 407 185 q 424 206 421 197 q 428 229 428 215 q 429 261 429 243 l 429 299 l 374 299 q 333 294 346 299 q 316 276 319 290 q 313 233 313 263 q 315 201 313 214 q 331 184 318 189 q 371 179 343 179 m 151 800 l 151 956 l 649 956 l 649 800 l 151 800 z "},"ą":{"ha":788,"x_min":39,"x_max":728,"o":"m 231 -11 q 124 11 167 -11 q 60 82 82 33 q 39 207 39 131 q 57 333 39 286 q 125 399 75 379 q 268 419 175 419 q 298 419 279 419 q 340 417 317 418 q 387 416 364 417 q 429 414 410 415 l 429 438 q 424 481 429 465 q 406 502 419 496 q 362 510 392 508 q 282 511 332 511 q 213 510 249 511 q 143 507 178 508 q 76 503 108 506 l 76 694 q 205 712 129 704 q 374 719 281 719 q 539 707 474 719 q 642 670 604 694 q 699 610 681 646 q 722 526 717 574 q 726 419 726 479 l 726 0 l 436 0 l 431 78 l 417 78 q 358 18 388 38 q 297 -6 328 -1 q 231 -11 265 -11 m 371 179 q 397 182 388 179 q 414 191 407 185 q 424 206 421 197 q 428 229 428 215 q 429 261 429 243 l 429 299 l 374 299 q 333 294 346 299 q 316 276 319 290 q 313 233 313 263 q 315 201 313 214 q 331 184 318 189 q 371 179 343 179 m 607 -278 q 485 -260 529 -278 q 423 -215 440 -243 q 406 -154 406 -186 q 435 -67 406 -111 q 510 14 464 -24 l 726 0 q 688 -25 708 -8 q 653 -60 668 -42 q 639 -97 639 -79 q 651 -130 639 -117 q 704 -143 664 -143 q 713 -143 707 -143 q 728 -142 718 -143 l 728 -272 q 669 -276 704 -274 q 607 -278 635 -278 z "},"å":{"ha":788,"x_min":39,"x_max":726,"o":"m 231 -11 q 124 11 167 -11 q 60 82 82 33 q 39 207 39 131 q 57 333 39 286 q 125 399 75 379 q 268 419 175 419 q 298 419 279 419 q 340 417 317 418 q 387 416 364 417 q 429 414 410 415 l 429 438 q 424 481 429 465 q 406 502 419 496 q 362 510 392 508 q 282 511 332 511 q 213 510 249 511 q 143 507 178 508 q 76 503 108 506 l 76 694 q 205 712 129 704 q 374 719 281 719 q 539 707 474 719 q 642 670 604 694 q 699 610 681 646 q 722 526 717 574 q 726 419 726 479 l 726 0 l 436 0 l 431 78 l 417 78 q 358 18 388 38 q 297 -6 328 -1 q 231 -11 265 -11 m 371 179 q 397 182 388 179 q 414 191 407 185 q 424 206 421 197 q 428 229 428 215 q 429 261 429 243 l 429 299 l 374 299 q 333 294 346 299 q 316 276 319 290 q 313 233 313 263 q 315 201 313 214 q 331 184 318 189 q 371 179 343 179 m 399 765 q 283 774 326 765 q 219 802 240 782 q 190 855 197 822 q 183 935 183 888 q 190 1017 183 983 q 219 1069 197 1050 q 283 1098 240 1089 q 399 1107 326 1107 q 514 1098 471 1107 q 579 1069 557 1089 q 608 1017 601 1050 q 615 935 615 983 q 608 855 615 888 q 579 802 601 822 q 514 774 557 782 q 399 765 471 765 m 399 872 q 449 877 435 872 q 467 896 464 882 q 469 935 469 910 q 467 975 469 961 q 449 994 464 989 q 399 1000 435 1000 q 349 994 364 1000 q 332 975 335 989 q 329 935 329 961 q 332 896 329 910 q 349 877 335 882 q 399 872 364 872 z "},"ǻ":{"ha":788,"x_min":39,"x_max":726,"o":"m 231 -11 q 124 11 167 -11 q 60 82 82 33 q 39 207 39 131 q 57 333 39 286 q 125 399 75 379 q 268 419 175 419 q 298 419 279 419 q 340 417 317 418 q 387 416 364 417 q 429 414 410 415 l 429 438 q 424 481 429 465 q 406 502 419 496 q 362 510 392 508 q 282 511 332 511 q 213 510 249 511 q 143 507 178 508 q 76 503 108 506 l 76 694 q 205 712 129 704 q 374 719 281 719 q 539 707 474 719 q 642 670 604 694 q 699 610 681 646 q 722 526 717 574 q 726 419 726 479 l 726 0 l 436 0 l 431 78 l 417 78 q 358 18 388 38 q 297 -6 328 -1 q 231 -11 265 -11 m 371 179 q 397 182 388 179 q 414 191 407 185 q 424 206 421 197 q 428 229 428 215 q 429 261 429 243 l 429 299 l 374 299 q 333 294 346 299 q 316 276 319 290 q 313 233 313 263 q 315 201 313 214 q 331 184 318 189 q 371 179 343 179 m 399 765 q 283 774 326 765 q 219 802 240 782 q 190 855 197 822 q 183 935 183 888 q 190 1017 183 983 q 219 1069 197 1050 q 283 1098 240 1089 q 399 1107 326 1107 q 514 1098 471 1107 q 579 1069 557 1089 q 608 1017 601 1050 q 615 935 615 983 q 608 855 615 888 q 579 802 601 822 q 514 774 557 782 q 399 765 471 765 m 399 872 q 449 877 435 872 q 467 896 464 882 q 469 935 469 910 q 467 975 469 961 q 449 994 464 989 q 399 1000 435 1000 q 349 994 364 1000 q 332 975 335 989 q 329 935 329 961 q 332 896 329 910 q 349 877 335 882 q 399 872 364 872 m 231 1160 l 231 1167 l 350 1365 l 625 1365 l 625 1358 l 436 1160 l 231 1160 z "},"ã":{"ha":788,"x_min":39,"x_max":726,"o":"m 231 -11 q 124 11 167 -11 q 60 82 82 33 q 39 207 39 131 q 57 333 39 286 q 125 399 75 379 q 268 419 175 419 q 298 419 279 419 q 340 417 317 418 q 387 416 364 417 q 429 414 410 415 l 429 438 q 424 481 429 465 q 406 502 419 496 q 362 510 392 508 q 282 511 332 511 q 213 510 249 511 q 143 507 178 508 q 76 503 108 506 l 76 694 q 205 712 129 704 q 374 719 281 719 q 539 707 474 719 q 642 670 604 694 q 699 610 681 646 q 722 526 717 574 q 726 419 726 479 l 726 0 l 436 0 l 431 78 l 417 78 q 358 18 388 38 q 297 -6 328 -1 q 231 -11 265 -11 m 371 179 q 397 182 388 179 q 414 191 407 185 q 424 206 421 197 q 428 229 428 215 q 429 261 429 243 l 429 299 l 374 299 q 333 294 346 299 q 316 276 319 290 q 313 233 313 263 q 315 201 313 214 q 331 184 318 189 q 371 179 343 179 m 115 769 q 122 886 115 838 q 158 961 128 935 q 260 988 188 988 q 344 980 301 988 q 422 965 388 972 q 475 956 451 960 q 514 951 499 951 q 541 963 538 951 q 544 1004 544 975 l 683 1004 q 677 888 683 938 q 641 813 671 839 q 539 786 611 786 q 455 794 497 786 q 376 808 413 803 q 324 818 347 814 q 285 822 300 822 q 258 810 263 822 q 254 769 254 797 l 115 769 z "},"æ":{"ha":1169,"x_min":39,"x_max":1121,"o":"m 300 -11 q 165 1 217 -11 q 86 40 114 14 q 49 108 58 67 q 39 207 39 149 q 57 333 39 286 q 125 399 75 379 q 268 419 175 419 q 311 419 283 419 q 372 417 339 418 q 429 414 404 415 l 429 438 q 424 481 429 465 q 406 502 419 496 q 362 510 392 508 q 282 511 332 511 q 222 510 254 511 q 153 508 189 510 q 76 503 117 506 l 76 694 q 193 712 125 704 q 346 719 261 719 q 481 706 422 719 q 582 665 540 693 q 681 706 624 693 q 813 719 739 719 q 964 708 906 719 q 1055 670 1022 696 q 1101 602 1088 644 q 1118 498 1115 560 q 1121 353 1121 436 l 1121 299 l 726 299 q 731 240 726 261 q 750 210 735 219 q 798 199 765 201 q 886 197 831 197 q 943 199 910 197 q 1016 202 976 200 q 1093 207 1056 204 l 1093 17 q 1020 2 1065 8 q 922 -8 975 -4 q 815 -11 868 -11 q 698 -6 749 -11 q 610 12 647 0 q 549 40 574 24 q 471 6 511 17 q 389 -8 431 -6 q 300 -11 347 -11 m 371 179 q 403 184 392 179 q 421 197 415 189 q 428 218 426 206 q 429 240 429 229 q 429 261 429 250 l 429 299 l 374 299 q 333 294 346 299 q 316 276 319 290 q 313 233 313 263 q 315 201 313 214 q 331 184 318 189 q 371 179 343 179 m 846 361 q 845 460 846 425 q 840 510 844 494 q 822 528 835 525 q 785 532 808 532 q 753 529 765 532 q 736 516 742 526 q 728 482 731 506 q 726 417 726 458 l 892 417 l 846 361 z "},"ǽ":{"ha":1169,"x_min":39,"x_max":1121,"o":"m 300 -11 q 165 1 217 -11 q 86 40 114 14 q 49 108 58 67 q 39 207 39 149 q 57 333 39 286 q 125 399 75 379 q 268 419 175 419 q 311 419 283 419 q 372 417 339 418 q 429 414 404 415 l 429 438 q 424 481 429 465 q 406 502 419 496 q 362 510 392 508 q 282 511 332 511 q 222 510 254 511 q 153 508 189 510 q 76 503 117 506 l 76 694 q 193 712 125 704 q 346 719 261 719 q 481 706 422 719 q 582 665 540 693 q 681 706 624 693 q 813 719 739 719 q 964 708 906 719 q 1055 670 1022 696 q 1101 602 1088 644 q 1118 498 1115 560 q 1121 353 1121 436 l 1121 299 l 726 299 q 731 240 726 261 q 750 210 735 219 q 798 199 765 201 q 886 197 831 197 q 943 199 910 197 q 1016 202 976 200 q 1093 207 1056 204 l 1093 17 q 1020 2 1065 8 q 922 -8 975 -4 q 815 -11 868 -11 q 698 -6 749 -11 q 610 12 647 0 q 549 40 574 24 q 471 6 511 17 q 389 -8 431 -6 q 300 -11 347 -11 m 371 179 q 403 184 392 179 q 421 197 415 189 q 428 218 426 206 q 429 240 429 229 q 429 261 429 250 l 429 299 l 374 299 q 333 294 346 299 q 316 276 319 290 q 313 233 313 263 q 315 201 313 214 q 331 184 318 189 q 371 179 343 179 m 846 361 q 845 460 846 425 q 840 510 844 494 q 822 528 835 525 q 785 532 808 532 q 753 529 765 532 q 736 516 742 526 q 728 482 731 506 q 726 417 726 458 l 892 417 l 846 361 m 415 785 l 415 792 l 535 990 l 810 990 l 810 983 l 621 785 l 415 785 z "},"b":{"ha":811,"x_min":61,"x_max":769,"o":"m 556 -11 q 484 -4 519 -11 q 419 22 449 3 q 369 79 390 42 l 354 79 l 349 0 l 61 0 l 61 1032 l 358 1032 l 358 638 l 372 638 q 424 690 396 674 q 485 713 453 707 q 551 718 518 718 q 649 701 608 718 q 717 644 690 685 q 757 531 744 603 q 769 351 769 460 q 757 172 769 243 q 718 61 744 101 q 651 5 692 21 q 556 -11 611 -11 m 415 218 q 449 221 438 218 q 466 236 461 224 q 472 276 471 249 q 474 354 474 304 q 472 432 474 404 q 466 472 471 460 q 449 488 461 485 q 415 490 438 490 q 378 486 390 490 q 363 461 367 482 q 359 418 360 443 q 358 354 358 393 q 359 290 358 315 q 363 249 360 265 q 378 223 367 228 q 415 218 390 218 z "},"c":{"ha":647,"x_min":42,"x_max":601,"o":"m 367 -11 q 211 6 272 -11 q 115 56 150 24 q 65 132 81 88 q 46 233 50 176 q 42 353 42 289 q 45 473 42 417 q 64 574 49 529 q 114 652 79 619 q 210 702 149 685 q 367 719 271 719 q 485 713 428 719 q 596 694 542 707 l 596 503 q 529 508 571 506 q 450 511 488 511 q 391 506 413 511 q 359 484 369 500 q 346 437 349 468 q 343 354 343 406 q 346 272 343 303 q 358 224 349 240 q 390 203 368 208 q 450 197 411 197 q 524 200 482 197 q 601 207 567 203 l 601 15 q 484 -4 544 3 q 367 -11 424 -11 z "},"ć":{"ha":647,"x_min":42,"x_max":601,"o":"m 367 -11 q 211 6 272 -11 q 115 56 150 24 q 65 132 81 88 q 46 233 50 176 q 42 353 42 289 q 45 473 42 417 q 64 574 49 529 q 114 652 79 619 q 210 702 149 685 q 367 719 271 719 q 485 713 428 719 q 596 694 542 707 l 596 503 q 529 508 571 506 q 450 511 488 511 q 391 506 413 511 q 359 484 369 500 q 346 437 349 468 q 343 354 343 406 q 346 272 343 303 q 358 224 349 240 q 390 203 368 208 q 450 197 411 197 q 524 200 482 197 q 601 207 567 203 l 601 15 q 484 -4 544 3 q 367 -11 424 -11 m 168 785 l 168 792 l 288 990 l 563 990 l 563 983 l 374 785 l 168 785 z "},"č":{"ha":647,"x_min":42,"x_max":601,"o":"m 367 -11 q 211 6 272 -11 q 115 56 150 24 q 65 132 81 88 q 46 233 50 176 q 42 353 42 289 q 45 473 42 417 q 64 574 49 529 q 114 652 79 619 q 210 702 149 685 q 367 719 271 719 q 485 713 428 719 q 596 694 542 707 l 596 503 q 529 508 571 506 q 450 511 488 511 q 391 506 413 511 q 359 484 369 500 q 346 437 349 468 q 343 354 343 406 q 346 272 343 303 q 358 224 349 240 q 390 203 368 208 q 450 197 411 197 q 524 200 482 197 q 601 207 567 203 l 601 15 q 484 -4 544 3 q 367 -11 424 -11 m 206 785 l 82 979 l 82 990 l 268 990 l 340 890 l 407 990 l 593 990 l 593 979 l 468 785 l 206 785 z "},"ç":{"ha":647,"x_min":42,"x_max":601,"o":"m 367 -11 q 211 6 272 -11 q 115 56 150 24 q 65 132 81 88 q 46 233 50 176 q 42 353 42 289 q 45 473 42 417 q 64 574 49 529 q 114 652 79 619 q 210 702 149 685 q 367 719 271 719 q 485 713 428 719 q 596 694 542 707 l 596 503 q 529 508 571 506 q 450 511 488 511 q 391 506 413 511 q 359 484 369 500 q 346 437 349 468 q 343 354 343 406 q 346 272 343 303 q 358 224 349 240 q 390 203 368 208 q 450 197 411 197 q 524 200 482 197 q 601 207 567 203 l 601 15 q 484 -4 544 3 q 367 -11 424 -11 m 176 -264 l 176 -257 l 297 25 l 483 25 l 483 18 l 436 -264 l 176 -264 z "},"ĉ":{"ha":647,"x_min":42,"x_max":601,"o":"m 367 -11 q 211 6 272 -11 q 115 56 150 24 q 65 132 81 88 q 46 233 50 176 q 42 353 42 289 q 45 473 42 417 q 64 574 49 529 q 114 652 79 619 q 210 702 149 685 q 367 719 271 719 q 485 713 428 719 q 596 694 542 707 l 596 503 q 529 508 571 506 q 450 511 488 511 q 391 506 413 511 q 359 484 369 500 q 346 437 349 468 q 343 354 343 406 q 346 272 343 303 q 358 224 349 240 q 390 203 368 208 q 450 197 411 197 q 524 200 482 197 q 601 207 567 203 l 601 15 q 484 -4 544 3 q 367 -11 424 -11 m 82 785 l 82 796 l 206 990 l 468 990 l 593 796 l 593 785 l 407 785 l 336 885 l 268 785 l 82 785 z "},"ċ":{"ha":647,"x_min":42,"x_max":601,"o":"m 367 -11 q 211 6 272 -11 q 115 56 150 24 q 65 132 81 88 q 46 233 50 176 q 42 353 42 289 q 45 473 42 417 q 64 574 49 529 q 114 652 79 619 q 210 702 149 685 q 367 719 271 719 q 485 713 428 719 q 596 694 542 707 l 596 503 q 529 508 571 506 q 450 511 488 511 q 391 506 413 511 q 359 484 369 500 q 346 437 349 468 q 343 354 343 406 q 346 272 343 303 q 358 224 349 240 q 390 203 368 208 q 450 197 411 197 q 524 200 482 197 q 601 207 567 203 l 601 15 q 484 -4 544 3 q 367 -11 424 -11 m 222 800 l 222 972 l 451 972 l 451 800 l 222 800 z "},"d":{"ha":811,"x_min":42,"x_max":750,"o":"m 256 -11 q 160 5 200 -11 q 93 61 119 21 q 54 172 67 101 q 42 351 42 243 q 54 531 42 460 q 94 644 67 603 q 162 701 121 685 q 260 718 203 718 q 326 713 294 718 q 387 690 358 707 q 439 638 415 674 l 453 638 l 453 1032 l 750 1032 l 750 0 l 463 0 l 457 79 l 442 79 q 392 22 421 42 q 328 -4 363 3 q 256 -11 293 -11 m 396 218 q 435 224 424 218 q 449 253 446 229 q 452 297 451 274 q 453 354 453 321 q 453 409 453 386 q 450 449 453 432 q 435 484 447 478 q 396 490 424 490 q 362 488 374 490 q 345 472 350 485 q 339 432 340 460 q 338 354 338 404 q 339 276 338 304 q 345 236 340 249 q 362 221 350 224 q 396 218 374 218 z "},"ð":{"ha":793,"x_min":42,"x_max":751,"o":"m 396 -11 q 228 -1 294 -11 q 124 35 163 10 q 69 102 86 60 q 47 206 51 144 q 42 354 42 268 q 49 524 42 454 q 82 637 57 593 q 157 700 107 681 q 290 719 207 719 q 346 717 322 719 q 400 708 369 714 l 408 715 q 394 757 403 738 q 376 794 386 776 l 189 771 l 189 924 l 279 935 q 230 984 256 961 q 181 1026 204 1007 l 181 1032 l 497 1032 q 531 1001 518 1015 q 556 972 544 988 l 744 997 l 744 844 l 664 832 q 709 719 690 781 q 739 581 728 658 q 746 513 743 549 q 750 438 749 478 q 751 354 751 399 q 747 206 751 268 q 724 102 742 144 q 667 35 706 60 q 563 -1 629 10 q 396 -11 497 -11 m 396 197 q 430 201 418 197 q 447 219 442 204 q 454 267 453 235 q 456 354 456 299 q 454 442 456 411 q 447 489 453 474 q 430 508 442 504 q 396 511 418 511 q 362 508 374 511 q 345 489 350 504 q 339 442 340 474 q 338 354 338 411 q 339 267 338 299 q 345 219 340 235 q 362 201 350 204 q 396 197 374 197 z "},"ď":{"ha":811,"x_min":42,"x_max":1018,"o":"m 256 -11 q 160 5 200 -11 q 93 61 119 21 q 54 172 67 101 q 42 351 42 243 q 54 531 42 460 q 94 644 67 603 q 162 701 121 685 q 260 718 203 718 q 326 713 294 718 q 387 690 358 707 q 439 638 415 674 l 453 638 l 453 1032 l 750 1032 l 750 0 l 463 0 l 457 79 l 442 79 q 392 22 421 42 q 328 -4 363 3 q 256 -11 293 -11 m 396 218 q 435 224 424 218 q 449 253 446 229 q 452 297 451 274 q 453 354 453 321 q 453 409 453 386 q 450 449 453 432 q 435 484 447 478 q 396 490 424 490 q 362 488 374 490 q 345 472 350 485 q 339 432 340 460 q 338 354 338 404 q 339 276 338 304 q 345 236 340 249 q 362 221 350 224 q 396 218 374 218 m 792 585 l 804 892 l 804 956 l 1018 956 l 1018 892 l 947 585 l 792 585 z "},"đ":{"ha":811,"x_min":42,"x_max":824,"o":"m 288 826 l 288 956 l 824 956 l 824 826 l 288 826 m 256 -11 q 160 5 200 -11 q 93 61 119 21 q 54 172 67 101 q 42 351 42 243 q 54 531 42 460 q 94 644 67 603 q 162 701 121 685 q 260 718 203 718 q 326 713 294 718 q 387 690 358 707 q 439 638 415 674 l 453 638 l 453 1032 l 750 1032 l 750 0 l 463 0 l 457 79 l 442 79 q 392 22 421 42 q 328 -4 363 3 q 256 -11 293 -11 m 396 218 q 435 224 424 218 q 449 253 446 229 q 452 297 451 274 q 453 354 453 321 q 453 409 453 386 q 450 449 453 432 q 435 484 447 478 q 396 490 424 490 q 362 488 374 490 q 345 472 350 485 q 339 432 340 460 q 338 354 338 404 q 339 276 338 304 q 345 236 340 249 q 362 221 350 224 q 396 218 374 218 z "},"ḍ":{"ha":811,"x_min":42,"x_max":750,"o":"m 256 -11 q 160 5 200 -11 q 93 61 119 21 q 54 172 67 101 q 42 351 42 243 q 54 531 42 460 q 94 644 67 603 q 162 701 121 685 q 260 718 203 718 q 326 713 294 718 q 387 690 358 707 q 439 638 415 674 l 453 638 l 453 1032 l 750 1032 l 750 0 l 463 0 l 457 79 l 442 79 q 392 22 421 42 q 328 -4 363 3 q 256 -11 293 -11 m 396 218 q 435 224 424 218 q 449 253 446 229 q 452 297 451 274 q 453 354 453 321 q 453 409 453 386 q 450 449 453 432 q 435 484 447 478 q 396 490 424 490 q 362 488 374 490 q 345 472 350 485 q 339 432 340 460 q 338 354 338 404 q 339 276 338 304 q 345 236 340 249 q 362 221 350 224 q 396 218 374 218 m 292 -324 l 292 -118 l 519 -118 l 519 -324 l 292 -324 z "},"ǳ":{"ha":1557,"x_min":42,"x_max":1508,"o":"m 256 -11 q 160 5 200 -11 q 93 61 119 21 q 54 172 67 101 q 42 351 42 243 q 54 531 42 460 q 94 644 67 603 q 162 701 121 685 q 260 718 203 718 q 326 713 294 718 q 387 690 358 707 q 439 638 415 674 l 453 638 l 453 1032 l 750 1032 l 750 0 l 463 0 l 457 79 l 442 79 q 392 22 421 42 q 328 -4 363 3 q 256 -11 293 -11 m 396 218 q 435 224 424 218 q 449 253 446 229 q 452 297 451 274 q 453 354 453 321 q 453 409 453 386 q 450 449 453 432 q 435 484 447 478 q 396 490 424 490 q 362 488 374 490 q 345 472 350 485 q 339 432 340 460 q 338 354 338 404 q 339 276 338 304 q 345 236 340 249 q 362 221 350 224 q 396 218 374 218 m 860 0 l 860 197 l 1135 500 l 876 500 l 876 708 l 1506 708 l 1506 511 l 1231 208 l 1508 208 l 1508 0 l 860 0 z "},"ǆ":{"ha":1557,"x_min":42,"x_max":1508,"o":"m 256 -11 q 160 5 200 -11 q 93 61 119 21 q 54 172 67 101 q 42 351 42 243 q 54 531 42 460 q 94 644 67 603 q 162 701 121 685 q 260 718 203 718 q 326 713 294 718 q 387 690 358 707 q 439 638 415 674 l 453 638 l 453 1032 l 750 1032 l 750 0 l 463 0 l 457 79 l 442 79 q 392 22 421 42 q 328 -4 363 3 q 256 -11 293 -11 m 396 218 q 435 224 424 218 q 449 253 446 229 q 452 297 451 274 q 453 354 453 321 q 453 409 453 386 q 450 449 453 432 q 435 484 447 478 q 396 490 424 490 q 362 488 374 490 q 345 472 350 485 q 339 432 340 460 q 338 354 338 404 q 339 276 338 304 q 345 236 340 249 q 362 221 350 224 q 396 218 374 218 m 860 0 l 860 197 l 1135 500 l 876 500 l 876 708 l 1506 708 l 1506 511 l 1231 208 l 1508 208 l 1508 0 l 860 0 m 1060 785 l 936 979 l 936 990 l 1122 990 l 1194 890 l 1261 990 l 1447 990 l 1447 979 l 1322 785 l 1060 785 z "},"e":{"ha":775,"x_min":42,"x_max":726,"o":"m 421 -11 q 240 2 311 -11 q 129 42 169 15 q 70 113 89 69 q 47 215 51 156 q 42 353 42 275 q 50 521 42 451 q 91 634 58 590 q 194 699 124 678 q 390 719 265 719 q 555 708 492 719 q 653 670 618 696 q 704 602 689 644 q 723 498 719 560 q 726 353 726 436 l 726 299 l 332 299 q 336 240 332 261 q 356 210 340 219 q 403 199 371 201 q 492 197 436 197 q 549 199 515 197 q 622 202 582 200 q 699 207 661 204 l 699 17 q 626 2 671 8 q 527 -8 581 -4 q 421 -11 474 -11 m 451 394 l 451 417 q 450 482 451 458 q 442 516 449 506 q 424 529 436 526 q 390 532 411 532 q 359 529 371 532 q 342 516 347 526 q 334 482 336 506 q 332 417 332 458 l 474 417 l 451 394 z "},"é":{"ha":775,"x_min":42,"x_max":726,"o":"m 421 -11 q 240 2 311 -11 q 129 42 169 15 q 70 113 89 69 q 47 215 51 156 q 42 353 42 275 q 50 521 42 451 q 91 634 58 590 q 194 699 124 678 q 390 719 265 719 q 555 708 492 719 q 653 670 618 696 q 704 602 689 644 q 723 498 719 560 q 726 353 726 436 l 726 299 l 332 299 q 336 240 332 261 q 356 210 340 219 q 403 199 371 201 q 492 197 436 197 q 549 199 515 197 q 622 202 582 200 q 699 207 661 204 l 699 17 q 626 2 671 8 q 527 -8 581 -4 q 421 -11 474 -11 m 451 394 l 451 417 q 450 482 451 458 q 442 516 449 506 q 424 529 436 526 q 390 532 411 532 q 359 529 371 532 q 342 516 347 526 q 334 482 336 506 q 332 417 332 458 l 474 417 l 451 394 m 224 785 l 224 792 l 343 990 l 618 990 l 618 983 l 429 785 l 224 785 z "},"ĕ":{"ha":775,"x_min":42,"x_max":726,"o":"m 421 -11 q 240 2 311 -11 q 129 42 169 15 q 70 113 89 69 q 47 215 51 156 q 42 353 42 275 q 50 521 42 451 q 91 634 58 590 q 194 699 124 678 q 390 719 265 719 q 555 708 492 719 q 653 670 618 696 q 704 602 689 644 q 723 498 719 560 q 726 353 726 436 l 726 299 l 332 299 q 336 240 332 261 q 356 210 340 219 q 403 199 371 201 q 492 197 436 197 q 549 199 515 197 q 622 202 582 200 q 699 207 661 204 l 699 17 q 626 2 671 8 q 527 -8 581 -4 q 421 -11 474 -11 m 451 394 l 451 417 q 450 482 451 458 q 442 516 449 506 q 424 529 436 526 q 390 532 411 532 q 359 529 371 532 q 342 516 347 526 q 334 482 336 506 q 332 417 332 458 l 474 417 l 451 394 m 392 779 q 276 794 321 779 q 208 838 232 810 q 176 906 185 867 q 168 990 168 944 l 322 990 q 325 957 322 972 q 342 933 328 942 q 392 924 357 924 q 442 933 428 924 q 460 957 457 942 q 463 990 463 972 l 617 990 q 608 906 617 944 q 575 838 599 867 q 507 794 551 810 q 392 779 463 779 z "},"ě":{"ha":775,"x_min":42,"x_max":726,"o":"m 421 -11 q 240 2 311 -11 q 129 42 169 15 q 70 113 89 69 q 47 215 51 156 q 42 353 42 275 q 50 521 42 451 q 91 634 58 590 q 194 699 124 678 q 390 719 265 719 q 555 708 492 719 q 653 670 618 696 q 704 602 689 644 q 723 498 719 560 q 726 353 726 436 l 726 299 l 332 299 q 336 240 332 261 q 356 210 340 219 q 403 199 371 201 q 492 197 436 197 q 549 199 515 197 q 622 202 582 200 q 699 207 661 204 l 699 17 q 626 2 671 8 q 527 -8 581 -4 q 421 -11 474 -11 m 451 394 l 451 417 q 450 482 451 458 q 442 516 449 506 q 424 529 436 526 q 390 532 411 532 q 359 529 371 532 q 342 516 347 526 q 334 482 336 506 q 332 417 332 458 l 474 417 l 451 394 m 261 785 l 138 979 l 138 990 l 324 990 l 396 890 l 463 990 l 649 990 l 649 979 l 524 785 l 261 785 z "},"ê":{"ha":775,"x_min":42,"x_max":726,"o":"m 421 -11 q 240 2 311 -11 q 129 42 169 15 q 70 113 89 69 q 47 215 51 156 q 42 353 42 275 q 50 521 42 451 q 91 634 58 590 q 194 699 124 678 q 390 719 265 719 q 555 708 492 719 q 653 670 618 696 q 704 602 689 644 q 723 498 719 560 q 726 353 726 436 l 726 299 l 332 299 q 336 240 332 261 q 356 210 340 219 q 403 199 371 201 q 492 197 436 197 q 549 199 515 197 q 622 202 582 200 q 699 207 661 204 l 699 17 q 626 2 671 8 q 527 -8 581 -4 q 421 -11 474 -11 m 451 394 l 451 417 q 450 482 451 458 q 442 516 449 506 q 424 529 436 526 q 390 532 411 532 q 359 529 371 532 q 342 516 347 526 q 334 482 336 506 q 332 417 332 458 l 474 417 l 451 394 m 138 785 l 138 796 l 261 990 l 524 990 l 649 796 l 649 785 l 463 785 l 392 885 l 324 785 l 138 785 z "},"ế":{"ha":775,"x_min":42,"x_max":726,"o":"m 421 -11 q 240 2 311 -11 q 129 42 169 15 q 70 113 89 69 q 47 215 51 156 q 42 353 42 275 q 50 521 42 451 q 91 634 58 590 q 194 699 124 678 q 390 719 265 719 q 555 708 492 719 q 653 670 618 696 q 704 602 689 644 q 723 498 719 560 q 726 353 726 436 l 726 299 l 332 299 q 336 240 332 261 q 356 210 340 219 q 403 199 371 201 q 492 197 436 197 q 549 199 515 197 q 622 202 582 200 q 699 207 661 204 l 699 17 q 626 2 671 8 q 527 -8 581 -4 q 421 -11 474 -11 m 451 394 l 451 417 q 450 482 451 458 q 442 516 449 506 q 424 529 436 526 q 390 532 411 532 q 359 529 371 532 q 342 516 347 526 q 334 482 336 506 q 332 417 332 458 l 474 417 l 451 394 m 138 785 l 138 796 l 261 990 l 524 990 l 649 796 l 649 785 l 463 785 l 392 885 l 324 785 l 138 785 m 224 1032 l 224 1039 l 343 1238 l 618 1238 l 618 1231 l 429 1032 l 224 1032 z "},"ệ":{"ha":775,"x_min":42,"x_max":726,"o":"m 421 -11 q 240 2 311 -11 q 129 42 169 15 q 70 113 89 69 q 47 215 51 156 q 42 353 42 275 q 50 521 42 451 q 91 634 58 590 q 194 699 124 678 q 390 719 265 719 q 555 708 492 719 q 653 670 618 696 q 704 602 689 644 q 723 498 719 560 q 726 353 726 436 l 726 299 l 332 299 q 336 240 332 261 q 356 210 340 219 q 403 199 371 201 q 492 197 436 197 q 549 199 515 197 q 622 202 582 200 q 699 207 661 204 l 699 17 q 626 2 671 8 q 527 -8 581 -4 q 421 -11 474 -11 m 451 394 l 451 417 q 450 482 451 458 q 442 516 449 506 q 424 529 436 526 q 390 532 411 532 q 359 529 371 532 q 342 516 347 526 q 334 482 336 506 q 332 417 332 458 l 474 417 l 451 394 m 274 -324 l 274 -118 l 501 -118 l 501 -324 l 274 -324 m 138 785 l 138 796 l 261 990 l 524 990 l 649 796 l 649 785 l 463 785 l 392 885 l 324 785 l 138 785 z "},"ề":{"ha":775,"x_min":42,"x_max":726,"o":"m 421 -11 q 240 2 311 -11 q 129 42 169 15 q 70 113 89 69 q 47 215 51 156 q 42 353 42 275 q 50 521 42 451 q 91 634 58 590 q 194 699 124 678 q 390 719 265 719 q 555 708 492 719 q 653 670 618 696 q 704 602 689 644 q 723 498 719 560 q 726 353 726 436 l 726 299 l 332 299 q 336 240 332 261 q 356 210 340 219 q 403 199 371 201 q 492 197 436 197 q 549 199 515 197 q 622 202 582 200 q 699 207 661 204 l 699 17 q 626 2 671 8 q 527 -8 581 -4 q 421 -11 474 -11 m 451 394 l 451 417 q 450 482 451 458 q 442 516 449 506 q 424 529 436 526 q 390 532 411 532 q 359 529 371 532 q 342 516 347 526 q 334 482 336 506 q 332 417 332 458 l 474 417 l 451 394 m 138 785 l 138 796 l 261 990 l 524 990 l 649 796 l 649 785 l 463 785 l 392 885 l 324 785 l 138 785 m 306 1032 l 117 1231 l 117 1238 l 392 1238 l 511 1039 l 511 1032 l 306 1032 z "},"ể":{"ha":775,"x_min":42,"x_max":726,"o":"m 421 -11 q 240 2 311 -11 q 129 42 169 15 q 70 113 89 69 q 47 215 51 156 q 42 353 42 275 q 50 521 42 451 q 91 634 58 590 q 194 699 124 678 q 390 719 265 719 q 555 708 492 719 q 653 670 618 696 q 704 602 689 644 q 723 498 719 560 q 726 353 726 436 l 726 299 l 332 299 q 336 240 332 261 q 356 210 340 219 q 403 199 371 201 q 492 197 436 197 q 549 199 515 197 q 622 202 582 200 q 699 207 661 204 l 699 17 q 626 2 671 8 q 527 -8 581 -4 q 421 -11 474 -11 m 451 394 l 451 417 q 450 482 451 458 q 442 516 449 506 q 424 529 436 526 q 390 532 411 532 q 359 529 371 532 q 342 516 347 526 q 334 482 336 506 q 332 417 332 458 l 474 417 l 451 394 m 138 785 l 138 796 l 261 990 l 524 990 l 649 796 l 649 785 l 463 785 l 392 885 l 324 785 l 138 785 m 293 1026 l 293 1029 q 299 1081 293 1061 q 319 1113 304 1101 q 364 1132 335 1125 l 385 1138 q 409 1145 401 1142 q 419 1155 417 1149 q 422 1171 422 1161 q 418 1194 422 1188 q 398 1203 414 1201 q 349 1206 382 1206 q 303 1204 331 1206 q 247 1201 275 1203 q 203 1197 219 1200 l 203 1324 q 294 1335 240 1331 q 394 1340 349 1340 q 499 1333 451 1340 q 575 1294 546 1326 q 604 1189 604 1263 q 596 1128 604 1151 q 564 1092 588 1106 q 496 1065 540 1078 l 482 1061 q 458 1052 467 1057 q 446 1041 449 1047 q 443 1026 443 1035 l 293 1026 z "},"ễ":{"ha":775,"x_min":42,"x_max":726,"o":"m 421 -11 q 240 2 311 -11 q 129 42 169 15 q 70 113 89 69 q 47 215 51 156 q 42 353 42 275 q 50 521 42 451 q 91 634 58 590 q 194 699 124 678 q 390 719 265 719 q 555 708 492 719 q 653 670 618 696 q 704 602 689 644 q 723 498 719 560 q 726 353 726 436 l 726 299 l 332 299 q 336 240 332 261 q 356 210 340 219 q 403 199 371 201 q 492 197 436 197 q 549 199 515 197 q 622 202 582 200 q 699 207 661 204 l 699 17 q 626 2 671 8 q 527 -8 581 -4 q 421 -11 474 -11 m 451 394 l 451 417 q 450 482 451 458 q 442 516 449 506 q 424 529 436 526 q 390 532 411 532 q 359 529 371 532 q 342 516 347 526 q 334 482 336 506 q 332 417 332 458 l 474 417 l 451 394 m 138 785 l 138 796 l 261 990 l 524 990 l 649 796 l 649 785 l 463 785 l 392 885 l 324 785 l 138 785 m 108 1017 q 115 1133 108 1085 q 151 1208 121 1182 q 253 1235 181 1235 q 338 1227 294 1235 q 415 1213 381 1219 q 468 1203 444 1207 q 507 1199 492 1199 q 534 1210 531 1199 q 538 1251 538 1222 l 676 1251 q 670 1135 676 1185 q 634 1060 664 1086 q 532 1033 604 1033 q 448 1042 490 1033 q 369 1056 406 1050 q 317 1065 340 1061 q 278 1069 293 1069 q 251 1057 256 1069 q 247 1017 247 1044 l 108 1017 z "},"ȅ":{"ha":775,"x_min":42,"x_max":726,"o":"m 421 -11 q 240 2 311 -11 q 129 42 169 15 q 70 113 89 69 q 47 215 51 156 q 42 353 42 275 q 50 521 42 451 q 91 634 58 590 q 194 699 124 678 q 390 719 265 719 q 555 708 492 719 q 653 670 618 696 q 704 602 689 644 q 723 498 719 560 q 726 353 726 436 l 726 299 l 332 299 q 336 240 332 261 q 356 210 340 219 q 403 199 371 201 q 492 197 436 197 q 549 199 515 197 q 622 202 582 200 q 699 207 661 204 l 699 17 q 626 2 671 8 q 527 -8 581 -4 q 421 -11 474 -11 m 451 394 l 451 417 q 450 482 451 458 q 442 516 449 506 q 424 529 436 526 q 390 532 411 532 q 359 529 371 532 q 342 516 347 526 q 334 482 336 506 q 332 417 332 458 l 474 417 l 451 394 m 628 785 l 463 785 l 313 953 l 313 958 l 535 958 l 628 790 l 628 785 m 365 785 l 197 785 l 49 953 l 49 958 l 269 958 l 365 790 l 365 785 z "},"ë":{"ha":775,"x_min":42,"x_max":726,"o":"m 421 -11 q 240 2 311 -11 q 129 42 169 15 q 70 113 89 69 q 47 215 51 156 q 42 353 42 275 q 50 521 42 451 q 91 634 58 590 q 194 699 124 678 q 390 719 265 719 q 555 708 492 719 q 653 670 618 696 q 704 602 689 644 q 723 498 719 560 q 726 353 726 436 l 726 299 l 332 299 q 336 240 332 261 q 356 210 340 219 q 403 199 371 201 q 492 197 436 197 q 549 199 515 197 q 622 202 582 200 q 699 207 661 204 l 699 17 q 626 2 671 8 q 527 -8 581 -4 q 421 -11 474 -11 m 451 394 l 451 417 q 450 482 451 458 q 442 516 449 506 q 424 529 436 526 q 390 532 411 532 q 359 529 371 532 q 342 516 347 526 q 334 482 336 506 q 332 417 332 458 l 474 417 l 451 394 m 124 800 l 124 972 l 353 972 l 353 800 l 124 800 m 435 800 l 435 972 l 664 972 l 664 800 l 435 800 z "},"ė":{"ha":775,"x_min":42,"x_max":726,"o":"m 421 -11 q 240 2 311 -11 q 129 42 169 15 q 70 113 89 69 q 47 215 51 156 q 42 353 42 275 q 50 521 42 451 q 91 634 58 590 q 194 699 124 678 q 390 719 265 719 q 555 708 492 719 q 653 670 618 696 q 704 602 689 644 q 723 498 719 560 q 726 353 726 436 l 726 299 l 332 299 q 336 240 332 261 q 356 210 340 219 q 403 199 371 201 q 492 197 436 197 q 549 199 515 197 q 622 202 582 200 q 699 207 661 204 l 699 17 q 626 2 671 8 q 527 -8 581 -4 q 421 -11 474 -11 m 451 394 l 451 417 q 450 482 451 458 q 442 516 449 506 q 424 529 436 526 q 390 532 411 532 q 359 529 371 532 q 342 516 347 526 q 334 482 336 506 q 332 417 332 458 l 474 417 l 451 394 m 278 800 l 278 972 l 507 972 l 507 800 l 278 800 z "},"ẹ":{"ha":775,"x_min":42,"x_max":726,"o":"m 421 -11 q 240 2 311 -11 q 129 42 169 15 q 70 113 89 69 q 47 215 51 156 q 42 353 42 275 q 50 521 42 451 q 91 634 58 590 q 194 699 124 678 q 390 719 265 719 q 555 708 492 719 q 653 670 618 696 q 704 602 689 644 q 723 498 719 560 q 726 353 726 436 l 726 299 l 332 299 q 336 240 332 261 q 356 210 340 219 q 403 199 371 201 q 492 197 436 197 q 549 199 515 197 q 622 202 582 200 q 699 207 661 204 l 699 17 q 626 2 671 8 q 527 -8 581 -4 q 421 -11 474 -11 m 451 394 l 451 417 q 450 482 451 458 q 442 516 449 506 q 424 529 436 526 q 390 532 411 532 q 359 529 371 532 q 342 516 347 526 q 334 482 336 506 q 332 417 332 458 l 474 417 l 451 394 m 274 -324 l 274 -118 l 501 -118 l 501 -324 l 274 -324 z "},"è":{"ha":775,"x_min":42,"x_max":726,"o":"m 421 -11 q 240 2 311 -11 q 129 42 169 15 q 70 113 89 69 q 47 215 51 156 q 42 353 42 275 q 50 521 42 451 q 91 634 58 590 q 194 699 124 678 q 390 719 265 719 q 555 708 492 719 q 653 670 618 696 q 704 602 689 644 q 723 498 719 560 q 726 353 726 436 l 726 299 l 332 299 q 336 240 332 261 q 356 210 340 219 q 403 199 371 201 q 492 197 436 197 q 549 199 515 197 q 622 202 582 200 q 699 207 661 204 l 699 17 q 626 2 671 8 q 527 -8 581 -4 q 421 -11 474 -11 m 451 394 l 451 417 q 450 482 451 458 q 442 516 449 506 q 424 529 436 526 q 390 532 411 532 q 359 529 371 532 q 342 516 347 526 q 334 482 336 506 q 332 417 332 458 l 474 417 l 451 394 m 306 785 l 117 983 l 117 990 l 392 990 l 511 792 l 511 785 l 306 785 z "},"ẻ":{"ha":775,"x_min":42,"x_max":726,"o":"m 421 -11 q 240 2 311 -11 q 129 42 169 15 q 70 113 89 69 q 47 215 51 156 q 42 353 42 275 q 50 521 42 451 q 91 634 58 590 q 194 699 124 678 q 390 719 265 719 q 555 708 492 719 q 653 670 618 696 q 704 602 689 644 q 723 498 719 560 q 726 353 726 436 l 726 299 l 332 299 q 336 240 332 261 q 356 210 340 219 q 403 199 371 201 q 492 197 436 197 q 549 199 515 197 q 622 202 582 200 q 699 207 661 204 l 699 17 q 626 2 671 8 q 527 -8 581 -4 q 421 -11 474 -11 m 451 394 l 451 417 q 450 482 451 458 q 442 516 449 506 q 424 529 436 526 q 390 532 411 532 q 359 529 371 532 q 342 516 347 526 q 334 482 336 506 q 332 417 332 458 l 474 417 l 451 394 m 293 779 l 293 782 q 299 834 293 814 q 319 866 304 854 q 364 885 335 878 l 385 890 q 409 898 401 894 q 419 908 417 901 q 422 924 422 914 q 418 947 422 940 q 398 956 414 954 q 349 958 382 958 q 303 957 331 958 q 247 954 275 956 q 203 950 219 953 l 203 1076 q 294 1088 240 1083 q 394 1093 349 1093 q 499 1086 451 1093 q 575 1047 546 1079 q 604 942 604 1015 q 596 881 604 904 q 564 844 588 858 q 496 818 540 831 l 482 814 q 458 805 467 810 q 446 794 449 800 q 443 779 443 788 l 293 779 z "},"ȇ":{"ha":775,"x_min":42,"x_max":726,"o":"m 421 -11 q 240 2 311 -11 q 129 42 169 15 q 70 113 89 69 q 47 215 51 156 q 42 353 42 275 q 50 521 42 451 q 91 634 58 590 q 194 699 124 678 q 390 719 265 719 q 555 708 492 719 q 653 670 618 696 q 704 602 689 644 q 723 498 719 560 q 726 353 726 436 l 726 299 l 332 299 q 336 240 332 261 q 356 210 340 219 q 403 199 371 201 q 492 197 436 197 q 549 199 515 197 q 622 202 582 200 q 699 207 661 204 l 699 17 q 626 2 671 8 q 527 -8 581 -4 q 421 -11 474 -11 m 451 394 l 451 417 q 450 482 451 458 q 442 516 449 506 q 424 529 436 526 q 390 532 411 532 q 359 529 371 532 q 342 516 347 526 q 334 482 336 506 q 332 417 332 458 l 474 417 l 451 394 m 393 996 q 508 981 464 996 q 576 937 553 965 q 608 869 600 908 q 617 785 617 831 l 463 785 q 460 818 463 803 q 442 842 457 833 q 393 851 428 851 q 343 842 358 851 q 325 818 328 833 q 322 785 322 803 l 168 785 q 177 869 168 831 q 210 937 186 908 q 278 981 233 965 q 393 996 322 996 z "},"ē":{"ha":775,"x_min":42,"x_max":726,"o":"m 421 -11 q 240 2 311 -11 q 129 42 169 15 q 70 113 89 69 q 47 215 51 156 q 42 353 42 275 q 50 521 42 451 q 91 634 58 590 q 194 699 124 678 q 390 719 265 719 q 555 708 492 719 q 653 670 618 696 q 704 602 689 644 q 723 498 719 560 q 726 353 726 436 l 726 299 l 332 299 q 336 240 332 261 q 356 210 340 219 q 403 199 371 201 q 492 197 436 197 q 549 199 515 197 q 622 202 582 200 q 699 207 661 204 l 699 17 q 626 2 671 8 q 527 -8 581 -4 q 421 -11 474 -11 m 451 394 l 451 417 q 450 482 451 458 q 442 516 449 506 q 424 529 436 526 q 390 532 411 532 q 359 529 371 532 q 342 516 347 526 q 334 482 336 506 q 332 417 332 458 l 474 417 l 451 394 m 144 800 l 144 956 l 642 956 l 642 800 l 144 800 z "},"ę":{"ha":775,"x_min":42,"x_max":726,"o":"m 421 -11 q 240 2 311 -11 q 129 42 169 15 q 70 113 89 69 q 47 215 51 156 q 42 353 42 275 q 50 521 42 451 q 91 634 58 590 q 194 699 124 678 q 390 719 265 719 q 555 708 492 719 q 653 670 618 696 q 704 602 689 644 q 723 498 719 560 q 726 353 726 436 l 726 299 l 332 299 q 336 240 332 261 q 356 210 340 219 q 403 199 371 201 q 492 197 436 197 q 549 199 515 197 q 622 202 582 200 q 699 207 661 204 l 699 17 q 626 2 671 8 q 527 -8 581 -4 q 421 -11 474 -11 m 451 394 l 451 417 q 450 482 451 458 q 442 516 449 506 q 424 529 436 526 q 390 532 411 532 q 359 529 371 532 q 342 516 347 526 q 334 482 336 506 q 332 417 332 458 l 474 417 l 451 394 m 579 -261 q 457 -244 501 -261 q 395 -198 413 -226 q 378 -137 378 -169 q 407 -51 378 -94 q 482 31 436 -7 l 699 17 q 660 -8 681 8 q 626 -44 640 -25 q 611 -81 611 -62 q 624 -113 611 -100 q 676 -126 636 -126 q 685 -126 679 -126 q 700 -125 690 -126 l 700 -256 q 642 -259 676 -257 q 579 -261 607 -261 z "},"ẽ":{"ha":775,"x_min":42,"x_max":726,"o":"m 421 -11 q 240 2 311 -11 q 129 42 169 15 q 70 113 89 69 q 47 215 51 156 q 42 353 42 275 q 50 521 42 451 q 91 634 58 590 q 194 699 124 678 q 390 719 265 719 q 555 708 492 719 q 653 670 618 696 q 704 602 689 644 q 723 498 719 560 q 726 353 726 436 l 726 299 l 332 299 q 336 240 332 261 q 356 210 340 219 q 403 199 371 201 q 492 197 436 197 q 549 199 515 197 q 622 202 582 200 q 699 207 661 204 l 699 17 q 626 2 671 8 q 527 -8 581 -4 q 421 -11 474 -11 m 451 394 l 451 417 q 450 482 451 458 q 442 516 449 506 q 424 529 436 526 q 390 532 411 532 q 359 529 371 532 q 342 516 347 526 q 334 482 336 506 q 332 417 332 458 l 474 417 l 451 394 m 108 769 q 115 886 108 838 q 151 961 121 935 q 253 988 181 988 q 338 980 294 988 q 415 965 381 972 q 468 956 444 960 q 507 951 492 951 q 534 963 531 951 q 538 1004 538 975 l 676 1004 q 670 888 676 938 q 634 813 664 839 q 532 786 604 786 q 448 794 490 786 q 369 808 406 803 q 317 818 340 814 q 278 822 293 822 q 251 810 256 822 q 247 769 247 797 l 108 769 z "},"ə":{"ha":775,"x_min":49,"x_max":733,"o":"m 354 719 q 535 706 464 719 q 646 666 606 693 q 705 596 686 639 q 728 493 724 553 q 733 356 733 433 q 725 188 733 257 q 684 74 717 118 q 581 10 651 31 q 385 -11 510 -11 q 220 1 283 -11 q 122 38 157 13 q 71 106 86 64 q 52 210 56 149 q 49 356 49 272 l 49 410 l 443 410 q 439 468 443 447 q 419 498 435 489 q 372 509 404 507 q 283 511 339 511 q 227 510 261 511 q 154 506 193 508 q 76 501 115 504 l 76 692 q 149 706 104 700 q 248 716 194 713 q 354 719 301 719 m 324 314 l 324 292 q 325 226 324 250 q 333 192 326 203 q 351 179 339 182 q 385 176 364 176 q 416 179 404 176 q 433 192 428 182 q 441 226 439 203 q 443 292 443 250 l 301 292 l 324 314 z "},"f":{"ha":635,"x_min":24,"x_max":600,"o":"m 142 0 l 142 500 l 24 500 l 24 708 l 142 708 l 142 726 q 152 874 142 817 q 190 963 163 931 q 268 1009 217 994 q 401 1027 319 1024 q 600 1031 482 1031 l 600 840 q 511 838 543 840 q 465 828 479 836 q 447 805 450 821 q 443 760 443 789 l 443 708 l 600 708 l 600 500 l 443 500 l 443 0 l 142 0 z "},"g":{"ha":811,"x_min":42,"x_max":750,"o":"m 368 -286 q 272 -283 322 -286 q 178 -276 222 -281 q 104 -265 135 -271 l 104 -78 q 165 -78 135 -78 q 225 -78 194 -78 q 286 -78 256 -78 q 383 -76 349 -78 q 431 -64 417 -74 q 449 -33 446 -54 q 453 28 453 -11 l 453 93 l 439 93 q 387 41 415 58 q 326 18 358 24 q 260 13 294 13 q 162 29 203 13 q 94 85 121 46 q 54 194 67 125 q 42 368 42 263 q 54 542 42 474 q 93 649 67 611 q 160 703 119 688 q 256 719 200 719 q 328 713 293 719 q 392 686 363 706 q 442 629 421 667 l 457 629 l 463 708 l 750 708 l 750 76 q 741 -80 750 -12 q 696 -193 732 -147 q 583 -262 660 -239 q 368 -286 506 -286 m 396 240 q 435 246 424 240 q 449 275 446 251 q 452 313 451 292 q 453 365 453 335 q 453 416 453 394 q 450 451 453 438 q 435 485 447 479 q 396 490 424 490 q 362 488 374 490 q 345 474 350 485 q 339 437 340 463 q 338 365 338 411 q 339 294 338 319 q 345 257 340 268 q 362 243 350 246 q 396 240 374 240 z "},"ǵ":{"ha":811,"x_min":42,"x_max":750,"o":"m 368 -286 q 272 -283 322 -286 q 178 -276 222 -281 q 104 -265 135 -271 l 104 -78 q 165 -78 135 -78 q 225 -78 194 -78 q 286 -78 256 -78 q 383 -76 349 -78 q 431 -64 417 -74 q 449 -33 446 -54 q 453 28 453 -11 l 453 93 l 439 93 q 387 41 415 58 q 326 18 358 24 q 260 13 294 13 q 162 29 203 13 q 94 85 121 46 q 54 194 67 125 q 42 368 42 263 q 54 542 42 474 q 93 649 67 611 q 160 703 119 688 q 256 719 200 719 q 328 713 293 719 q 392 686 363 706 q 442 629 421 667 l 457 629 l 463 708 l 750 708 l 750 76 q 741 -80 750 -12 q 696 -193 732 -147 q 583 -262 660 -239 q 368 -286 506 -286 m 396 240 q 435 246 424 240 q 449 275 446 251 q 452 313 451 292 q 453 365 453 335 q 453 416 453 394 q 450 451 453 438 q 435 485 447 479 q 396 490 424 490 q 362 488 374 490 q 345 474 350 485 q 339 437 340 463 q 338 365 338 411 q 339 294 338 319 q 345 257 340 268 q 362 243 350 246 q 396 240 374 240 m 236 785 l 236 792 l 356 990 l 631 990 l 631 983 l 442 785 l 236 785 z "},"ğ":{"ha":811,"x_min":42,"x_max":750,"o":"m 368 -286 q 272 -283 322 -286 q 178 -276 222 -281 q 104 -265 135 -271 l 104 -78 q 165 -78 135 -78 q 225 -78 194 -78 q 286 -78 256 -78 q 383 -76 349 -78 q 431 -64 417 -74 q 449 -33 446 -54 q 453 28 453 -11 l 453 93 l 439 93 q 387 41 415 58 q 326 18 358 24 q 260 13 294 13 q 162 29 203 13 q 94 85 121 46 q 54 194 67 125 q 42 368 42 263 q 54 542 42 474 q 93 649 67 611 q 160 703 119 688 q 256 719 200 719 q 328 713 293 719 q 392 686 363 706 q 442 629 421 667 l 457 629 l 463 708 l 750 708 l 750 76 q 741 -80 750 -12 q 696 -193 732 -147 q 583 -262 660 -239 q 368 -286 506 -286 m 396 240 q 435 246 424 240 q 449 275 446 251 q 452 313 451 292 q 453 365 453 335 q 453 416 453 394 q 450 451 453 438 q 435 485 447 479 q 396 490 424 490 q 362 488 374 490 q 345 474 350 485 q 339 437 340 463 q 338 365 338 411 q 339 294 338 319 q 345 257 340 268 q 362 243 350 246 q 396 240 374 240 m 404 779 q 289 794 333 779 q 221 838 244 810 q 189 906 197 867 q 181 990 181 944 l 335 990 q 338 957 335 972 q 355 933 340 942 q 404 924 369 924 q 455 933 440 924 q 472 957 469 942 q 475 990 475 972 l 629 990 q 620 906 629 944 q 588 838 611 867 q 519 794 564 810 q 404 779 475 779 z "},"ǧ":{"ha":811,"x_min":42,"x_max":750,"o":"m 368 -286 q 272 -283 322 -286 q 178 -276 222 -281 q 104 -265 135 -271 l 104 -78 q 165 -78 135 -78 q 225 -78 194 -78 q 286 -78 256 -78 q 383 -76 349 -78 q 431 -64 417 -74 q 449 -33 446 -54 q 453 28 453 -11 l 453 93 l 439 93 q 387 41 415 58 q 326 18 358 24 q 260 13 294 13 q 162 29 203 13 q 94 85 121 46 q 54 194 67 125 q 42 368 42 263 q 54 542 42 474 q 93 649 67 611 q 160 703 119 688 q 256 719 200 719 q 328 713 293 719 q 392 686 363 706 q 442 629 421 667 l 457 629 l 463 708 l 750 708 l 750 76 q 741 -80 750 -12 q 696 -193 732 -147 q 583 -262 660 -239 q 368 -286 506 -286 m 396 240 q 435 246 424 240 q 449 275 446 251 q 452 313 451 292 q 453 365 453 335 q 453 416 453 394 q 450 451 453 438 q 435 485 447 479 q 396 490 424 490 q 362 488 374 490 q 345 474 350 485 q 339 437 340 463 q 338 365 338 411 q 339 294 338 319 q 345 257 340 268 q 362 243 350 246 q 396 240 374 240 m 274 785 l 150 979 l 150 990 l 336 990 l 408 890 l 475 990 l 661 990 l 661 979 l 536 785 l 274 785 z "},"ĝ":{"ha":811,"x_min":42,"x_max":750,"o":"m 368 -286 q 272 -283 322 -286 q 178 -276 222 -281 q 104 -265 135 -271 l 104 -78 q 165 -78 135 -78 q 225 -78 194 -78 q 286 -78 256 -78 q 383 -76 349 -78 q 431 -64 417 -74 q 449 -33 446 -54 q 453 28 453 -11 l 453 93 l 439 93 q 387 41 415 58 q 326 18 358 24 q 260 13 294 13 q 162 29 203 13 q 94 85 121 46 q 54 194 67 125 q 42 368 42 263 q 54 542 42 474 q 93 649 67 611 q 160 703 119 688 q 256 719 200 719 q 328 713 293 719 q 392 686 363 706 q 442 629 421 667 l 457 629 l 463 708 l 750 708 l 750 76 q 741 -80 750 -12 q 696 -193 732 -147 q 583 -262 660 -239 q 368 -286 506 -286 m 396 240 q 435 246 424 240 q 449 275 446 251 q 452 313 451 292 q 453 365 453 335 q 453 416 453 394 q 450 451 453 438 q 435 485 447 479 q 396 490 424 490 q 362 488 374 490 q 345 474 350 485 q 339 437 340 463 q 338 365 338 411 q 339 294 338 319 q 345 257 340 268 q 362 243 350 246 q 396 240 374 240 m 150 785 l 150 796 l 274 990 l 536 990 l 661 796 l 661 785 l 475 785 l 404 885 l 336 785 l 150 785 z "},"ģ":{"ha":811,"x_min":42,"x_max":750,"o":"m 368 -286 q 272 -283 322 -286 q 178 -276 222 -281 q 104 -265 135 -271 l 104 -78 q 165 -78 135 -78 q 225 -78 194 -78 q 286 -78 256 -78 q 383 -76 349 -78 q 431 -64 417 -74 q 449 -33 446 -54 q 453 28 453 -11 l 453 93 l 439 93 q 387 41 415 58 q 326 18 358 24 q 260 13 294 13 q 162 29 203 13 q 94 85 121 46 q 54 194 67 125 q 42 368 42 263 q 54 542 42 474 q 93 649 67 611 q 160 703 119 688 q 256 719 200 719 q 328 713 293 719 q 392 686 363 706 q 442 629 421 667 l 457 629 l 463 708 l 750 708 l 750 76 q 741 -80 750 -12 q 696 -193 732 -147 q 583 -262 660 -239 q 368 -286 506 -286 m 396 240 q 435 246 424 240 q 449 275 446 251 q 452 313 451 292 q 453 365 453 335 q 453 416 453 394 q 450 451 453 438 q 435 485 447 479 q 396 490 424 490 q 362 488 374 490 q 345 474 350 485 q 339 437 340 463 q 338 365 338 411 q 339 294 338 319 q 345 257 340 268 q 362 243 350 246 q 396 240 374 240 m 263 778 l 263 882 q 272 988 263 946 q 309 1055 281 1031 q 394 1090 338 1079 q 547 1100 451 1100 l 547 1000 q 466 989 482 1000 q 450 950 450 978 l 450 942 l 547 942 l 547 778 l 263 778 z "},"ġ":{"ha":811,"x_min":42,"x_max":750,"o":"m 368 -286 q 272 -283 322 -286 q 178 -276 222 -281 q 104 -265 135 -271 l 104 -78 q 165 -78 135 -78 q 225 -78 194 -78 q 286 -78 256 -78 q 383 -76 349 -78 q 431 -64 417 -74 q 449 -33 446 -54 q 453 28 453 -11 l 453 93 l 439 93 q 387 41 415 58 q 326 18 358 24 q 260 13 294 13 q 162 29 203 13 q 94 85 121 46 q 54 194 67 125 q 42 368 42 263 q 54 542 42 474 q 93 649 67 611 q 160 703 119 688 q 256 719 200 719 q 328 713 293 719 q 392 686 363 706 q 442 629 421 667 l 457 629 l 463 708 l 750 708 l 750 76 q 741 -80 750 -12 q 696 -193 732 -147 q 583 -262 660 -239 q 368 -286 506 -286 m 396 240 q 435 246 424 240 q 449 275 446 251 q 452 313 451 292 q 453 365 453 335 q 453 416 453 394 q 450 451 453 438 q 435 485 447 479 q 396 490 424 490 q 362 488 374 490 q 345 474 350 485 q 339 437 340 463 q 338 365 338 411 q 339 294 338 319 q 345 257 340 268 q 362 243 350 246 q 396 240 374 240 m 290 800 l 290 972 l 519 972 l 519 800 l 290 800 z "},"h":{"ha":817,"x_min":61,"x_max":756,"o":"m 61 0 l 61 1032 l 358 1032 l 358 629 l 372 629 q 428 686 397 667 q 494 713 460 706 q 556 719 528 719 q 663 701 624 719 q 723 648 703 683 q 749 561 743 613 q 756 443 756 510 l 756 0 l 458 0 l 458 374 q 457 440 458 417 q 451 474 456 464 q 437 487 447 485 q 410 489 426 489 q 381 487 392 489 q 365 474 369 485 q 360 440 361 464 q 358 374 358 417 l 358 0 l 61 0 z "},"ħ":{"ha":817,"x_min":-12,"x_max":756,"o":"m -12 828 l -12 956 l 524 956 l 524 828 l -12 828 m 61 0 l 61 1032 l 358 1032 l 358 629 l 372 629 q 428 686 397 667 q 494 713 460 706 q 556 719 528 719 q 663 701 624 719 q 723 648 703 683 q 749 561 743 613 q 756 443 756 510 l 756 0 l 458 0 l 458 374 q 457 440 458 417 q 451 474 456 464 q 437 487 447 485 q 410 489 426 489 q 381 487 392 489 q 365 474 369 485 q 360 440 361 464 q 358 374 358 417 l 358 0 l 61 0 z "},"ĥ":{"ha":817,"x_min":-46,"x_max":756,"o":"m 61 0 l 61 1032 l 358 1032 l 358 629 l 372 629 q 428 686 397 667 q 494 713 460 706 q 556 719 528 719 q 663 701 624 719 q 723 648 703 683 q 749 561 743 613 q 756 443 756 510 l 756 0 l 458 0 l 458 374 q 457 440 458 417 q 451 474 456 464 q 437 487 447 485 q 410 489 426 489 q 381 487 392 489 q 365 474 369 485 q 360 440 361 464 q 358 374 358 417 l 358 0 l 61 0 m -46 1063 l -46 1074 l 78 1268 l 340 1268 l 465 1074 l 465 1063 l 279 1063 l 208 1163 l 140 1063 l -46 1063 z "},"ḥ":{"ha":817,"x_min":61,"x_max":756,"o":"m 61 0 l 61 1032 l 358 1032 l 358 629 l 372 629 q 428 686 397 667 q 494 713 460 706 q 556 719 528 719 q 663 701 624 719 q 723 648 703 683 q 749 561 743 613 q 756 443 756 510 l 756 0 l 458 0 l 458 374 q 457 440 458 417 q 451 474 456 464 q 437 487 447 485 q 410 489 426 489 q 381 487 392 489 q 365 474 369 485 q 360 440 361 464 q 358 374 358 417 l 358 0 l 61 0 m 294 -324 l 294 -118 l 522 -118 l 522 -324 l 294 -324 z "},"i":{"ha":425,"x_min":61,"x_max":364,"o":"m 61 822 l 61 1032 l 364 1032 l 364 822 l 61 822 m 61 0 l 61 708 l 364 708 l 364 0 l 61 0 z "},"ı":{"ha":425,"x_min":61,"x_max":364,"o":"m 61 0 l 61 708 l 364 708 l 364 0 l 61 0 z "},"í":{"ha":425,"x_min":43,"x_max":438,"o":"m 61 0 l 61 708 l 364 708 l 364 0 l 61 0 m 43 785 l 43 792 l 163 990 l 438 990 l 438 983 l 249 785 l 43 785 z "},"ĭ":{"ha":425,"x_min":-12,"x_max":436,"o":"m 61 0 l 61 708 l 364 708 l 364 0 l 61 0 m 211 779 q 96 794 140 779 q 28 838 51 810 q -4 906 4 867 q -12 990 -12 944 l 142 990 q 144 957 142 972 q 162 933 147 942 q 211 924 176 924 q 262 933 247 924 q 279 957 276 942 q 282 990 282 972 l 436 990 q 427 906 436 944 q 394 838 418 867 q 326 794 371 810 q 211 779 282 779 z "},"ǐ":{"ha":425,"x_min":-43,"x_max":468,"o":"m 61 0 l 61 708 l 364 708 l 364 0 l 61 0 m 81 785 l -43 979 l -43 990 l 143 990 l 215 890 l 282 990 l 468 990 l 468 979 l 343 785 l 81 785 z "},"î":{"ha":425,"x_min":-43,"x_max":468,"o":"m 61 0 l 61 708 l 364 708 l 364 0 l 61 0 m -43 785 l -43 796 l 81 990 l 343 990 l 468 796 l 468 785 l 282 785 l 211 885 l 143 785 l -43 785 z "},"ȉ":{"ha":425,"x_min":-132,"x_max":447,"o":"m 61 0 l 61 708 l 364 708 l 364 0 l 61 0 m 447 785 l 282 785 l 132 953 l 132 958 l 354 958 l 447 790 l 447 785 m 185 785 l 17 785 l -132 953 l -132 958 l 89 958 l 185 790 l 185 785 z "},"ï":{"ha":425,"x_min":-58,"x_max":482,"o":"m 61 0 l 61 708 l 364 708 l 364 0 l 61 0 m -58 800 l -58 972 l 171 972 l 171 800 l -58 800 m 253 800 l 253 972 l 482 972 l 482 800 l 253 800 z "},"ị":{"ha":425,"x_min":61,"x_max":364,"o":"m 61 822 l 61 1032 l 364 1032 l 364 822 l 61 822 m 61 0 l 61 708 l 364 708 l 364 0 l 61 0 m 99 -324 l 99 -118 l 326 -118 l 326 -324 l 99 -324 z "},"ì":{"ha":425,"x_min":-64,"x_max":364,"o":"m 61 0 l 61 708 l 364 708 l 364 0 l 61 0 m 125 785 l -64 983 l -64 990 l 211 990 l 331 792 l 331 785 l 125 785 z "},"ỉ":{"ha":425,"x_min":22,"x_max":424,"o":"m 61 0 l 61 708 l 364 708 l 364 0 l 61 0 m 113 779 l 113 782 q 118 834 113 814 q 139 866 124 854 q 183 885 154 878 l 204 890 q 228 898 221 894 q 239 908 236 901 q 242 924 242 914 q 238 947 242 940 q 217 956 233 954 q 168 958 201 958 q 122 957 150 958 q 67 954 94 956 q 22 950 39 953 l 22 1076 q 114 1088 60 1083 q 214 1093 168 1093 q 318 1086 271 1093 q 394 1047 365 1079 q 424 942 424 1015 q 415 881 424 904 q 383 844 407 858 q 315 818 360 831 l 301 814 q 277 805 286 810 q 265 794 268 800 q 263 779 263 788 l 113 779 z "},"ȋ":{"ha":425,"x_min":-12,"x_max":436,"o":"m 61 0 l 61 708 l 364 708 l 364 0 l 61 0 m 213 996 q 328 981 283 996 q 396 937 372 965 q 428 869 419 908 q 436 785 436 831 l 282 785 q 279 818 282 803 q 262 842 276 833 q 213 851 247 851 q 163 842 178 851 q 144 818 147 833 q 142 785 142 803 l -12 785 q -3 869 -12 831 q 29 937 6 908 q 97 981 53 965 q 213 996 142 996 z "},"ĳ":{"ha":850,"x_min":61,"x_max":789,"o":"m 61 822 l 61 1032 l 364 1032 l 364 822 l 61 822 m 61 0 l 61 708 l 364 708 l 364 0 l 61 0 m 486 822 l 486 1032 l 789 1032 l 789 822 l 486 822 m 386 -276 l 386 -85 q 456 -77 435 -85 q 481 -53 476 -69 q 486 -14 486 -37 l 486 708 l 789 708 l 789 51 q 774 -127 789 -61 q 716 -225 758 -193 q 594 -267 674 -257 q 386 -276 514 -276 z "},"ī":{"ha":425,"x_min":-36,"x_max":461,"o":"m 61 0 l 61 708 l 364 708 l 364 0 l 61 0 m -36 800 l -36 956 l 461 956 l 461 800 l -36 800 z "},"į":{"ha":425,"x_min":43,"x_max":365,"o":"m 61 822 l 61 1032 l 364 1032 l 364 822 l 61 822 m 61 0 l 61 708 l 364 708 l 364 0 l 61 0 m 244 -278 q 122 -260 167 -278 q 60 -215 78 -243 q 43 -154 43 -186 q 72 -67 43 -111 q 147 14 101 -24 l 364 0 q 326 -25 346 -8 q 291 -60 306 -42 q 276 -97 276 -79 q 289 -130 276 -117 q 342 -143 301 -143 q 350 -143 344 -143 q 365 -142 356 -143 l 365 -272 q 307 -276 342 -274 q 244 -278 272 -278 z "},"ĩ":{"ha":425,"x_min":-72,"x_max":496,"o":"m 61 0 l 61 708 l 364 708 l 364 0 l 61 0 m -72 769 q -66 886 -72 838 q -30 961 -60 935 q 72 988 0 988 q 157 980 114 988 q 235 965 200 972 q 288 956 264 960 q 326 951 311 951 q 353 963 350 951 q 357 1004 357 975 l 496 1004 q 490 888 496 938 q 453 813 483 839 q 351 786 424 786 q 267 794 310 786 q 189 808 225 803 q 136 818 160 814 q 97 822 113 822 q 71 810 75 822 q 67 769 67 797 l -72 769 z "},"j":{"ha":425,"x_min":-39,"x_max":364,"o":"m 61 822 l 61 1032 l 364 1032 l 364 822 l 61 822 m -39 -276 l -39 -85 q 31 -77 10 -85 q 56 -53 51 -69 q 61 -14 61 -37 l 61 708 l 364 708 l 364 51 q 349 -127 364 -61 q 291 -225 333 -193 q 169 -267 249 -257 q -39 -276 89 -276 z "},"ȷ":{"ha":425,"x_min":-39,"x_max":364,"o":"m -39 -276 l -39 -85 q 31 -77 10 -85 q 56 -53 51 -69 q 61 -14 61 -37 l 61 708 l 364 708 l 364 51 q 349 -127 364 -61 q 291 -225 333 -193 q 169 -267 249 -257 q -39 -276 89 -276 z "},"ĵ":{"ha":425,"x_min":-43,"x_max":468,"o":"m -39 -276 l -39 -85 q 31 -77 10 -85 q 56 -53 51 -69 q 61 -14 61 -37 l 61 708 l 364 708 l 364 51 q 349 -127 364 -61 q 291 -225 333 -193 q 169 -267 249 -257 q -39 -276 89 -276 m -43 785 l -43 796 l 81 990 l 343 990 l 468 796 l 468 785 l 282 785 l 211 885 l 143 785 l -43 785 z "},"k":{"ha":835,"x_min":61,"x_max":835,"o":"m 61 0 l 61 1032 l 358 1032 l 358 454 l 371 454 l 519 708 l 831 708 l 618 374 l 835 0 l 510 0 l 371 246 l 358 246 l 358 0 l 61 0 z "},"ķ":{"ha":835,"x_min":61,"x_max":835,"o":"m 61 0 l 61 1032 l 358 1032 l 358 454 l 371 454 l 519 708 l 831 708 l 618 374 l 835 0 l 510 0 l 371 246 l 358 246 l 358 0 l 61 0 m 290 -412 l 290 -312 q 355 -308 335 -312 q 381 -292 375 -303 q 388 -262 388 -281 l 388 -254 l 290 -254 l 290 -90 l 575 -90 l 575 -194 q 566 -301 575 -258 q 528 -367 557 -343 q 443 -402 500 -392 q 290 -412 386 -412 z "},"ĸ":{"ha":835,"x_min":61,"x_max":835,"o":"m 61 0 l 61 708 l 358 708 l 358 454 l 371 454 l 519 708 l 831 708 l 618 374 l 835 0 l 510 0 l 371 246 l 358 246 l 358 0 l 61 0 z "},"l":{"ha":425,"x_min":61,"x_max":364,"o":"m 61 0 l 61 1032 l 364 1032 l 364 0 l 61 0 z "}}}
